<svg width="459" height="155" viewBox="0 0 459 155" fill="none" xmlns="http://www.w3.org/2000/svg">
<path d="M6.21803 31.6925C6.01934 30.7225 5.62195 30.0446 5.01418 29.6355C4.40641 29.2381 3.58826 28.8875 2.57141 28.5836C1.77664 28.3966 1.18055 28.1862 0.783165 27.9641C0.385777 27.742 0.140331 27.3914 0.046828 26.9122C-0.12849 26.0473 0.187083 25.533 1.01692 25.3577L34.7482 18.4969C35.5663 18.3333 36.2325 18.0995 36.7468 17.784C37.2611 17.4801 37.7987 17.0944 38.3597 16.6269C39.0844 15.984 39.7272 15.5983 40.3116 15.4814C41.0363 15.3412 41.7025 15.8321 42.3102 16.9658C42.918 18.0995 43.666 19.8527 44.5543 22.237C44.7413 22.9033 44.9166 23.4175 45.092 23.7798C45.6997 25.311 46.2023 26.5265 46.588 27.4382C46.9737 28.3381 47.4062 29.2732 47.9087 30.2199C48.423 31.2718 48.7503 32.1133 48.8671 32.7328C49.0658 33.7029 48.6801 34.2756 47.71 34.4743C47.1841 34.5795 46.5062 34.3691 45.6997 33.8314C44.8816 33.2938 43.8063 32.4055 42.4505 31.1783C41.2349 30.1147 40.2064 29.2732 39.3766 28.642C38.5467 28.0109 37.7403 27.52 36.9689 27.1693C35.6481 26.5849 34.4209 26.0824 33.3106 25.6499C32.1885 25.2291 31.1132 24.8902 30.0496 24.6564C28.9977 24.4227 27.8991 24.2941 26.7653 24.2707C25.6316 24.2474 24.381 24.3759 23.0369 24.6564C21.8331 24.9019 21.085 25.2408 20.7928 25.6733C20.5006 26.1057 20.4773 26.8771 20.6993 27.9875L22.9083 38.4715C23.107 39.4416 23.4109 40.1546 23.8317 40.6221C24.2524 41.0896 25.0238 41.2065 26.1342 40.9844C29.6523 40.5169 33.2287 40.213 36.8403 40.0494C40.4519 39.8974 43.7946 40.2247 46.8802 41.0546C49.9658 41.8844 52.6774 43.4038 55.0033 45.6245C57.3409 47.8335 59.0122 51.0594 60.0174 55.267C60.4732 57.5345 60.3446 59.6734 59.62 61.672C58.8953 63.6823 57.785 65.4939 56.2773 67.0952C54.7695 68.7081 52.9813 70.0756 50.8891 71.2093C48.8087 72.3313 46.6581 73.1261 44.4374 73.5703L12.2256 80.1155C11.4075 80.2791 10.9516 80.1506 10.8581 79.7181C10.7179 79.0402 10.8114 78.4675 11.1153 78.0117C11.4191 77.5441 11.9217 77.0182 12.5996 76.4338C13.371 75.7793 13.932 75.1598 14.2944 74.5754C14.6567 74.0027 14.7385 73.2313 14.5398 72.2612L6.21803 31.6925ZM26.1225 45.4375C25.3511 45.5895 24.942 46.0803 24.907 46.8868C24.8719 47.6933 24.9888 48.7802 25.2693 50.136L29.138 69.1756C29.3717 70.3327 29.6873 71.221 30.0964 71.8405C30.4938 72.4599 30.8912 72.7287 31.2769 72.6586C34.9936 71.8989 37.787 70.6366 39.6571 68.8484C41.5271 67.0601 42.6959 65.0732 43.1635 62.8992C43.6193 60.7253 43.4556 58.4929 42.6726 56.2137C41.8778 53.9346 40.6856 51.9243 39.0727 50.1594C37.4598 48.4062 35.5196 47.0504 33.2755 46.1037C31.0197 45.157 28.6471 44.9349 26.1342 45.4492M88.7696 9.49725C92.6266 8.98298 96.3083 9.24011 99.8263 10.257C103.344 11.2738 106.488 12.9452 109.282 15.2594C112.075 17.5736 114.354 20.3553 116.131 23.6279C117.908 26.8888 119.053 30.477 119.579 34.3808C120.081 38.191 119.743 41.9545 118.55 45.6946C117.358 49.4348 115.5 52.8243 112.975 55.8631C110.451 58.902 107.447 61.4265 103.964 63.4369C100.481 65.4355 96.8109 66.6978 92.9539 67.2121C89.0969 67.7263 85.4152 67.5276 81.9205 66.6393C78.4258 65.7394 75.2818 64.2083 72.5117 62.046C69.7417 59.8837 67.4743 57.2306 65.7094 54.0865C63.9445 50.9425 62.8108 47.4478 62.2965 43.5908C61.8524 40.2715 61.9693 37.0807 62.6589 34.0068C63.3367 30.9328 64.4237 28.1862 65.9198 25.7434C67.4041 23.3123 69.0638 21.3605 70.8754 19.8995C72.6871 18.4385 74.4519 17.597 76.1584 17.3632C76.6025 17.3048 76.9415 17.1178 77.1986 16.8139C77.4557 16.51 77.7947 15.9256 78.2388 15.0724C78.4258 14.6516 78.8816 14.1607 79.6063 13.588C80.3193 13.0153 81.2192 12.4426 82.2828 11.8582C83.3464 11.2738 84.4451 10.7595 85.5788 10.3388C86.7125 9.91801 87.7761 9.6375 88.7462 9.50893M98.2368 20.9163C97.6056 20.9981 96.7758 21.1618 95.7706 21.3955C94.7538 21.6293 93.7369 21.9682 92.6967 22.4007C91.6565 22.8331 90.8033 23.3708 90.1137 24.0136C89.4241 24.6564 89.1436 25.3811 89.2488 26.2109C89.3774 27.1927 89.7046 27.8355 90.2189 28.1628C90.7332 28.4901 91.4228 28.7472 92.2993 28.9342C92.8604 29.0043 93.2577 29.1095 93.4915 29.2264C93.7253 29.3433 93.8655 29.5537 93.9123 29.8459C93.9941 30.477 93.8071 31.0731 93.3279 31.6341C92.8604 32.1951 92.2409 32.686 91.4695 33.1068C90.7098 33.5275 89.8916 33.8782 89.0384 34.1353C88.1852 34.4041 87.3554 34.5795 86.5723 34.6847C84.7373 34.7314 83.1711 34.4509 81.8854 33.8548C80.5881 33.2587 79.5595 32.4873 78.7881 31.5523C78.0167 30.6173 77.4324 29.6822 77.035 28.7706C76.6376 27.8589 76.2986 26.9239 76.0298 25.9655C75.8311 25.2408 75.6908 24.8902 75.5857 24.9019C75.048 24.972 74.6389 25.3226 74.3467 25.9655C74.0545 26.5966 73.8909 27.3797 73.8442 28.3031C73.7974 29.2264 73.8091 30.1731 73.8909 31.1315C73.9727 32.0899 74.0662 33.0133 74.1831 33.8899C74.487 36.1339 75.2818 38.4598 76.5674 40.8792C77.8531 43.2869 79.5245 45.4959 81.5816 47.4712C83.6386 49.4581 85.9879 50.9776 88.641 52.0412C91.2942 53.1048 94.0759 53.4437 97.0096 53.0463C102.912 52.2632 107.248 50.2412 110.018 46.992C112.788 43.7428 113.863 39.8273 113.256 35.234C112.648 30.6523 111 26.9823 108.323 24.2357C105.647 21.489 102.281 20.3787 98.2368 20.928M157.109 10.6894C157.027 9.55569 156.653 8.78428 155.975 8.36352C155.309 7.94276 154.467 7.72069 153.485 7.69731C153.041 7.73237 152.282 7.73237 151.195 7.709C150.108 7.68562 149.021 7.77913 147.922 7.97782C146.823 8.17651 145.865 8.55053 145.035 9.07648C144.205 9.60244 143.831 10.4089 143.913 11.4959C143.983 12.4777 144.053 13.7867 144.123 15.3996C144.194 17.0242 144.24 18.8592 144.264 20.9046C144.287 22.95 144.264 25.1473 144.182 27.4966C144.1 29.8459 143.96 32.2419 143.738 34.673C143.434 37.9573 143.048 41.1597 142.581 44.2687C142.113 47.3894 141.447 50.1945 140.594 52.6723C139.74 55.1501 138.63 57.1605 137.286 58.6916C135.942 60.2227 134.235 61.0058 132.167 61.0642C130.437 61.0876 128.929 60.4565 127.62 59.1708C126.323 57.8851 125.376 56.3423 124.803 54.5658C124.231 52.7775 124.102 50.9542 124.406 49.0724C124.71 47.2024 125.645 45.718 127.199 44.6077C127.538 45.8232 128.029 46.8401 128.684 47.6816C129.338 48.5231 130.028 49.1309 130.776 49.4932C131.512 49.8555 132.249 49.9607 132.985 49.7737C133.71 49.5984 134.317 49.0958 134.797 48.2777C135.696 47.1206 136.456 45.5778 137.052 43.6376C137.648 41.6974 138.151 39.5585 138.548 37.2326C138.946 34.9067 139.238 32.464 139.425 29.916C139.612 27.3563 139.717 24.9253 139.752 22.5994C139.776 20.2735 139.752 18.1463 139.659 16.1944C139.565 14.2542 139.437 12.7231 139.25 11.6011C139.191 10.7128 138.876 10.0232 138.326 9.52062C137.777 9.01804 137.169 8.5739 136.526 8.21158C135.883 7.83757 135.287 7.45187 134.738 7.04279C134.189 6.63371 133.897 6.09607 133.838 5.40648C133.826 5.16104 134.072 4.97403 134.574 4.83378C135.077 4.70521 135.533 4.6234 135.93 4.58833L175.424 1.74817C176.253 1.68974 176.698 1.87674 176.721 2.32088C176.779 3.05722 176.546 3.66499 176.043 4.14419C175.529 4.6234 174.979 5.07922 174.36 5.52336C173.752 5.9675 173.191 6.45839 172.689 7.00772C172.186 7.56874 171.964 8.2817 172.034 9.16998L175.015 50.5685C175.085 51.5503 175.377 52.2983 175.879 52.8009C176.382 53.3035 177.095 53.7943 178.018 54.2736C178.743 54.6593 179.257 54.9982 179.573 55.267C179.888 55.5359 180.064 55.9215 180.099 56.4124C180.157 57.1955 179.76 57.6163 178.93 57.6747L156.758 59.276C155.917 59.3344 155.484 59.1474 155.461 58.7033C155.414 58.0137 155.566 57.4644 155.928 57.0436C156.291 56.6228 156.852 56.167 157.6 55.6644C158.453 55.1151 159.084 54.5658 159.516 54.0398C159.949 53.5138 160.124 52.7658 160.054 51.784L157.097 10.6777L157.109 10.6894ZM206.478 0.965086C207.32 0.953398 207.741 1.16378 207.741 1.60792C207.752 2.29751 207.565 2.84684 207.18 3.24422C206.794 3.64161 206.209 4.07406 205.426 4.52989C204.55 5.03247 203.884 5.54674 203.428 6.03763C202.972 6.54021 202.75 7.27655 202.762 8.27002L203.007 18.1697C203.019 19.1514 203.194 19.9112 203.533 20.4488C203.86 20.9864 204.597 21.2436 205.73 21.2202C208.15 21.3254 210.569 21.5124 213.012 21.7929C215.455 22.0734 217.816 22.4825 220.083 23.0318C222.362 23.5812 224.478 24.3409 226.441 25.3226C228.405 26.2927 230.111 27.555 231.572 29.1095C232.823 30.4653 233.875 32.1133 234.728 34.0418C235.569 35.9703 236.06 37.9689 236.201 40.0377C236.341 42.1065 236.095 44.1402 235.464 46.1505C234.833 48.1608 233.723 49.914 232.122 51.4217C230.275 53.1281 228.101 54.4489 225.576 55.3839C223.052 56.3189 220.469 56.8098 217.804 56.8566L204.655 57.0903L184.938 57.441C184.096 57.4527 183.675 57.2423 183.675 56.7981C183.664 56.1086 183.851 55.5592 184.236 55.1618C184.622 54.7644 185.206 54.332 185.989 53.8762C186.866 53.3736 187.532 52.8593 188 52.3684C188.456 51.8659 188.678 51.1295 188.666 50.136L187.848 8.56221C187.836 7.58043 187.579 6.84409 187.111 6.3532C186.632 5.874 185.954 5.3948 185.054 4.91559C184.26 4.48314 183.664 4.07406 183.254 3.68836C182.857 3.30266 182.647 2.76502 182.635 2.07544C182.635 1.6313 183.044 1.39754 183.874 1.38585L206.467 0.988462L206.478 0.965086ZM204.924 25.8135C204.141 25.8252 203.65 26.2343 203.475 27.0174C203.288 27.8122 203.206 28.8991 203.241 30.2666L203.591 49.6919C203.615 50.8724 203.767 51.8074 204.047 52.497C204.328 53.1866 204.667 53.5255 205.064 53.5138C208.851 53.4437 211.831 52.7074 214.005 51.2815C216.168 49.8672 217.675 48.1257 218.529 46.0687C219.382 44.0116 219.627 41.7909 219.253 39.4066C218.891 37.0222 218.073 34.8249 216.81 32.8029C215.548 30.7809 213.888 29.0978 211.843 27.7537C209.798 26.4096 207.495 25.7668 204.936 25.8135M240.806 55.9683C239.964 55.9215 239.567 55.6878 239.59 55.2437C239.625 54.5541 239.847 54.0281 240.268 53.6541C240.677 53.2801 241.297 52.8944 242.103 52.4853C243.061 52.0412 243.786 51.5853 244.277 51.1178C244.768 50.6503 245.037 49.9257 245.095 48.9439L245.481 41.4169L247.222 7.4168C247.269 6.43502 247.082 5.68699 246.638 5.17273C246.194 4.65846 245.516 4.1325 244.616 3.59486C243.856 3.11566 243.283 2.65983 242.909 2.25075C242.535 1.84168 242.372 1.28066 242.407 0.602761C242.43 0.158621 242.863 -0.0400728 243.693 0.00667879L265.818 1.1404C266.659 1.18716 267.057 1.59623 267.01 2.39101C266.987 2.8819 266.811 3.2676 266.507 3.54811C266.192 3.82862 265.713 4.17926 265.046 4.58833C264.135 5.09091 263.433 5.59349 262.931 6.10776C262.44 6.62202 262.159 7.37005 262.113 8.35183L260.009 49.3646C259.927 51.036 260.395 51.971 261.423 52.1697C263.223 52.5554 265.561 52.8243 268.412 52.9762C269.394 53.0229 270.446 53.058 271.545 53.0697C272.655 53.0697 273.649 53.058 274.549 52.9996C276.08 52.9294 276.898 52.0061 276.98 50.2412L278.861 13.6581H278.791L279.013 9.22842C279.06 8.24664 278.873 7.49862 278.429 6.98435C277.985 6.47008 277.342 5.94413 276.477 5.40648C275.717 4.92728 275.145 4.47145 274.771 4.06238C274.397 3.6533 274.233 3.10397 274.268 2.41438C274.291 1.87674 274.724 1.61961 275.565 1.66636L297.691 2.80008C298.52 2.84684 298.93 3.25591 298.883 4.05069C298.859 4.54158 298.684 4.92728 298.38 5.20779C298.076 5.4883 297.585 5.82725 296.919 6.24801C296.008 6.7389 295.306 7.25317 294.804 7.76744C294.301 8.2817 294.032 9.04142 293.986 10.0232L291.882 51.036C291.8 52.7074 292.267 53.6424 293.296 53.8411C295.096 54.2268 297.434 54.4956 300.285 54.6476C301.267 54.6943 302.319 54.7294 303.418 54.7294C304.528 54.7294 305.522 54.7177 306.421 54.6593C307.953 54.5891 308.771 53.6658 308.853 51.9009L310.734 15.3178H310.664L310.886 10.8881C310.933 9.90632 310.746 9.1583 310.302 8.64403C309.858 8.12976 309.215 7.60381 308.35 7.06616C307.59 6.58696 307.018 6.13113 306.644 5.72206C306.27 5.31298 306.106 4.75196 306.141 4.07406C306.164 3.53642 306.597 3.29098 307.438 3.32604L329.563 4.45976C330.393 4.50652 330.791 4.96234 330.744 5.85062C330.721 6.34152 330.545 6.72722 330.241 7.00772C329.926 7.28823 329.423 7.62718 328.71 8.03626C327.799 8.52715 327.097 9.04142 326.595 9.55569C326.104 10.07 325.823 10.818 325.777 11.8114L325.66 14.1724H325.73L323.731 53.1281C323.684 54.1099 323.871 54.8463 324.316 55.3372C324.76 55.828 325.438 56.3423 326.338 56.88C327.097 57.3592 327.67 57.815 328.044 58.2241C328.418 58.6331 328.582 59.1942 328.547 59.8721C328.523 60.3162 328.091 60.5149 327.261 60.4681L240.806 56.0267V55.9683ZM369.22 9.39206C373.077 9.89464 376.572 11.0868 379.705 12.9802C382.837 14.8737 385.455 17.2931 387.559 20.2501C389.663 23.2071 391.147 26.4797 392.024 30.0913C392.9 33.7029 393.087 37.4664 392.585 41.3701C392.094 45.1804 390.785 48.7335 388.669 52.0412C386.554 55.3488 383.889 58.1422 380.663 60.4331C377.437 62.7239 373.884 64.3836 370.004 65.4238C366.123 66.464 362.255 66.7328 358.398 66.2303C354.541 65.7277 351.034 64.594 347.89 62.8291C344.746 61.0525 342.105 58.7734 339.989 55.9566C337.862 53.1515 336.366 50.0075 335.478 46.5128C334.589 43.0181 334.391 39.3481 334.893 35.4911C335.326 32.1718 336.261 29.1095 337.71 26.3278C339.159 23.5344 340.924 21.1618 342.993 19.1865C345.062 17.2229 347.154 15.762 349.293 14.8269C351.42 13.8919 353.348 13.5296 355.055 13.74C355.499 13.7984 355.873 13.7049 356.2 13.4828C356.527 13.2491 357.007 12.7815 357.649 12.0686C357.942 11.7063 358.514 11.3556 359.356 10.9816C360.197 10.6193 361.203 10.292 362.383 9.99983C363.564 9.70763 364.756 9.49725 365.96 9.38037C367.163 9.26349 368.262 9.26349 369.232 9.39206M375.462 22.8565C374.831 22.7747 373.989 22.7162 372.949 22.6812C371.909 22.6461 370.833 22.7046 369.723 22.8565C368.613 23.0084 367.643 23.3123 366.813 23.7448C365.983 24.1889 365.515 24.8201 365.41 25.6499C365.282 26.6317 365.434 27.3447 365.843 27.7888C366.252 28.2446 366.86 28.6654 367.654 29.0628C368.169 29.2732 368.531 29.4718 368.73 29.6472C368.928 29.8225 369.01 30.0562 368.975 30.3484C368.893 30.9796 368.554 31.5055 367.947 31.9263C367.35 32.3471 366.626 32.6626 365.773 32.873C364.919 33.0834 364.054 33.212 363.154 33.247C362.254 33.2821 361.413 33.247 360.642 33.1418C358.865 32.7094 357.416 32.0432 356.317 31.1315C355.218 30.2199 354.412 29.2147 353.921 28.1044C353.418 26.994 353.091 25.9538 352.951 24.9603C352.811 23.9785 352.717 22.9851 352.705 21.9916C352.705 21.2436 352.647 20.8696 352.554 20.8579C352.016 20.7877 351.525 21.0215 351.081 21.5591C350.637 22.0968 350.274 22.8098 349.982 23.6863C349.69 24.5629 349.468 25.4863 349.293 26.433C349.117 27.3797 348.977 28.2914 348.86 29.168C348.568 31.412 348.732 33.8665 349.363 36.5313C349.994 39.1962 351.034 41.7441 352.507 44.1986C353.979 46.653 355.861 48.7218 358.14 50.4399C360.42 52.158 363.038 53.1983 365.971 53.5723C371.885 54.332 376.596 53.5022 380.114 51.0711C383.632 48.64 385.677 45.1336 386.273 40.5403C386.869 35.9469 386.226 31.9847 384.345 28.642C382.463 25.2993 379.506 23.3591 375.45 22.8448M444.432 74.4469C444.783 75.0663 445.344 75.7325 446.103 76.4338C446.688 77.0065 447.097 77.4623 447.331 77.813C447.564 78.1636 447.635 78.5727 447.529 79.0636C447.377 79.835 446.887 80.1389 446.068 79.9752L424.341 75.6273C423.522 75.4637 423.148 75.1598 423.242 74.7274C423.382 74.0495 423.674 73.5586 424.142 73.2547C424.609 72.9508 425.264 72.6469 426.129 72.3664C427.099 72.0625 427.859 71.7119 428.408 71.3145C428.957 70.9288 429.343 70.2509 429.53 69.2808L435.129 41.3234L413.237 64.5121L412.98 65.8212C412.781 66.7913 412.863 67.5861 413.214 68.2055C413.564 68.825 414.125 69.4912 414.885 70.1925C415.469 70.7652 415.879 71.221 416.112 71.5716C416.346 71.9223 416.416 72.3313 416.311 72.8222C416.159 73.5936 415.668 73.8975 414.85 73.7339L393.122 69.386C392.304 69.2224 391.93 68.9185 392.024 68.486C392.164 67.8081 392.456 67.3172 392.924 67.0134C393.391 66.7095 394.046 66.4056 394.91 66.1251C395.881 65.8212 396.64 65.4706 397.19 65.0732C397.751 64.6875 398.125 64.0096 398.312 63.0395L406.458 22.3422C406.657 21.3721 406.54 20.5891 406.143 19.9813C405.733 19.3735 405.126 18.7307 404.308 18.0645C403.653 17.5853 403.185 17.1645 402.905 16.8022C402.624 16.4515 402.531 16.0308 402.636 15.5399C402.811 14.675 403.302 14.3127 404.132 14.488L426.515 18.9644C427.192 19.1047 427.461 19.5021 427.321 20.18C427.204 20.7527 426.924 21.1734 426.468 21.4072C426.024 21.641 425.369 21.8513 424.539 22.0384C423.581 22.2955 422.833 22.576 422.295 22.8682C421.758 23.1604 421.407 23.7214 421.243 24.5396L415.411 53.6541L437.291 30.5354L437.676 28.5836C437.875 27.6135 437.758 26.8304 437.361 26.2226C436.952 25.6148 436.344 24.972 435.526 24.3058C434.871 23.8266 434.404 23.4058 434.123 23.0435C433.843 22.6812 433.749 22.2604 433.843 21.7812C434.018 20.9163 434.509 20.554 435.339 20.7176L457.721 25.2058C458.399 25.346 458.668 25.7434 458.528 26.4213C458.411 27.0057 458.13 27.4031 457.674 27.6485C457.23 27.8823 456.576 28.0927 455.746 28.2797C454.788 28.5368 454.04 28.8173 453.502 29.1095C452.964 29.4017 452.614 29.9627 452.45 30.7809L444.187 72.0625C443.988 73.0326 444.07 73.8274 444.42 74.4469M431.517 16.4282C430.033 16.0775 428.642 15.6685 427.356 15.1776C426.07 14.6984 424.983 14.1607 424.095 13.588C422.202 12.5127 420.916 11.2738 420.238 9.88295C419.56 8.49209 419.338 7.22979 419.56 6.09607C419.782 4.96234 420.425 4.08575 421.477 3.46629C422.529 2.84684 423.838 2.76502 425.404 3.23254C426.737 3.60655 427.59 4.07406 427.976 4.64677C428.361 5.23117 428.537 5.86231 428.501 6.56358C428.466 7.26486 428.326 7.97782 428.104 8.70247C427.882 9.43881 427.812 10.1284 427.882 10.7712C427.952 11.4141 428.314 11.9985 428.957 12.5361C429.6 13.0737 430.804 13.4828 432.545 13.7867C433.995 14.0789 435.058 14.0906 435.736 13.8218C436.414 13.5529 436.893 13.1322 437.15 12.5595C437.419 11.9868 437.571 11.3089 437.63 10.5492C437.688 9.77776 437.84 9.08817 438.086 8.45702C438.343 7.82588 438.775 7.3233 439.406 6.94929C440.037 6.57527 441.031 6.47008 442.41 6.6454C444.035 6.82072 445.227 7.39343 445.975 8.37521C446.735 9.35699 447.015 10.4206 446.805 11.5543C446.606 12.6997 445.928 13.775 444.794 14.8035C443.661 15.8321 442.013 16.4749 439.85 16.7437C438.81 16.9424 437.525 16.9892 436.017 16.9191C434.497 16.8372 432.99 16.6736 431.482 16.4282M173.133 127.72C173.215 128.655 172.618 129.17 171.333 129.286L145.643 131.472C144.322 131.589 143.609 131.028 143.504 129.801C143.469 129.403 143.551 129.099 143.761 128.889C143.96 128.679 144.299 128.422 144.766 128.141C145.514 127.627 146.099 127.077 146.519 126.47C146.94 125.862 147.092 124.903 146.975 123.571C146.8 121.561 146.297 119.656 145.456 117.844C144.603 116.044 143.527 114.431 142.23 113.005C140.921 111.579 139.518 110.422 137.999 109.511C136.491 108.599 135.03 108.014 133.628 107.734C133.172 107.629 132.798 107.582 132.506 107.605C131.863 107.664 131.606 108.377 131.723 109.744L133.032 125.126C133.113 126.107 133.417 126.844 133.92 127.346C134.434 127.849 135.147 128.328 136.082 128.796C136.807 129.181 137.333 129.508 137.648 129.777C137.964 130.046 138.151 130.432 138.186 130.923C138.256 131.706 137.87 132.138 137.041 132.208L114.962 134.09C114.132 134.16 113.688 133.973 113.653 133.541C113.595 132.851 113.747 132.302 114.109 131.869C114.471 131.449 115.021 130.981 115.769 130.467C116.61 129.906 117.241 129.357 117.662 128.819C118.083 128.293 118.258 127.533 118.176 126.551L114.647 85.1179C114.565 84.1361 114.238 83.4115 113.688 82.9439C113.127 82.4764 112.367 82.0323 111.386 81.6232C110.614 81.3427 110.053 81.0739 109.679 80.8051C109.305 80.5362 109.107 80.1622 109.06 79.6713C108.99 78.7831 109.364 78.3155 110.193 78.2454L132.938 76.3052C133.628 76.2468 134.002 76.5624 134.06 77.252C134.107 77.8363 133.955 78.3155 133.593 78.6662C133.23 79.0168 132.669 79.4025 131.91 79.8116C131.068 80.3259 130.425 80.8051 129.993 81.2375C129.56 81.67 129.373 82.3011 129.455 83.131L130.53 95.7889C130.647 97.1681 130.741 98.1382 130.823 98.7343C130.893 99.3187 131.01 99.6109 131.15 99.5992C131.302 99.5875 131.582 98.8745 132.003 97.4486L132.237 96.6889C134.095 90.7047 136.409 85.8309 139.179 82.0907C141.949 78.3506 145.07 76.3286 148.553 76.0247C148.951 75.9897 149.558 75.9897 150.412 76.0247C151.311 76.0948 151.978 76.1182 152.422 76.0715C153.556 75.978 155.11 75.452 157.109 74.4819C158.815 73.6404 160.112 73.1846 160.989 73.1144C161.573 73.0677 162.006 73.2079 162.286 73.5586C162.567 73.9092 162.731 74.4001 162.789 75.0312C163.14 79.1103 162.333 82.3829 160.37 84.8725C158.406 87.362 155.811 88.7411 152.574 89.0217C151.989 89.0684 150.821 88.9749 149.067 88.7295C147.314 88.484 146.145 88.3905 145.561 88.4373C143.352 88.6243 141.54 89.5827 140.138 91.3125C138.724 93.0423 137.216 95.7539 135.603 99.4473C135.521 99.5992 135.451 99.7511 135.416 99.9031C135.042 100.674 134.855 101.212 134.89 101.504C134.937 102.042 135.65 102.334 137.041 102.358C140.196 102.334 143.375 102.965 146.578 104.251C149.78 105.537 152.702 107.278 155.367 109.475C157.284 111.042 158.967 112.701 160.428 114.454C161.889 116.208 163.467 118.3 165.15 120.719C166.447 122.636 167.452 123.98 168.165 124.763C168.878 125.546 169.545 125.909 170.187 125.85C171.122 125.768 171.824 125.92 172.303 126.306C172.782 126.692 173.063 127.171 173.168 127.755M202.095 100.71C201.406 100.733 200.681 100.873 199.921 101.13C199.162 101.399 198.472 101.773 197.841 102.252C197.21 102.732 196.684 103.328 196.263 104.029C195.842 104.73 195.632 105.502 195.655 106.331L196.041 121.245C196.076 122.776 196.24 123.817 196.532 124.366C196.812 124.927 197.373 125.196 198.215 125.172C199.886 125.126 201.651 124.857 203.51 124.378C205.368 123.898 207.191 123.244 208.968 122.426C210.744 121.619 212.427 120.696 213.994 119.679C215.571 118.65 216.939 117.61 218.084 116.547C218.704 115.939 219.358 115.214 220.025 114.349C220.691 113.496 221.31 112.655 221.883 111.825C222.456 110.995 222.958 110.294 223.379 109.721C223.811 109.148 224.15 108.856 224.396 108.844C224.992 108.833 225.354 109.031 225.483 109.44C225.611 109.861 225.693 110.562 225.717 111.544C225.752 112.83 225.518 114.139 225.004 115.483C224.501 116.827 224.139 118.113 223.917 119.352C223.356 126.119 222.327 129.52 220.854 129.555C220.808 129.555 220.632 129.485 220.328 129.345C219.732 129.064 218.844 128.866 217.652 128.749C216.471 128.632 215.127 128.55 213.62 128.515C212.112 128.48 210.522 128.468 208.851 128.492C207.18 128.515 205.578 128.492 204.047 128.433L177.469 129.111C176.627 129.134 176.207 128.924 176.195 128.48C176.183 127.79 176.429 127.218 176.966 126.762C177.492 126.306 178.065 125.862 178.673 125.429C179.281 124.997 179.842 124.506 180.368 123.945C180.894 123.384 181.151 122.671 181.127 121.783L180.064 80.209C180.04 79.3207 179.748 78.6311 179.199 78.1285C178.638 77.626 178.053 77.1818 177.434 76.8078C176.803 76.4338 176.218 76.0715 175.669 75.7442C175.12 75.417 174.839 74.9728 174.828 74.4352C174.804 73.5469 175.213 73.0911 176.043 73.0677L212.439 72.1443C213.082 72.1327 213.69 72.0158 214.274 71.8054C214.859 71.595 215.408 71.3729 215.922 71.1392C216.436 70.9054 216.892 70.6833 217.313 70.473C217.722 70.2626 218.108 70.1574 218.447 70.1457C219.183 70.1223 219.756 70.7301 220.153 71.9456C220.551 73.1729 220.983 75.0312 221.439 77.5325C221.754 80.2791 222.234 82.5466 222.865 84.3348C223.508 86.1114 223.835 87.549 223.858 88.636C223.882 89.6177 223.402 90.132 222.421 90.1554C221.825 90.1671 221.205 89.8398 220.551 89.1736C219.896 88.4957 218.984 87.4438 217.804 85.9945C214.859 82.3712 211.726 79.8233 208.407 78.3272C205.087 76.8312 201.569 76.1416 197.829 76.2351C196.602 76.2702 195.807 76.4689 195.445 76.8546C195.083 77.2286 194.919 77.9883 194.954 79.122L195.398 96.5487C195.422 97.285 195.492 97.7876 195.62 98.0564C195.749 98.3252 196.041 98.4538 196.485 98.4421C196.824 98.4421 197.198 98.0096 197.596 97.1564C197.993 96.3149 198.554 95.3799 199.255 94.3747C199.968 93.3695 200.903 92.4228 202.06 91.5345C203.217 90.6463 204.76 90.1437 206.677 90.0502C207.904 90.0151 209.096 90.1671 210.23 90.471C211.364 90.7865 212.369 91.2073 213.222 91.7216C214.075 92.2475 214.753 92.8319 215.256 93.4747C215.758 94.1293 216.027 94.7721 216.039 95.4149C216.039 95.7071 215.934 96.0461 215.7 96.4201C215.466 96.7941 215.162 97.1681 214.8 97.5538C214.438 97.9278 214.064 98.3252 213.69 98.7226C213.304 99.1317 212.977 99.5291 212.685 99.9265C211.352 101.832 210.405 103.246 209.833 104.169C209.26 105.093 208.757 105.56 208.313 105.572C207.916 105.572 207.519 105.338 207.109 104.824C206.7 104.321 206.256 103.748 205.777 103.117C205.298 102.486 204.749 101.925 204.141 101.423C203.533 100.92 202.843 100.674 202.049 100.698M248.239 128.34C245.972 128.27 244.125 128.515 242.676 129.088C241.226 129.66 240.046 130.432 239.134 131.414C238.223 132.395 237.498 133.494 236.96 134.71C236.423 135.925 235.92 137.141 235.441 138.356C234.962 139.572 234.541 140.437 234.179 140.939C233.816 141.442 233.314 141.687 232.683 141.664C232.238 141.652 231.888 141.255 231.607 140.483C231.338 139.712 231.105 138.73 230.918 137.538C230.731 136.346 230.52 135.025 230.263 133.564C230.018 132.103 229.69 130.677 229.293 129.286C228.709 127.346 228.358 125.862 228.218 124.822C228.078 123.781 228.124 123.057 228.358 122.648C228.592 122.239 228.966 122.075 229.48 122.169C229.994 122.262 230.602 122.414 231.315 122.636C232.016 122.858 232.799 123.104 233.653 123.372C234.506 123.641 235.347 123.746 236.189 123.676C237.358 122.379 238.538 120.684 239.707 118.58C240.887 116.477 241.974 114.116 242.991 111.521C244.008 108.914 244.931 106.168 245.761 103.258C246.591 100.347 247.269 97.4837 247.807 94.6435C248.344 91.8034 248.683 89.0801 248.835 86.4737C248.987 83.8673 248.929 81.5531 248.648 79.5194C248.672 78.6311 248.379 77.9065 247.76 77.3454C247.14 76.7844 246.451 76.2819 245.703 75.8377C244.955 75.3936 244.265 74.9377 243.634 74.4819C243.003 74.0144 242.711 73.4417 242.722 72.7521C242.722 72.5067 243.038 72.343 243.658 72.2612C244.277 72.1794 244.78 72.1443 245.177 72.156L284.822 73.3949C285.664 73.4183 286.073 73.6521 286.061 74.0962C286.038 74.8326 285.746 75.417 285.196 75.8377C284.635 76.2585 284.039 76.6676 283.385 77.0416C282.73 77.4156 282.122 77.848 281.573 78.3506C281.012 78.8532 280.72 79.5428 280.696 80.431L279.306 124.868L280.194 124.892C281.573 124.939 282.894 124.74 284.168 124.319C285.442 123.887 286.47 123.688 287.253 123.711C288.036 123.735 288.469 124.249 288.539 125.231C288.609 126.213 288.107 128.153 287.031 131.016C286.54 132.384 286.131 133.786 285.792 135.224C285.453 136.661 285.15 137.982 284.892 139.186C284.635 140.378 284.343 141.36 284.027 142.12C283.712 142.868 283.326 143.242 282.882 143.23C282.239 143.207 281.76 142.938 281.433 142.412C281.105 141.886 280.743 140.998 280.334 139.759C279.925 138.508 279.504 137.269 279.048 136.019C278.593 134.768 277.938 133.634 277.085 132.594C276.232 131.554 275.098 130.712 273.695 130.046C272.293 129.38 270.446 129.018 268.19 128.947L248.263 128.328L248.239 128.34ZM265.701 80.4077C265.736 79.2739 265.561 78.4675 265.187 77.9883C264.813 77.5091 264.123 77.2052 263.141 77.0766C262.498 77.0065 261.482 76.9597 260.079 76.9481C258.676 76.9247 257.332 76.9247 256.047 76.9364C255.509 76.913 255.1 77.2052 254.843 77.7896C254.574 78.374 254.434 79.0869 254.41 79.9168C254.293 83.4582 254.025 87.1633 253.581 91.0086C253.136 94.8656 252.458 98.6992 251.523 102.509C250.588 106.32 249.42 110.048 247.994 113.671C246.579 117.295 244.861 120.661 242.839 123.746L264.322 124.424L265.701 80.4194V80.4077ZM316.719 127.101C317.128 127.685 317.759 128.281 318.589 128.912C319.231 129.415 319.687 129.836 319.956 130.151C320.225 130.479 320.33 130.876 320.283 131.367C320.213 132.15 319.757 132.501 318.916 132.43L296.849 130.362C296.019 130.28 295.622 130.023 295.657 129.579C295.715 128.889 295.972 128.375 296.393 128.012C296.826 127.662 297.445 127.299 298.275 126.925C299.198 126.516 299.923 126.096 300.437 125.64C300.952 125.196 301.255 124.483 301.349 123.501L304.166 93.4981C304.329 91.7332 304.236 90.2723 303.873 89.1268C303.511 87.9814 302.985 87.0931 302.307 86.462C301.618 85.8309 300.893 85.375 300.133 85.1062C299.374 84.8374 298.497 84.6036 297.527 84.4166C296.65 84.2413 296.043 84.0543 295.68 83.879C295.33 83.692 295.166 83.4348 295.201 83.0959C295.283 82.2661 295.902 81.483 297.048 80.7466C300.04 78.8999 303.663 77.5675 307.918 76.7611C312.172 75.9546 316.648 75.7676 321.359 76.2C325.379 76.5741 329.154 77.3805 332.672 78.5961C336.191 79.8116 339.241 81.331 341.812 83.131C344.395 84.9309 346.336 86.9295 347.668 89.1268C349 91.3242 349.55 93.5799 349.339 95.8824C348.872 100.885 347.06 104.847 343.928 107.757C340.784 110.679 336.424 111.871 330.826 111.357C328.126 111.1 326.08 110.633 324.69 109.931C323.299 109.23 322.153 108.365 321.265 107.348C320.237 106.168 319.453 105.548 318.916 105.49C318.518 105.455 318.261 105.654 318.121 106.086C317.981 106.518 317.876 107.173 317.794 108.061L317.583 110.27L316.228 124.752C316.134 125.733 316.298 126.516 316.719 127.101ZM319.36 101.341C319.898 102.252 320.996 102.79 322.656 102.954C326.139 103.281 328.628 102.72 330.125 101.282C331.621 99.8446 332.521 97.5304 332.813 94.3396C332.953 92.8202 332.719 91.3359 332.111 89.8982C331.504 88.4606 330.604 87.1165 329.412 85.8659C328.219 84.6153 326.782 83.5283 325.122 82.605C323.451 81.6817 321.627 80.9804 319.64 80.5012C318.67 80.3142 317.864 80.1856 317.221 80.1272C316.286 80.0454 315.491 79.9869 314.825 79.9752C314.159 79.9635 313.797 79.9986 313.738 80.0921C313.738 80.1389 313.761 80.1739 313.808 80.1739C314.287 80.3609 315.246 80.6531 316.695 81.0388C318.285 81.4362 319.477 81.7985 320.272 82.1141C321.055 82.4414 321.429 82.8388 321.382 83.3297C321.3 84.2179 321.008 85.2465 320.494 86.4386C320.237 87.0581 320.026 87.6425 319.851 88.1918C319.676 88.7411 319.547 89.4424 319.465 90.2723L318.834 97.0396C318.647 99.0031 318.834 100.441 319.36 101.352M97.0096 131.682C97.4537 131.168 97.5472 130.946 96.8459 131.203C96.1447 131.449 94.6603 132.173 93.3746 132.688C92.089 133.202 91.0254 133.506 89.88 133.704C88.7345 133.903 87.519 134.008 86.397 134.008C85.2749 134.008 84.2347 133.903 83.1945 133.728C82.1543 133.553 81.114 133.307 79.9336 132.956C78.7648 132.594 77.4674 132.115 76.0181 131.495C74.5688 130.864 72.9793 130.081 71.6001 129.24C70.2209 128.398 69.0638 127.487 67.8483 126.329C66.621 125.172 65.3237 123.758 64.4354 122.636C63.5471 121.502 63.0562 120.661 62.6355 119.749C62.2147 118.837 61.8641 117.867 61.5953 116.64C61.3264 115.413 61.1394 113.917 61.2212 112.21C61.3031 110.504 61.6654 108.575 62.2498 106.846C62.8342 105.104 63.6406 103.561 64.564 102.135C65.4873 100.71 66.5392 99.4122 67.7431 98.3369C68.9469 97.2616 70.3144 96.4084 71.7403 95.7188C73.1663 95.0292 74.6389 94.5267 76.0064 94.2461C77.3622 93.9656 78.6011 93.9306 79.8985 94.0708C81.1958 94.1994 82.5633 94.515 83.8373 94.9825C85.0996 95.45 86.2801 96.0811 87.4255 96.8759C88.5826 97.6824 89.7163 98.6525 90.6981 99.7511C91.6916 100.85 92.5331 102.077 93.1058 103.304C93.6785 104.531 93.9941 105.759 94.111 106.986C94.2278 108.225 94.146 109.475 93.9006 110.656C93.6668 111.836 93.2694 112.947 92.8136 113.893C92.3695 114.829 91.8669 115.612 91.3643 116.208C90.8617 116.804 90.3358 117.225 89.7748 117.599C89.2137 117.973 88.5943 118.288 87.9865 118.487C87.3904 118.697 86.806 118.791 86.245 118.791C85.6957 118.791 85.1697 118.697 84.6788 118.569C84.1879 118.44 83.7321 118.265 83.3347 117.996C82.949 117.715 82.6335 117.33 82.3997 116.804C82.1659 116.278 82.014 115.623 81.9906 114.992C81.9672 114.361 82.0724 113.742 82.1893 113.017C82.3062 112.292 82.4464 111.462 82.3529 110.644C82.2594 109.838 81.9439 109.043 81.3945 108.353C80.8335 107.664 80.0387 107.056 79.092 106.659C78.1453 106.261 77.0466 106.051 76.0765 106.133C75.0948 106.203 74.2415 106.553 73.5052 107.068C72.7689 107.57 72.1611 108.237 71.7053 109.137C71.2611 110.036 70.9806 111.194 71.0157 112.432C71.0508 113.671 71.4014 115.004 72.0559 116.254C72.7104 117.493 73.6805 118.65 74.7441 119.597C75.8077 120.556 76.9765 121.304 78.2972 121.923C79.6297 122.531 81.114 122.998 82.4348 123.197C83.7438 123.407 84.8892 123.349 86.0814 123.139C87.2736 122.928 88.5241 122.543 89.6929 122.005C90.8617 121.467 91.937 120.766 93.0006 119.878C94.0642 118.978 95.1044 117.891 95.9576 116.652C96.8109 115.413 97.4888 114.034 97.9563 112.608C98.4121 111.182 98.6576 109.721 98.6809 108.213C98.7043 106.717 98.4939 105.174 98.0498 103.737C97.6173 102.287 96.9511 100.932 96.2966 99.868C95.6538 98.8044 95.0109 98.0564 94.2045 97.1915C93.3863 96.3266 92.3928 95.3565 91.3526 94.5383C90.3241 93.7202 89.2605 93.054 88.3138 92.528C87.3671 92.0138 86.5255 91.6514 85.5788 91.2657C84.6204 90.88 83.5568 90.4826 82.6919 90.2021C81.827 89.9333 81.1725 89.7814 80.7751 89.6995C80.3777 89.606 80.2374 89.571 79.5712 89.5125C78.905 89.4541 77.7129 89.3606 76.5558 89.3957C75.3987 89.4307 74.2766 89.571 73.2247 89.7931C72.1728 90.0151 71.191 90.2956 70.1391 90.7398C69.0755 91.1839 67.9418 91.8034 66.9951 92.3761C66.06 92.9488 65.3237 93.4864 64.4471 94.2578C63.5705 95.0292 62.542 96.0461 61.6888 97.0629C60.8355 98.0798 60.1343 99.1083 59.4914 100.441C58.8486 101.773 58.2408 103.421 57.8317 104.882C57.4227 106.343 57.2006 107.617 57.0954 108.412C56.9902 109.207 57.0136 109.534 57.0019 109.686C56.9902 109.838 56.9435 109.826 56.1838 108.54C55.4124 107.255 53.928 104.707 52.7125 102.767C51.4969 100.826 50.5619 99.5057 49.5567 98.4655C48.5516 97.4136 47.4646 96.6538 46.3542 96.0578C45.2439 95.4617 44.1219 95.0526 43.0232 94.8305C41.9245 94.6085 40.8609 94.5617 39.8207 94.6669C38.7805 94.7604 37.752 94.9942 36.7468 95.4266C35.7416 95.8591 34.7832 96.5019 34.0586 97.1214C33.3456 97.7408 32.8781 98.3252 32.4573 99.0732C32.0483 99.8213 31.6859 100.71 31.5457 101.715C31.4054 102.708 31.4872 103.819 31.7794 104.905C32.0716 105.992 32.5859 107.079 33.2287 108.108C33.8716 109.137 34.6664 110.13 35.5429 110.936C36.4195 111.743 37.3896 112.374 38.2195 112.771C39.0493 113.169 39.7506 113.344 40.4402 113.438C41.1298 113.531 41.8193 113.555 42.4855 113.391C43.1518 113.227 43.7946 112.888 44.2855 112.491C44.7647 112.094 45.0803 111.638 45.3257 111.112C45.5595 110.586 45.7231 109.978 45.6647 109.265C45.6179 108.552 45.3491 107.746 44.94 107.091C44.5309 106.437 43.9699 105.934 43.444 105.607C42.918 105.291 42.4388 105.151 41.9713 105.163C41.4921 105.163 41.0246 105.326 40.4752 105.56C39.9259 105.805 39.2948 106.133 38.8156 106.32C38.3363 106.507 38.0208 106.553 37.7286 106.542C37.4481 106.53 37.1909 106.46 36.9572 106.343C36.7234 106.226 36.513 106.063 36.2676 105.805C36.0338 105.548 35.765 105.209 35.5897 104.66C35.4027 104.111 35.2975 103.363 35.2975 102.778C35.2975 102.194 35.4144 101.773 35.6481 101.306C35.8819 100.838 36.2208 100.336 36.7117 99.9148C37.2026 99.494 37.8221 99.1434 38.5584 98.9096C39.2948 98.6758 40.1363 98.5473 40.896 98.5707C41.6557 98.5823 42.3336 98.746 43.0232 99.0499C43.7128 99.3537 44.4141 99.7862 45.0686 100.324C45.7231 100.861 46.3426 101.493 47.0088 102.346C47.6867 103.199 48.423 104.263 49.3347 105.7C50.2346 107.126 51.3099 108.926 52.3969 110.925C53.4955 112.912 54.6059 115.109 55.576 116.851C56.5461 118.592 57.3526 119.889 58.3226 121.327C59.2811 122.765 60.4031 124.354 61.3615 125.605C62.3316 126.855 63.1381 127.755 64.0731 128.667C64.9964 129.579 66.0483 130.514 67.0301 131.285C68.0236 132.056 68.9586 132.676 69.9988 133.272C71.0508 133.868 72.2195 134.441 73.3182 134.908C74.4286 135.364 75.4688 135.703 76.5908 135.972C77.7129 136.241 78.9167 136.439 80.1673 136.556C81.4179 136.673 82.7036 136.708 84.0594 136.65C85.4035 136.591 86.806 136.416 88.1034 136.182C89.4007 135.949 90.5929 135.633 91.7266 135.236C92.8487 134.838 93.9006 134.347 94.8239 133.704C95.7473 133.062 96.5304 132.255 96.9628 131.741M58.7434 125.114C58.4395 124.763 57.9019 124.214 57.259 123.77C56.6279 123.326 55.8916 122.998 55.1202 122.718C54.3371 122.449 53.5189 122.239 52.619 122.075C51.719 121.911 50.7606 121.806 49.8372 121.759C48.9139 121.713 48.0139 121.748 47.1607 121.83C46.2958 121.911 45.466 122.052 44.6946 122.239C43.9232 122.426 43.1985 122.659 42.4388 122.975C41.6791 123.291 40.8726 123.7 40.148 124.109C39.4233 124.529 38.7805 124.95 38.1026 125.488C37.4247 126.026 36.7 126.668 36.0689 127.299C35.4261 127.931 34.8767 128.562 34.2105 129.415C33.5443 130.28 32.7846 131.379 32.1184 132.372C31.4522 133.366 30.9029 134.265 30.2366 135.469C29.5704 136.673 28.8107 138.193 28.051 139.572C27.303 140.951 26.5666 142.19 25.9472 143.183C25.3277 144.177 24.8252 144.913 24.3576 145.498C23.8901 146.082 23.4694 146.526 23.0252 146.9C22.5694 147.274 22.0902 147.578 21.6227 147.777C21.1435 147.987 20.676 148.092 20.15 148.116C19.624 148.127 19.0396 148.046 18.5371 147.882C18.0345 147.718 17.602 147.484 17.2631 147.192C16.9241 146.9 16.6904 146.549 16.5268 146.234C16.3631 145.918 16.2813 145.626 16.2813 145.217C16.2813 144.808 16.3514 144.294 16.48 143.92C16.6086 143.546 16.7839 143.3 16.9475 143.125C17.1111 142.95 17.2514 142.833 17.415 142.751C17.5787 142.669 17.754 142.622 17.9527 142.611C18.1514 142.611 18.3734 142.634 18.7007 142.763C19.028 142.891 19.4604 143.113 19.8461 143.289C20.2318 143.452 20.5474 143.557 20.8746 143.557C21.2019 143.557 21.5292 143.464 21.8915 143.242C22.2538 143.02 22.6395 142.669 22.92 142.213C23.2005 141.757 23.3759 141.196 23.4109 140.717C23.446 140.226 23.3291 139.806 23.1655 139.443C23.0018 139.081 22.7798 138.765 22.4525 138.496C22.1136 138.228 21.6694 137.994 21.2136 137.877C20.7578 137.772 20.2786 137.784 19.7994 137.854C19.3202 137.924 18.841 138.041 18.2682 138.321C17.6955 138.602 17.0293 139.034 16.4216 139.595C15.8138 140.156 15.2761 140.834 14.832 141.547C14.3879 142.26 14.0372 143.008 13.8385 143.756C13.6398 144.516 13.5814 145.275 13.6749 145.965C13.7684 146.655 14.0255 147.274 14.3061 147.777C14.5866 148.279 14.9138 148.7 15.4164 149.121C15.919 149.542 16.5852 149.986 17.2748 150.278C17.9644 150.57 18.6773 150.734 19.3903 150.792C20.1149 150.851 20.8396 150.827 21.5993 150.664C22.3473 150.5 23.1304 150.219 23.8901 149.81C24.6498 149.401 25.3979 148.864 26.0874 148.139C26.777 147.414 27.4199 146.503 28.2614 145.159C29.0912 143.814 30.1198 142.061 30.6457 141.173C31.1717 140.285 31.2067 140.273 31.2067 140.378C31.2067 140.483 31.2067 140.706 31.2769 141.255C31.347 141.804 31.4989 142.681 31.7911 143.686C32.0716 144.691 32.4924 145.825 32.9482 146.748C33.3924 147.671 33.8833 148.373 34.4677 149.074C35.0637 149.775 35.765 150.465 36.3728 151.003C36.9806 151.54 37.4948 151.902 38.1377 152.288C38.7805 152.686 39.5753 153.106 40.3116 153.41C41.0479 153.714 41.7142 153.913 42.4505 154.053C43.1751 154.205 43.9582 154.299 44.753 154.322C45.5478 154.345 46.3776 154.275 46.8334 154.228C47.2893 154.182 47.3945 154.158 47.6633 154.1C47.9438 154.041 48.3879 153.936 48.984 153.749C49.5801 153.562 50.3164 153.282 50.971 153.013C51.6255 152.744 52.1982 152.487 52.8527 152.136C53.5072 151.774 54.2319 151.318 54.9448 150.745C55.6578 150.173 56.3474 149.506 56.8967 148.91C57.4577 148.314 57.8902 147.788 58.3343 147.052C58.7785 146.316 59.2343 145.381 59.5382 144.387C59.8304 143.382 59.9823 142.33 59.9589 141.29C59.9473 140.25 59.7719 139.245 59.4447 138.263C59.1174 137.281 58.6499 136.334 58.0655 135.481C57.4811 134.628 56.7565 133.88 56.0201 133.26C55.2838 132.641 54.5358 132.162 53.7293 131.799C52.9228 131.437 52.0696 131.168 51.2398 131.028C50.4216 130.888 49.6269 130.853 48.7269 130.993C47.8152 131.133 46.7984 131.46 45.875 131.881C44.9634 132.302 44.1569 132.828 43.4323 133.494C42.6959 134.16 42.0414 134.955 41.5856 135.808C41.1298 136.661 40.896 137.585 40.8726 138.438C40.8493 139.291 41.0479 140.086 41.3518 140.706C41.6557 141.325 42.0882 141.781 42.5907 142.131C43.0933 142.482 43.6894 142.716 44.3673 142.774C45.0452 142.821 45.7932 142.681 46.4478 142.4C47.1023 142.12 47.6516 141.699 48.0256 141.22C48.4113 140.741 48.6217 140.191 48.6801 139.642C48.7386 139.081 48.6451 138.508 48.5633 138.006C48.4814 137.503 48.4113 137.082 48.423 136.638C48.4347 136.194 48.5399 135.75 48.6918 135.388C48.8555 135.025 49.0658 134.756 49.3347 134.569C49.6035 134.382 49.919 134.265 50.258 134.172C50.5969 134.078 50.9593 134.02 51.3333 134.02C51.7073 134.02 52.1164 134.09 52.5371 134.23C52.9462 134.371 53.3787 134.581 53.7644 134.838C54.1618 135.095 54.5124 135.388 54.863 135.797C55.2137 136.206 55.5643 136.743 55.8682 137.386C56.1838 138.029 56.4526 138.8 56.6279 139.619C56.7915 140.437 56.85 141.29 56.7798 142.143C56.698 142.996 56.4993 143.838 56.1019 144.691C55.7046 145.544 55.1318 146.386 54.454 147.146C53.7761 147.905 52.993 148.583 52.2099 149.144C51.4151 149.705 50.6086 150.138 49.7437 150.465C48.8671 150.792 47.9321 151.003 47.0321 151.108C46.1322 151.213 45.2906 151.178 44.3439 150.991C43.4089 150.804 42.3804 150.453 41.3986 149.986C40.4168 149.518 39.4701 148.934 38.6402 148.197C37.8104 147.461 37.0741 146.561 36.4312 145.579C35.7884 144.598 35.2274 143.534 34.8183 142.33C34.4092 141.138 34.1638 139.806 34.0936 138.625C34.0352 137.445 34.1521 136.416 34.3391 135.575C34.5261 134.721 34.7599 134.055 35.0521 133.424C35.3443 132.793 35.6715 132.208 36.291 131.437C36.9104 130.666 37.7987 129.684 38.6402 128.877C39.4818 128.071 40.2765 127.451 41.2233 126.855C42.17 126.271 43.2686 125.722 44.2621 125.289C45.2556 124.845 46.1439 124.518 46.9503 124.272C47.7568 124.027 48.4814 123.852 49.1944 123.735C49.9074 123.606 50.6203 123.536 51.4034 123.536C52.1748 123.536 53.0163 123.594 53.8111 123.735C54.5942 123.875 55.3422 124.074 56.2188 124.424C57.1071 124.775 58.1356 125.266 58.6148 125.429C59.094 125.605 59.0356 125.453 58.7317 125.102M361.366 131.729C361.81 132.243 362.593 133.05 363.505 133.693C364.428 134.336 365.48 134.826 366.602 135.224C367.724 135.621 368.917 135.937 370.226 136.171C371.523 136.404 372.926 136.58 374.27 136.638C375.614 136.708 376.911 136.661 378.162 136.545C379.412 136.428 380.616 136.229 381.738 135.96C382.86 135.691 383.912 135.352 385.011 134.897C386.121 134.441 387.278 133.856 388.33 133.26C389.382 132.664 390.317 132.045 391.299 131.273C392.292 130.502 393.333 129.567 394.256 128.655C395.179 127.744 395.997 126.844 396.968 125.593C397.938 124.342 399.048 122.753 400.006 121.315C400.965 119.878 401.783 118.58 402.753 116.839C403.723 115.097 404.845 112.9 405.932 110.913C407.031 108.914 408.094 107.126 408.994 105.689C409.894 104.251 410.642 103.187 411.32 102.334C411.998 101.481 412.618 100.838 413.272 100.312C413.927 99.7862 414.628 99.3421 415.318 99.0382C416.007 98.7343 416.685 98.5707 417.445 98.559C418.204 98.5356 419.046 98.6642 419.782 98.8979C420.519 99.1317 421.138 99.4706 421.629 99.9031C422.12 100.324 422.459 100.838 422.693 101.294C422.926 101.761 423.043 102.182 423.043 102.767C423.043 103.351 422.938 104.099 422.751 104.648C422.564 105.198 422.307 105.537 422.061 105.794C421.828 106.051 421.606 106.215 421.384 106.331C421.15 106.448 420.893 106.518 420.612 106.53C420.332 106.542 420.004 106.495 419.525 106.308C419.046 106.121 418.415 105.794 417.865 105.548C417.316 105.303 416.849 105.151 416.369 105.151C415.89 105.151 415.411 105.28 414.897 105.595C414.371 105.911 413.81 106.425 413.401 107.079C412.992 107.734 412.723 108.552 412.676 109.253C412.629 109.966 412.781 110.562 413.015 111.1C413.249 111.626 413.576 112.082 414.055 112.479C414.534 112.877 415.177 113.216 415.843 113.379C416.51 113.543 417.199 113.519 417.889 113.426C418.578 113.332 419.28 113.157 420.11 112.76C420.939 112.362 421.91 111.731 422.786 110.925C423.663 110.118 424.446 109.125 425.1 108.096C425.743 107.068 426.257 105.981 426.55 104.894C426.842 103.807 426.924 102.696 426.783 101.703C426.643 100.71 426.292 99.8096 425.872 99.0615C425.463 98.3135 424.995 97.7291 424.27 97.1097C423.557 96.4902 422.587 95.8591 421.582 95.4149C420.589 94.9825 419.56 94.7487 418.508 94.6552C417.468 94.5617 416.404 94.5968 415.306 94.8188C414.207 95.0409 413.085 95.4617 411.975 96.0461C410.876 96.6422 409.789 97.4019 408.772 98.4538C407.767 99.5057 406.832 100.826 405.617 102.755C404.401 104.695 402.917 107.243 402.145 108.529C401.374 109.814 401.339 109.826 401.327 109.674C401.327 109.522 401.327 109.195 401.234 108.4C401.128 107.605 400.906 106.331 400.497 104.87C400.088 103.409 399.492 101.761 398.838 100.429C398.195 99.0966 397.493 98.0681 396.64 97.0512C395.787 96.0344 394.759 95.0175 393.882 94.2461C393.005 93.4747 392.269 92.9371 391.334 92.3644C390.399 91.7917 389.254 91.1839 388.19 90.7281C387.126 90.2839 386.156 89.9917 385.104 89.7814C384.052 89.571 382.93 89.419 381.773 89.384C380.616 89.3489 379.424 89.4424 378.758 89.5009C378.092 89.5593 377.951 89.606 377.554 89.6879C377.157 89.7814 376.502 89.9216 375.637 90.1904C374.772 90.4593 373.709 90.8683 372.75 91.254C371.792 91.6397 370.962 92.0021 370.015 92.5163C369.069 93.0306 368.005 93.6968 366.976 94.5266C365.948 95.3448 364.943 96.3149 364.125 97.1798C363.306 98.0447 362.675 98.8044 362.032 99.8563C361.39 100.92 360.723 102.276 360.279 103.725C359.847 105.174 359.636 106.705 359.648 108.201C359.671 109.698 359.917 111.17 360.373 112.596C360.829 114.022 361.507 115.401 362.371 116.64C363.225 117.879 364.265 118.966 365.328 119.866C366.392 120.766 367.479 121.456 368.636 121.993C369.793 122.531 371.044 122.905 372.248 123.127C373.44 123.337 374.585 123.396 375.894 123.185C377.203 122.975 378.699 122.519 380.032 121.911C381.364 121.304 382.521 120.544 383.585 119.585C384.648 118.627 385.607 117.482 386.261 116.243C386.916 115.004 387.267 113.671 387.302 112.421C387.337 111.182 387.068 110.036 386.612 109.125C386.168 108.225 385.548 107.559 384.812 107.056C384.076 106.553 383.223 106.203 382.241 106.121C381.259 106.051 380.172 106.25 379.225 106.647C378.279 107.044 377.484 107.652 376.923 108.342C376.362 109.043 376.046 109.826 375.953 110.633C375.859 111.439 375.999 112.281 376.116 113.005C376.233 113.73 376.338 114.349 376.315 114.98C376.292 115.612 376.14 116.278 375.918 116.792C375.684 117.318 375.368 117.704 374.983 117.984C374.597 118.265 374.129 118.428 373.65 118.557C373.159 118.686 372.633 118.779 372.084 118.779C371.535 118.779 370.95 118.686 370.342 118.475C369.746 118.265 369.127 117.949 368.554 117.587C367.993 117.213 367.467 116.792 366.965 116.196C366.462 115.6 365.96 114.829 365.515 113.882C365.071 112.935 364.674 111.825 364.428 110.644C364.195 109.464 364.113 108.213 364.218 106.974C364.335 105.735 364.639 104.508 365.223 103.293C365.796 102.065 366.637 100.838 367.631 99.7394C368.624 98.6408 369.746 97.659 370.904 96.8642C372.061 96.0578 373.229 95.4383 374.492 94.9708C375.754 94.5033 377.133 94.1877 378.431 94.0591C379.728 93.9306 380.967 93.9656 382.323 94.2345C383.678 94.515 385.163 95.0175 386.577 95.7071C388.003 96.385 389.359 97.2499 390.574 98.3252C391.778 99.4005 392.83 100.698 393.753 102.124C394.677 103.55 395.483 105.092 396.068 106.834C396.652 108.575 397.003 110.492 397.096 112.199C397.178 113.905 396.991 115.39 396.722 116.628C396.453 117.856 396.103 118.826 395.682 119.737C395.261 120.649 394.77 121.491 393.882 122.624C392.994 123.746 391.685 125.161 390.469 126.318C389.242 127.475 388.085 128.386 386.717 129.228C385.338 130.07 383.749 130.853 382.299 131.484C380.85 132.115 379.564 132.594 378.384 132.945C377.215 133.307 376.163 133.553 375.123 133.716C374.083 133.891 373.054 133.997 371.932 133.997C370.81 133.997 369.594 133.891 368.449 133.693C367.304 133.494 366.24 133.19 364.954 132.676C363.669 132.162 362.184 131.449 361.483 131.192C360.782 130.946 360.875 131.168 361.319 131.671M399.539 125.044C399.235 125.394 399.165 125.546 399.656 125.371C400.135 125.207 401.163 124.705 402.052 124.366C402.94 124.015 403.676 123.816 404.459 123.676C405.243 123.536 406.084 123.478 406.855 123.478C407.627 123.478 408.34 123.559 409.064 123.676C409.777 123.793 410.502 123.968 411.309 124.214C412.115 124.471 413.003 124.798 413.997 125.231C414.99 125.663 416.089 126.213 417.036 126.797C417.982 127.381 418.777 128.012 419.619 128.819C420.46 129.625 421.348 130.595 421.968 131.379C422.587 132.162 422.915 132.746 423.207 133.366C423.499 133.997 423.733 134.663 423.92 135.516C424.107 136.369 424.224 137.398 424.165 138.567C424.107 139.747 423.85 141.068 423.452 142.272C423.043 143.464 422.482 144.539 421.839 145.521C421.197 146.503 420.472 147.391 419.63 148.139C418.801 148.875 417.854 149.471 416.872 149.927C415.89 150.395 414.862 150.745 413.927 150.932C412.992 151.119 412.138 151.143 411.25 151.049C410.362 150.956 409.415 150.734 408.539 150.406C407.662 150.079 406.855 149.647 406.072 149.086C405.278 148.536 404.506 147.858 403.828 147.087C403.15 146.327 402.578 145.474 402.18 144.633C401.783 143.791 401.573 142.938 401.502 142.085C401.421 141.231 401.479 140.367 401.654 139.56C401.818 138.742 402.099 137.982 402.414 137.328C402.73 136.673 403.069 136.147 403.419 135.738C403.77 135.329 404.132 135.037 404.518 134.78C404.915 134.523 405.336 134.312 405.745 134.172C406.166 134.032 406.563 133.962 406.949 133.962C407.335 133.962 407.697 134.032 408.036 134.114C408.375 134.207 408.69 134.324 408.959 134.511C409.228 134.71 409.439 134.967 409.602 135.329C409.766 135.691 409.859 136.147 409.871 136.58C409.883 137.024 409.813 137.445 409.731 137.947C409.649 138.45 409.555 139.022 409.614 139.583C409.672 140.144 409.894 140.682 410.268 141.161C410.654 141.641 411.203 142.061 411.846 142.342C412.501 142.622 413.26 142.763 413.927 142.716C414.605 142.669 415.189 142.424 415.703 142.073C416.217 141.722 416.638 141.278 416.942 140.647C417.246 140.028 417.445 139.233 417.421 138.38C417.398 137.526 417.164 136.603 416.708 135.75C416.264 134.897 415.598 134.102 414.862 133.436C414.125 132.769 413.331 132.243 412.419 131.823C411.507 131.402 410.479 131.075 409.579 130.934C408.667 130.794 407.884 130.818 407.066 130.969C406.248 131.11 405.383 131.367 404.576 131.741C403.77 132.115 403.022 132.582 402.286 133.202C401.549 133.821 400.836 134.569 400.24 135.423C399.644 136.276 399.177 137.223 398.861 138.204C398.545 139.186 398.37 140.191 398.347 141.231C398.335 142.26 398.475 143.324 398.767 144.329C399.071 145.322 399.515 146.269 399.971 146.994C400.415 147.73 400.848 148.244 401.409 148.852C401.97 149.448 402.66 150.126 403.372 150.687C404.085 151.26 404.81 151.715 405.465 152.078C406.119 152.44 406.692 152.686 407.346 152.954C408.001 153.223 408.737 153.504 409.333 153.691C409.929 153.878 410.374 153.983 410.654 154.041C410.935 154.1 411.028 154.135 411.484 154.17C411.94 154.217 412.77 154.275 413.564 154.263C414.359 154.24 415.142 154.147 415.867 153.995C416.591 153.843 417.269 153.656 417.994 153.352C418.73 153.048 419.513 152.627 420.168 152.23C420.811 151.832 421.325 151.47 421.933 150.944C422.541 150.406 423.254 149.717 423.85 149.016C424.446 148.314 424.925 147.613 425.369 146.69C425.813 145.766 426.234 144.633 426.526 143.627C426.807 142.622 426.97 141.746 427.04 141.196C427.111 140.647 427.099 140.425 427.111 140.32C427.111 140.215 427.146 140.226 427.672 141.115C428.198 142.003 429.214 143.768 430.056 145.1C430.886 146.444 431.529 147.356 432.23 148.081C432.919 148.805 433.668 149.343 434.427 149.752C435.187 150.161 435.958 150.453 436.718 150.605C437.466 150.769 438.202 150.792 438.927 150.734C439.652 150.675 440.353 150.512 441.043 150.219C441.732 149.916 442.398 149.483 442.901 149.062C443.404 148.642 443.719 148.233 444.011 147.718C444.292 147.204 444.549 146.585 444.642 145.907C444.736 145.217 444.689 144.457 444.49 143.698C444.292 142.95 443.941 142.202 443.497 141.489C443.053 140.776 442.515 140.086 441.907 139.537C441.3 138.976 440.634 138.543 440.061 138.263C439.488 137.982 439.009 137.865 438.53 137.795C438.05 137.725 437.571 137.713 437.115 137.819C436.66 137.924 436.204 138.158 435.877 138.438C435.538 138.707 435.327 139.022 435.164 139.385C435 139.747 434.883 140.168 434.918 140.659C434.953 141.15 435.128 141.711 435.409 142.155C435.69 142.611 436.075 142.961 436.438 143.183C436.8 143.405 437.127 143.499 437.454 143.499C437.782 143.499 438.109 143.394 438.483 143.23C438.857 143.066 439.301 142.844 439.628 142.704C439.956 142.576 440.178 142.54 440.376 142.552C440.575 142.552 440.75 142.611 440.914 142.692C441.078 142.774 441.218 142.891 441.382 143.066C441.545 143.242 441.72 143.476 441.849 143.861C441.978 144.235 442.048 144.75 442.048 145.159C442.048 145.568 441.966 145.848 441.802 146.175C441.639 146.491 441.405 146.842 441.066 147.134C440.727 147.426 440.295 147.66 439.792 147.823C439.289 147.987 438.705 148.069 438.179 148.057C437.653 148.046 437.186 147.929 436.706 147.718C436.227 147.508 435.748 147.204 435.304 146.842C434.848 146.468 434.427 146.023 433.971 145.439C433.504 144.843 433.001 144.107 432.382 143.125C431.762 142.131 431.026 140.893 430.278 139.513C429.53 138.134 428.759 136.626 428.104 135.411C427.438 134.207 426.889 133.319 426.222 132.314C425.556 131.32 424.796 130.221 424.13 129.357C423.464 128.492 422.915 127.872 422.272 127.241C421.629 126.61 420.916 125.967 420.238 125.429C419.56 124.892 418.917 124.471 418.193 124.05C417.468 123.641 416.662 123.232 415.902 122.917C415.142 122.601 414.418 122.367 413.646 122.18C412.875 121.993 412.045 121.853 411.18 121.771C410.315 121.689 409.427 121.654 408.504 121.701C407.568 121.736 406.61 121.853 405.71 122.017C404.822 122.18 403.992 122.391 403.209 122.659C402.426 122.928 401.701 123.267 401.07 123.711C400.439 124.155 399.89 124.705 399.586 125.055" fill="#FFE7B4"/>
</svg>
