<svg width="118" height="118" viewBox="0 0 118 118" fill="none" xmlns="http://www.w3.org/2000/svg">
<path d="M64.0445 34.7788C64.0445 32.0898 63.5868 30.2877 62.6714 29.3723C61.8132 28.3997 60.6404 27.9134 59.1529 27.9134C57.6654 27.9134 56.4639 28.3711 55.5485 29.2865C54.6903 30.1446 54.2612 31.6608 54.2612 33.8348V40.2712H45.3361V34.4355C45.3361 29.5725 46.509 25.8537 48.8547 23.2792C51.2576 20.6474 54.7761 19.3315 59.4103 19.3315C64.0445 19.3315 67.5344 20.6474 69.8801 23.2792C72.2831 25.8537 73.4845 29.5725 73.4845 34.4355C73.4845 37.5822 73.0268 40.4428 72.1114 43.0174C71.196 45.5347 70.0232 47.8518 68.5929 49.9686C67.2198 52.0283 65.7037 53.9449 64.0445 55.7185C62.4426 57.492 60.9264 59.1798 59.4961 60.7817C58.123 62.3837 56.9788 63.957 56.0634 65.5017C55.148 66.9892 54.6903 68.5626 54.6903 70.2217C54.6903 70.7939 54.7189 71.2229 54.7761 71.509H72.6263V80.0908H45.3361V72.7105C45.3361 69.7926 45.7938 67.2181 46.7092 64.9868C47.6246 62.7555 48.7689 60.7245 50.142 58.8937C51.5723 57.0057 53.0884 55.2608 54.6903 53.6588C56.2923 51.9997 57.7798 50.2547 59.1529 48.4239C60.5832 46.5931 61.756 44.5907 62.6714 42.4166C63.5868 40.2426 64.0445 37.6966 64.0445 34.7788Z" fill="#FFBB00"/>
<circle cx="59" cy="50.9545" r="46.5966" stroke="#FFBB00" stroke-width="8.71591"/>
</svg>
