<svg width="118" height="118" viewBox="0 0 118 118" fill="none" xmlns="http://www.w3.org/2000/svg">
<path d="M63.5296 34.7788C63.5296 32.0898 63.0719 30.2877 62.1565 29.3723C61.2983 28.3997 60.1254 27.9134 58.6379 27.9134C57.1504 27.9134 55.949 28.3711 55.0336 29.2865C54.1754 30.1446 53.7463 31.6608 53.7463 33.8348V37.6966H44.8212V34.4355C44.8212 29.5725 45.994 25.8537 48.3397 23.2792C50.7427 20.6474 54.2612 19.3315 58.8954 19.3315C63.5296 19.3315 67.0195 20.6474 69.3652 23.2792C71.7681 25.8537 72.9696 29.5725 72.9696 34.4355V35.9803C72.9696 42.388 70.7669 46.5073 66.3616 48.3381C68.7645 49.3679 70.4522 50.9698 71.4248 53.1439C72.4547 55.2608 72.9696 57.8639 72.9696 60.9534V65.6734C72.9696 70.5364 71.7681 74.2838 69.3652 76.9155C67.0195 79.4901 63.5296 80.7774 58.8954 80.7774C54.2612 80.7774 50.7427 79.4901 48.3397 76.9155C45.994 74.2838 44.8212 70.5364 44.8212 65.6734V60.6959H53.7463V66.2741C53.7463 68.4482 54.1754 69.9929 55.0336 70.9083C55.949 71.7665 57.1504 72.1955 58.6379 72.1955C60.1254 72.1955 61.2983 71.7378 62.1565 70.8225C63.0719 69.9071 63.5296 68.1049 63.5296 65.4159V60.6959C63.5296 57.8925 63.0433 55.9187 62.0707 54.7745C61.098 53.6302 59.5247 53.0581 57.3507 53.0581H54.1754V44.4763H57.8656C59.6391 44.4763 61.0122 44.0186 61.9848 43.1032C63.0147 42.1878 63.5296 40.5286 63.5296 38.1257V34.7788Z" fill="#FFBB00"/>
<circle cx="59" cy="50.9545" r="46.5966" stroke="#FFBB00" stroke-width="8.71591"/>
</svg>
