<svg width="53" height="38" viewBox="0 0 53 38" fill="none" xmlns="http://www.w3.org/2000/svg">
<path d="M39.5287 0C41.6911 0 43.5939 0.432466 45.2373 1.2974C46.9672 2.07584 48.3078 3.20025 49.2592 4.67064C50.2107 5.88154 50.9459 7.52492 51.4648 9.60076C52.0703 11.6766 52.373 13.8822 52.373 16.2175C52.373 20.5422 51.2486 24.5641 48.9998 28.2833C46.7509 32.089 43.2912 35.073 38.6206 37.2354L37.4529 34.9C39.7882 33.8621 41.8641 32.3052 43.6804 30.2294C45.5833 28.2401 46.7509 26.121 47.1834 23.8721C47.8753 21.7098 47.9618 19.634 47.4429 17.6446C45.367 19.9799 42.5128 21.1476 38.88 21.1476C35.6798 21.1476 33.085 20.2394 31.0957 18.4231C29.1063 16.5202 28.1116 13.8822 28.1116 10.5089C28.1116 7.39518 29.1496 4.88687 31.2254 2.98402C33.3877 0.994672 36.1555 0 39.5287 0Z" fill="#FFBB00"/>
<path d="M11.4171 0C13.5794 0 15.4823 0.432466 17.1257 1.2974C18.8555 2.07584 20.1962 3.20025 21.1476 4.67064C22.099 5.88154 22.8342 7.52492 23.3532 9.60076C23.9586 11.6766 24.2614 13.8822 24.2614 16.2175C24.2614 20.5422 23.1369 24.5641 20.8881 28.2833C18.6393 32.089 15.1796 35.073 10.5089 37.2354L9.34127 34.9C11.6766 33.8621 13.7524 32.3052 15.5688 30.2294C17.4716 28.2401 18.6393 26.121 19.0718 23.8721C19.7637 21.7098 19.8502 19.634 19.3312 17.6446C17.2554 19.9799 14.4011 21.1476 10.7684 21.1476C7.56816 21.1476 4.97336 20.2394 2.98402 18.4231C0.994673 16.5202 0 13.8822 0 10.5089C0 7.39518 1.03792 4.88687 3.11376 2.98402C5.27609 0.994672 8.04387 0 11.4171 0Z" fill="#FFBB00"/>
</svg>
