<svg width="115" height="39" viewBox="0 0 115 39" fill="none" xmlns="http://www.w3.org/2000/svg">
<path d="M1.55775 7.93966C1.50797 7.69663 1.40842 7.5268 1.25616 7.42432C1.1039 7.32477 0.898935 7.23693 0.644194 7.1608C0.445085 7.11395 0.295754 7.06124 0.1962 7.00561C0.0966453 6.94998 0.0351559 6.86213 0.0117314 6.74208C-0.0321896 6.52541 0.0468682 6.39657 0.254761 6.35265L8.70516 4.63388C8.91012 4.59288 9.07703 4.53432 9.20586 4.45526C9.33469 4.37913 9.46939 4.28251 9.60993 4.16538C9.79147 4.00434 9.95252 3.90771 10.0989 3.87843C10.2805 3.8433 10.4474 3.96628 10.5996 4.2503C10.7519 4.53432 10.9393 4.97353 11.1618 5.57086C11.2087 5.73776 11.2526 5.86659 11.2965 5.95736C11.4488 6.34094 11.5747 6.64546 11.6713 6.87385C11.7679 7.09931 11.8763 7.33355 12.0022 7.57073C12.131 7.83425 12.213 8.04507 12.2423 8.20026C12.292 8.44329 12.1954 8.58677 11.9524 8.63654C11.8206 8.6629 11.6508 8.61019 11.4488 8.4755C11.2438 8.34081 10.9744 8.11827 10.6348 7.81083C10.3302 7.54437 10.0726 7.33355 9.86467 7.17544C9.65678 7.01732 9.45475 6.89434 9.26149 6.8065C8.93062 6.6601 8.62317 6.53419 8.34501 6.42585C8.06391 6.32044 7.79453 6.23553 7.52808 6.17697C7.26455 6.11841 6.98931 6.0862 6.70529 6.08034C6.42127 6.07448 6.10796 6.10669 5.77124 6.17697C5.46965 6.23846 5.28225 6.32337 5.20905 6.43171C5.13585 6.54005 5.12999 6.7333 5.18562 7.01147L5.73903 9.63794C5.78881 9.88097 5.86494 10.0596 5.97035 10.1767C6.07576 10.2938 6.26901 10.3231 6.54718 10.2675C7.42852 10.1504 8.32451 10.0742 9.22928 10.0332C10.1341 9.99517 10.9715 10.0772 11.7445 10.285C12.5175 10.4929 13.1968 10.8736 13.7795 11.4299C14.3651 11.9833 14.7838 12.7915 15.0356 13.8456C15.1498 14.4136 15.1176 14.9495 14.9361 15.4502C14.7545 15.9538 14.4764 16.4076 14.0987 16.8088C13.7209 17.2129 13.2729 17.5554 12.7488 17.8395C12.2276 18.1206 11.6889 18.3197 11.1325 18.4309L3.06278 20.0706C2.85781 20.1116 2.74362 20.0794 2.72019 19.9711C2.68506 19.8013 2.70848 19.6578 2.78461 19.5436C2.86074 19.4265 2.98665 19.2947 3.15647 19.1483C3.34973 18.9843 3.49027 18.8291 3.58104 18.6827C3.67181 18.5393 3.69231 18.346 3.64253 18.103L1.55775 7.93966ZM6.54425 11.3831C6.351 11.4211 6.24851 11.5441 6.23973 11.7462C6.23094 11.9482 6.26022 12.2205 6.3305 12.5602L7.29969 17.33C7.35825 17.6199 7.43731 17.8424 7.53979 17.9976C7.63934 18.1528 7.7389 18.2201 7.83552 18.2025C8.76665 18.0122 9.46646 17.696 9.93495 17.248C10.4034 16.8 10.6962 16.3022 10.8134 15.7576C10.9276 15.213 10.8866 14.6537 10.6904 14.0827C10.4913 13.5118 10.1926 13.0081 9.78854 12.566C9.38447 12.1268 8.89841 11.7871 8.33622 11.55C7.77111 11.3128 7.17671 11.2572 6.54718 11.386M22.2387 2.37926C23.2049 2.25043 24.1273 2.31485 25.0086 2.56959C25.89 2.82433 26.6776 3.24304 27.3774 3.8228C28.0772 4.40256 28.6482 5.09944 29.0933 5.9193C29.5384 6.73623 29.8253 7.63514 29.9571 8.61312C30.083 9.56767 29.9981 10.5105 29.6994 11.4475C29.4007 12.3845 28.9352 13.2336 28.3027 13.9949C27.6702 14.7562 26.9177 15.3887 26.0452 15.8923C25.1726 16.393 24.2532 16.7092 23.2869 16.8381C22.3207 16.9669 21.3983 16.9171 20.5228 16.6946C19.6473 16.4691 18.8597 16.0855 18.1657 15.5439C17.4718 15.0022 16.9037 14.3375 16.4616 13.5498C16.0195 12.7622 15.7354 11.8867 15.6066 10.9204C15.4953 10.0889 15.5246 9.2895 15.6974 8.51942C15.8672 7.74934 16.1395 7.06124 16.5143 6.44928C16.8862 5.84024 17.302 5.35125 17.7558 4.98524C18.2097 4.61923 18.6518 4.40841 19.0793 4.34985C19.1906 4.33521 19.2755 4.28836 19.3399 4.21223C19.4043 4.1361 19.4892 3.9897 19.6005 3.77595C19.6473 3.67054 19.7615 3.54756 19.9431 3.40409C20.1217 3.26061 20.3472 3.11714 20.6136 2.97073C20.8801 2.82433 21.1553 2.69549 21.4393 2.59008C21.7233 2.48467 21.9898 2.4144 22.2328 2.38219M24.6104 5.23998C24.4523 5.26048 24.2444 5.30147 23.9926 5.36004C23.7379 5.4186 23.4831 5.50351 23.2225 5.61185C22.9619 5.72019 22.7482 5.85488 22.5754 6.01592C22.4027 6.17697 22.3324 6.35851 22.3587 6.5664C22.3909 6.81236 22.4729 6.9734 22.6018 7.05539C22.7306 7.13737 22.9034 7.20179 23.123 7.24864C23.2635 7.26621 23.3631 7.29256 23.4216 7.32184C23.4802 7.35112 23.5153 7.40383 23.527 7.47703C23.5475 7.63514 23.5007 7.78448 23.3806 7.92502C23.2635 8.06557 23.1083 8.18855 22.9151 8.29396C22.7247 8.39937 22.5198 8.48721 22.306 8.55163C22.0923 8.61897 21.8844 8.6629 21.6882 8.68925C21.2285 8.70096 20.8361 8.63069 20.5141 8.48135C20.189 8.33202 19.9314 8.13877 19.7381 7.90453C19.5449 7.67028 19.3985 7.43604 19.2989 7.20765C19.1994 6.97926 19.1144 6.74501 19.0471 6.50491C18.9973 6.32337 18.9622 6.23553 18.9358 6.23846C18.8011 6.25602 18.6987 6.34387 18.6255 6.50491C18.5522 6.66303 18.5113 6.85921 18.4995 7.09052C18.4878 7.32184 18.4908 7.55901 18.5113 7.79912C18.5318 8.03922 18.5552 8.27053 18.5845 8.49014C18.6606 9.05233 18.8597 9.63501 19.1818 10.2411C19.5039 10.8443 19.9226 11.3977 20.4379 11.8926C20.9533 12.3903 21.5418 12.771 22.2065 13.0374C22.8711 13.3039 23.568 13.3888 24.303 13.2892C25.7816 13.0931 26.868 12.5865 27.5619 11.7725C28.2559 10.9585 28.5252 9.9776 28.373 8.82687C28.2207 7.67906 27.8079 6.75965 27.1373 6.07156C26.4668 5.38346 25.6235 5.10529 24.6104 5.24291M39.3591 2.67793C39.3386 2.3939 39.2449 2.20065 39.0751 2.09524C38.9082 1.98983 38.6973 1.9342 38.4514 1.92834C38.3401 1.93713 38.1498 1.93713 37.8775 1.93127C37.6052 1.92541 37.3329 1.94884 37.0576 1.99861C36.7824 2.04839 36.5423 2.14209 36.3344 2.27385C36.1265 2.40562 36.0328 2.60765 36.0533 2.87996C36.0709 3.12592 36.0884 3.45386 36.106 3.85794C36.1236 4.26494 36.1353 4.72465 36.1411 5.23706C36.147 5.74947 36.1411 6.29994 36.1206 6.88849C36.1002 7.47703 36.065 8.07728 36.0094 8.68632C35.9333 9.50911 35.8366 10.3114 35.7195 11.0903C35.6024 11.8721 35.4355 12.5748 35.2217 13.1955C35.008 13.8163 34.7298 14.3199 34.3931 14.7035C34.0564 15.0871 33.6289 15.2833 33.1106 15.2979C32.6772 15.3038 32.2995 15.1456 31.9716 14.8235C31.6466 14.5015 31.4094 14.115 31.2659 13.6699C31.1224 13.2219 31.0902 12.7651 31.1664 12.2937C31.2425 11.8252 31.4767 11.4533 31.8662 11.1752C31.9511 11.4797 32.0741 11.7344 32.238 11.9453C32.402 12.1561 32.5748 12.3083 32.7622 12.3991C32.9466 12.4899 33.1311 12.5162 33.3156 12.4694C33.4971 12.4255 33.6494 12.2996 33.7694 12.0946C33.9949 11.8047 34.1852 11.4182 34.3345 10.9321C34.4839 10.4461 34.6098 9.91025 34.7093 9.32757C34.8089 8.74488 34.8821 8.13292 34.9289 7.4946C34.9758 6.85335 35.0021 6.24431 35.0109 5.66163C35.0168 5.07894 35.0109 4.54603 34.9875 4.05705C34.9641 3.57099 34.9319 3.18741 34.885 2.90632C34.8704 2.68378 34.7913 2.51103 34.6537 2.38512C34.5161 2.25921 34.3638 2.14795 34.2028 2.05718C34.0417 1.96348 33.8924 1.86685 33.7548 1.76437C33.6171 1.66189 33.5439 1.5272 33.5293 1.35444C33.5264 1.29295 33.5879 1.2461 33.7138 1.21096C33.8397 1.17876 33.9539 1.15826 34.0534 1.14948L43.9474 0.437955C44.1553 0.423315 44.2665 0.470164 44.2724 0.58143C44.287 0.765899 44.2285 0.918158 44.1026 1.03821C43.9737 1.15826 43.8361 1.27245 43.6809 1.38372C43.5286 1.49499 43.3881 1.61797 43.2622 1.75559C43.1363 1.89613 43.0807 2.07474 43.0982 2.29728L43.8449 12.6685C43.8625 12.9144 43.9356 13.1018 44.0616 13.2278C44.1875 13.3537 44.3661 13.4766 44.5974 13.5967C44.7789 13.6933 44.9078 13.7782 44.9868 13.8456C45.0659 13.9129 45.1098 14.0095 45.1186 14.1325C45.1332 14.3287 45.0337 14.4341 44.8258 14.4488L39.2712 14.8499C39.0604 14.8645 38.9521 14.8177 38.9462 14.7064C38.9345 14.5337 38.9726 14.3961 39.0634 14.2906C39.1541 14.1852 39.2947 14.071 39.4821 13.9451C39.6958 13.8075 39.8539 13.6699 39.9623 13.5381C40.0706 13.4064 40.1145 13.219 40.097 12.973L39.3562 2.675L39.3591 2.67793ZM51.7272 0.241775C51.9381 0.238847 52.0435 0.291552 52.0435 0.402818C52.0464 0.575574 51.9995 0.713193 51.9029 0.812748C51.8063 0.912302 51.6599 1.02064 51.4637 1.13484C51.2441 1.26074 51.0772 1.38958 50.963 1.51256C50.8488 1.63846 50.7932 1.82293 50.7961 2.07182L50.8576 4.55189C50.8605 4.79785 50.9045 4.98817 50.9894 5.12286C51.0714 5.25755 51.2558 5.32197 51.5398 5.31611C52.146 5.34247 52.7521 5.38932 53.364 5.45959C53.976 5.52986 54.5675 5.63235 55.1355 5.76997C55.7065 5.90758 56.2365 6.09791 56.7284 6.34387C57.2203 6.5869 57.6478 6.90313 58.0138 7.29256C58.3271 7.63222 58.5906 8.04507 58.8044 8.5282C59.0152 9.01134 59.1382 9.51203 59.1733 10.0303C59.2084 10.5486 59.147 11.0581 58.9888 11.5617C58.8307 12.0653 58.5526 12.5045 58.1514 12.8822C57.6888 13.3097 57.1442 13.6406 56.5117 13.8749C55.8792 14.1091 55.2321 14.2321 54.5645 14.2438L51.2705 14.3024L46.3308 14.3902C46.12 14.3931 46.0146 14.3404 46.0146 14.2292C46.0117 14.0564 46.0585 13.9188 46.1551 13.8192C46.2518 13.7197 46.3982 13.6113 46.5943 13.4971C46.8139 13.3712 46.9808 13.2424 47.098 13.1194C47.2122 12.9935 47.2678 12.809 47.2649 12.5602L47.0599 2.14502C47.057 1.89906 46.9926 1.71459 46.8754 1.59161C46.7554 1.47156 46.5856 1.35151 46.3601 1.23146C46.161 1.12312 46.0117 1.02064 45.9092 0.924014C45.8096 0.827388 45.7569 0.692697 45.754 0.519941C45.754 0.408675 45.8565 0.350113 46.0644 0.347185L51.7243 0.247631L51.7272 0.241775ZM51.3378 6.46685C51.1416 6.46977 51.0186 6.57226 50.9747 6.76844C50.9279 6.96754 50.9074 7.23985 50.9162 7.58244L51.004 12.4489C51.0099 12.7446 51.0479 12.9789 51.1182 13.1516C51.1885 13.3244 51.2734 13.4093 51.3729 13.4064C52.3216 13.3888 53.0683 13.2043 53.6129 12.8471C54.1546 12.4928 54.5323 12.0565 54.7461 11.5412C54.9598 11.0258 55.0213 10.4695 54.9276 9.87219C54.8368 9.27486 54.6319 8.72439 54.3156 8.21783C53.9994 7.71127 53.5836 7.28963 53.0712 6.9529C52.5588 6.61618 51.982 6.45513 51.3407 6.46685M60.327 14.0213C60.1161 14.0095 60.0166 13.951 60.0225 13.8397C60.0312 13.667 60.0869 13.5352 60.1923 13.4415C60.2948 13.3478 60.4499 13.2512 60.652 13.1487C60.8921 13.0374 61.0736 12.9232 61.1966 12.8061C61.3196 12.689 61.3869 12.5074 61.4016 12.2615L61.4982 10.3758L61.9345 1.85807C61.9462 1.61211 61.8993 1.42471 61.7881 1.29588C61.6768 1.16704 61.507 1.03528 61.2815 0.90059C61.0912 0.780539 60.9477 0.666344 60.854 0.563862C60.7603 0.46138 60.7193 0.320832 60.7281 0.151005C60.734 0.0397381 60.8423 -0.0100391 61.0502 0.00167318L66.593 0.285696C66.8038 0.297408 66.9034 0.39989 66.8917 0.598999C66.8858 0.721978 66.8419 0.818604 66.7658 0.888878C66.6867 0.959151 66.5667 1.04699 66.3998 1.14948C66.1714 1.27538 65.9957 1.40129 65.8698 1.53012C65.7468 1.65896 65.6765 1.84636 65.6648 2.09231L65.1378 12.3669C65.1173 12.7856 65.2344 13.0199 65.4921 13.0696C65.943 13.1663 66.5286 13.2336 67.2431 13.2717C67.489 13.2834 67.7525 13.2922 68.0278 13.2951C68.3059 13.2951 68.5548 13.2922 68.7803 13.2775C69.1639 13.26 69.3688 13.0286 69.3893 12.5865L69.8608 3.42166H69.8432L69.8988 2.31192C69.9105 2.06596 69.8637 1.87856 69.7524 1.74973C69.6412 1.62089 69.4801 1.48913 69.2634 1.35444C69.0731 1.23439 68.9296 1.12019 68.8359 1.01771C68.7422 0.91523 68.7012 0.777611 68.71 0.604855C68.7159 0.470164 68.8242 0.405746 69.035 0.417459L74.5779 0.701481C74.7858 0.713193 74.8882 0.815676 74.8765 1.01478C74.8707 1.13776 74.8268 1.23439 74.7506 1.30466C74.6745 1.37494 74.5515 1.45985 74.3846 1.56526C74.1562 1.68824 73.9805 1.81707 73.8546 1.94591C73.7287 2.07474 73.6614 2.26507 73.6497 2.51103L73.1226 12.7856C73.1021 13.2043 73.2192 13.4386 73.4769 13.4884C73.9278 13.585 74.5135 13.6523 75.2279 13.6904C75.4739 13.7021 75.7374 13.7109 76.0126 13.7109C76.2908 13.7109 76.5397 13.708 76.7651 13.6933C77.1487 13.6757 77.3537 13.4444 77.3742 13.0023L77.8456 3.83744H77.828L77.8837 2.7277C77.8954 2.48175 77.8485 2.29435 77.7372 2.16551C77.626 2.03668 77.4649 1.90492 77.2483 1.77023C77.0579 1.65017 76.9145 1.53598 76.8208 1.4335C76.7271 1.33102 76.6861 1.19047 76.6949 1.02064C76.7007 0.885949 76.8091 0.82446 77.0199 0.833244L82.5627 1.11727C82.7706 1.12898 82.8702 1.24317 82.8584 1.46571C82.8526 1.58869 82.8087 1.68531 82.7325 1.75559C82.6535 1.82586 82.5276 1.91077 82.349 2.01326C82.1206 2.13623 81.9449 2.26507 81.819 2.3939C81.696 2.52274 81.6257 2.71014 81.614 2.95902L81.5847 3.55049H81.6023L81.1016 13.3097C81.0899 13.5557 81.1367 13.7402 81.248 13.8631C81.3593 13.9861 81.5291 14.115 81.7546 14.2496C81.9449 14.3697 82.0884 14.4839 82.1821 14.5864C82.2758 14.6889 82.3167 14.8294 82.308 14.9992C82.3021 15.1105 82.1938 15.1603 81.9859 15.1486L60.327 14.0359V14.0213ZM92.4976 2.35291C93.4639 2.47882 94.3394 2.77748 95.1241 3.25183C95.9088 3.72617 96.5647 4.33228 97.0918 5.07309C97.6188 5.81389 97.9907 6.63375 98.2103 7.53852C98.4299 8.44329 98.4767 9.38613 98.3508 10.3641C98.2279 11.3187 97.8999 12.2088 97.3699 13.0374C96.84 13.8661 96.1724 14.5659 95.3642 15.1398C94.5561 15.7137 93.6659 16.1295 92.6938 16.3901C91.7217 16.6507 90.7525 16.718 89.7862 16.5921C88.82 16.4662 87.9416 16.1822 87.1539 15.74C86.3663 15.295 85.7045 14.724 85.1745 14.0183C84.6416 13.3156 84.2668 12.5279 84.0443 11.6525C83.8218 10.777 83.772 9.85755 83.8979 8.89128C84.0062 8.05971 84.2405 7.29256 84.6036 6.59568C84.9667 5.89587 85.4088 5.30147 85.927 4.80663C86.4453 4.31472 86.9694 3.94871 87.5053 3.71446C88.0382 3.48022 88.5213 3.38945 88.9488 3.44215C89.0601 3.45679 89.1538 3.43337 89.2358 3.37773C89.3178 3.31917 89.4378 3.20205 89.5988 3.02344C89.6721 2.93267 89.8155 2.84483 90.0263 2.75113C90.2372 2.66036 90.489 2.57837 90.7847 2.50517C91.0804 2.43197 91.3791 2.37926 91.6807 2.34998C91.9823 2.3207 92.2575 2.3207 92.5006 2.35291M94.0612 5.72604C93.9031 5.70555 93.6923 5.69091 93.4317 5.68212C93.1711 5.67334 92.9017 5.68798 92.6235 5.72604C92.3454 5.76411 92.1023 5.84024 91.8944 5.94858C91.6866 6.05984 91.5694 6.21796 91.5431 6.42585C91.5109 6.67181 91.5489 6.85042 91.6514 6.96169C91.7539 7.07588 91.9062 7.18129 92.1053 7.28085C92.2341 7.33355 92.3249 7.38333 92.3747 7.42725C92.4244 7.47117 92.4449 7.52973 92.4361 7.60293C92.4156 7.76105 92.3307 7.89281 92.1785 7.99822C92.0291 8.10363 91.8476 8.18269 91.6339 8.2354C91.4201 8.2881 91.2034 8.32031 90.978 8.3291C90.7525 8.33788 90.5417 8.32909 90.3484 8.30274C89.9034 8.1944 89.5403 8.0275 89.265 7.79912C88.9898 7.57073 88.7878 7.31891 88.6648 7.04075C88.5389 6.76258 88.4569 6.50198 88.4218 6.2531C88.3866 6.00714 88.3632 5.75825 88.3603 5.50937C88.3603 5.32197 88.3456 5.22827 88.3222 5.22534C88.1875 5.20778 88.0645 5.26634 87.9533 5.40103C87.842 5.53572 87.7512 5.71433 87.678 5.93394C87.6048 6.15354 87.5492 6.38486 87.5053 6.62203C87.4614 6.85921 87.4262 7.08759 87.3969 7.3072C87.3237 7.86939 87.3647 8.48428 87.5229 9.15188C87.681 9.81948 87.9416 10.4578 88.3105 11.0727C88.6794 11.6876 89.1509 12.2059 89.7218 12.6363C90.2928 13.0667 90.9487 13.3273 91.6836 13.421C93.1652 13.6113 94.3452 13.4034 95.2266 12.7944C96.1079 12.1854 96.6203 11.3069 96.7697 10.1562C96.919 9.00548 96.758 8.01286 96.2866 7.17544C95.8151 6.33801 95.0743 5.85195 94.0583 5.72312M111.34 18.6505C111.428 18.8057 111.568 18.9726 111.758 19.1483C111.905 19.2918 112.007 19.406 112.066 19.4938C112.124 19.5817 112.142 19.6841 112.116 19.8071C112.078 20.0004 111.955 20.0765 111.75 20.0355L106.306 18.9463C106.101 18.9053 106.008 18.8291 106.031 18.7208C106.066 18.551 106.139 18.428 106.257 18.3519C106.374 18.2757 106.538 18.1996 106.754 18.1293C106.997 18.0532 107.188 17.9654 107.325 17.8658C107.463 17.7692 107.56 17.5994 107.606 17.3563L109.009 10.3524L103.525 16.1617L103.46 16.4896C103.411 16.7326 103.431 16.9318 103.519 17.0869C103.607 17.2421 103.747 17.409 103.938 17.5847C104.084 17.7282 104.186 17.8424 104.245 17.9302C104.304 18.0181 104.321 18.1206 104.295 18.2435C104.257 18.4368 104.134 18.5129 103.929 18.4719L98.4855 17.3827C98.2806 17.3417 98.1869 17.2656 98.2103 17.1572C98.2454 16.9874 98.3186 16.8644 98.4358 16.7883C98.5529 16.7122 98.7168 16.636 98.9335 16.5657C99.1766 16.4896 99.3669 16.4018 99.5045 16.3022C99.645 16.2056 99.7387 16.0358 99.7856 15.7927L101.826 5.59721C101.876 5.35418 101.847 5.158 101.747 5.00574C101.645 4.85348 101.493 4.69244 101.288 4.52554C101.124 4.40549 101.007 4.30008 100.936 4.20931C100.866 4.12146 100.843 4.01605 100.869 3.89307C100.913 3.6764 101.036 3.58563 101.244 3.62955L106.851 4.751C107.021 4.78613 107.088 4.88569 107.053 5.05552C107.024 5.19899 106.953 5.3044 106.839 5.36296C106.728 5.42153 106.564 5.47423 106.356 5.52108C106.116 5.5855 105.929 5.65577 105.794 5.72897C105.659 5.80217 105.571 5.94272 105.53 6.14769L104.069 13.4415L109.551 7.64978L109.647 7.1608C109.697 6.91777 109.668 6.72159 109.568 6.56933C109.466 6.41707 109.314 6.25602 109.109 6.08912C108.945 5.96907 108.827 5.86366 108.757 5.77289C108.687 5.68212 108.663 5.57671 108.687 5.45666C108.731 5.23998 108.854 5.14922 109.062 5.19021L114.669 6.31459C114.839 6.34972 114.906 6.44928 114.871 6.6191C114.842 6.76551 114.771 6.86506 114.657 6.92655C114.546 6.98511 114.382 7.03782 114.174 7.08467C113.934 7.14908 113.747 7.21936 113.612 7.29256C113.477 7.36576 113.389 7.50631 113.348 7.71127L111.278 18.0532C111.228 18.2962 111.249 18.4953 111.337 18.6505M108.104 4.11561C107.732 4.02777 107.384 3.92528 107.062 3.8023C106.74 3.68225 106.467 3.54756 106.245 3.40409C105.771 3.1347 105.448 2.82433 105.279 2.47589C105.109 2.12745 105.053 1.81122 105.109 1.5272C105.164 1.24317 105.325 1.02357 105.589 0.868381C105.853 0.713193 106.18 0.692697 106.573 0.80982C106.907 0.903518 107.12 1.02064 107.217 1.16412C107.314 1.31052 107.358 1.46863 107.349 1.64432C107.34 1.82 107.305 1.99861 107.249 2.18015C107.194 2.36462 107.176 2.53738 107.194 2.69842C107.211 2.85947 107.302 3.00587 107.463 3.14056C107.624 3.27525 107.926 3.37773 108.362 3.45386C108.725 3.52707 108.991 3.52999 109.161 3.46265C109.331 3.3953 109.451 3.28989 109.516 3.14642C109.583 3.00294 109.621 2.83311 109.636 2.64279C109.65 2.44954 109.688 2.27678 109.75 2.11867C109.814 1.96055 109.923 1.83464 110.081 1.74094C110.239 1.64725 110.488 1.62089 110.833 1.66482C111.24 1.70874 111.539 1.85221 111.726 2.09817C111.917 2.34413 111.987 2.61058 111.934 2.8946C111.884 3.18155 111.715 3.45094 111.431 3.70861C111.146 3.96628 110.734 4.12732 110.192 4.19467C109.931 4.24444 109.609 4.25615 109.232 4.23859C108.851 4.21809 108.473 4.1771 108.095 4.11561M43.3735 31.9967C43.394 32.2309 43.2446 32.3597 42.9225 32.389L36.4867 32.9366C36.1558 32.9659 35.9772 32.8253 35.9508 32.5179C35.942 32.4183 35.9625 32.3422 36.0152 32.2895C36.065 32.2368 36.1499 32.1723 36.2671 32.1021C36.4544 31.9732 36.6008 31.8356 36.7063 31.6834C36.8117 31.5311 36.8497 31.291 36.8205 30.9572C36.7765 30.4536 36.6506 29.9763 36.4398 29.5224C36.2261 29.0715 35.9567 28.6674 35.6317 28.3102C35.3037 27.953 34.9523 27.6631 34.5717 27.4347C34.194 27.2063 33.828 27.0599 33.4766 26.9897C33.3624 26.9633 33.2687 26.9516 33.1955 26.9575C33.0345 26.9721 32.97 27.1507 32.9993 27.4933L33.3273 31.3466C33.3478 31.5926 33.4239 31.7771 33.5498 31.903C33.6786 32.0289 33.8573 32.1489 34.0915 32.266C34.273 32.3627 34.4048 32.4447 34.4839 32.512C34.5629 32.5793 34.6098 32.676 34.6185 32.799C34.6361 32.9951 34.5395 33.1035 34.3316 33.121L28.8005 33.5925C28.5926 33.61 28.4813 33.5632 28.4725 33.4548C28.4579 33.2821 28.496 33.1445 28.5867 33.0361C28.6775 32.9307 28.8151 32.8136 29.0025 32.6848C29.2133 32.5442 29.3715 32.4066 29.4769 32.2719C29.5823 32.1401 29.6262 31.9498 29.6057 31.7039L28.7214 21.3239C28.7009 21.0779 28.6189 20.8964 28.4813 20.7792C28.3408 20.6621 28.1505 20.5508 27.9045 20.4484C27.7112 20.3781 27.5707 20.3107 27.477 20.2434C27.3833 20.1761 27.3335 20.0824 27.3218 19.9594C27.3042 19.7368 27.3979 19.6197 27.6058 19.6022L33.3038 19.1161C33.4766 19.1015 33.5703 19.1805 33.5849 19.3533C33.5967 19.4997 33.5586 19.6197 33.4678 19.7076C33.377 19.7954 33.2365 19.892 33.0462 19.9945C32.8354 20.1233 32.6743 20.2434 32.566 20.3517C32.4576 20.4601 32.4108 20.6182 32.4313 20.8261L32.7007 23.9972C32.7299 24.3427 32.7534 24.5857 32.7739 24.7351C32.7914 24.8815 32.8207 24.9547 32.8559 24.9517C32.8939 24.9488 32.9642 24.7702 33.0696 24.413L33.1282 24.2226C33.5937 22.7235 34.1735 21.5025 34.8674 20.5655C35.5614 19.6285 36.3432 19.122 37.2157 19.0458C37.3153 19.037 37.4676 19.037 37.6813 19.0458C37.9068 19.0634 38.0737 19.0692 38.1849 19.0575C38.469 19.0341 38.8584 18.9023 39.3591 18.6593C39.7866 18.4485 40.1116 18.3343 40.3312 18.3167C40.4776 18.305 40.5859 18.3402 40.6562 18.428C40.7265 18.5158 40.7675 18.6388 40.7821 18.7969C40.87 19.8188 40.6679 20.6387 40.176 21.2624C39.6841 21.886 39.0341 22.2316 38.223 22.3018C38.0766 22.3135 37.7838 22.2901 37.3446 22.2286C36.9054 22.1671 36.6126 22.1437 36.4662 22.1554C35.9128 22.2023 35.4589 22.4424 35.1075 22.8757C34.7532 23.3091 34.3755 23.9884 33.9714 24.9137C33.9509 24.9517 33.9334 24.9898 33.9246 25.0279C33.8309 25.2211 33.784 25.3558 33.7928 25.429C33.8045 25.5637 33.9832 25.6369 34.3316 25.6428C35.1222 25.6369 35.9186 25.795 36.7209 26.1171C37.5232 26.4392 38.2552 26.8755 38.9228 27.426C39.403 27.8183 39.8246 28.2341 40.1907 28.6733C40.5567 29.1125 40.952 29.6366 41.3736 30.2428C41.6986 30.723 41.9504 31.0597 42.129 31.2559C42.3076 31.452 42.4745 31.5428 42.6356 31.5282C42.8698 31.5077 43.0455 31.5457 43.1656 31.6424C43.2856 31.739 43.3559 31.859 43.3823 32.0054M50.6292 25.2299C50.4565 25.2358 50.2749 25.2709 50.0846 25.3353C49.8943 25.4027 49.7215 25.4964 49.5634 25.6164C49.4053 25.7365 49.2735 25.8858 49.1681 26.0615C49.0627 26.2372 49.01 26.4304 49.0158 26.6383L49.1125 30.3745C49.1213 30.7581 49.1623 31.0187 49.2355 31.1563C49.3057 31.2969 49.4463 31.3642 49.6571 31.3583C50.0758 31.3466 50.5179 31.2793 50.9835 31.1592C51.4491 31.0392 51.9058 30.8752 52.3509 30.6702C52.796 30.4682 53.2176 30.2369 53.61 29.9822C54.0053 29.7245 54.3479 29.4639 54.6348 29.1974C54.79 29.0452 54.954 28.8636 55.1209 28.647C55.2878 28.4332 55.443 28.2224 55.5864 28.0145C55.7299 27.8066 55.8558 27.6309 55.9612 27.4874C56.0696 27.344 56.1545 27.2708 56.216 27.2678C56.3653 27.2649 56.4561 27.3147 56.4883 27.4172C56.5205 27.5226 56.541 27.6983 56.5468 27.9442C56.5556 28.2663 56.4971 28.5942 56.3682 28.931C56.2423 29.2677 56.1516 29.5898 56.0959 29.9002C55.9554 31.5955 55.6977 32.4476 55.3288 32.4564C55.317 32.4564 55.2731 32.4388 55.197 32.4037C55.0477 32.3334 54.8251 32.2836 54.5265 32.2543C54.2307 32.2251 53.894 32.2046 53.5163 32.1958C53.1386 32.187 52.7403 32.1841 52.3216 32.1899C51.9029 32.1958 51.5018 32.1899 51.1182 32.1753L44.4598 32.3451C44.249 32.351 44.1435 32.2983 44.1406 32.187C44.1377 32.0142 44.1992 31.8708 44.3339 31.7566C44.4656 31.6424 44.6091 31.5311 44.7614 31.4228C44.9136 31.3144 45.0542 31.1914 45.1859 31.0509C45.3177 30.9103 45.3821 30.7317 45.3763 30.5092L45.1098 20.0941C45.104 19.8715 45.0308 19.6988 44.8931 19.5729C44.7526 19.447 44.6062 19.3357 44.451 19.242C44.2929 19.1483 44.1465 19.0575 44.0089 18.9755C43.8712 18.8936 43.801 18.7823 43.798 18.6476C43.7922 18.4251 43.8947 18.3109 44.1026 18.305L53.2206 18.0737C53.3816 18.0708 53.5339 18.0415 53.6803 17.9888C53.8267 17.9361 53.9643 17.8805 54.0931 17.8219C54.222 17.7633 54.3361 17.7077 54.4416 17.655C54.544 17.6023 54.6407 17.5759 54.7256 17.573C54.91 17.5671 55.0535 17.7194 55.1531 18.0239C55.2526 18.3314 55.361 18.7969 55.4752 19.4235C55.5542 20.1116 55.6743 20.6797 55.8324 21.1277C55.9934 21.5727 56.0754 21.9329 56.0813 22.2052C56.0871 22.4512 55.9671 22.58 55.7211 22.5859C55.5718 22.5888 55.4166 22.5068 55.2526 22.3399C55.0887 22.1701 54.8603 21.9065 54.5645 21.5435C53.8267 20.6358 53.0419 19.9974 52.2104 19.6227C51.3788 19.2479 50.4974 19.0751 49.5605 19.0985C49.253 19.1073 49.0539 19.1571 48.9631 19.2537C48.8724 19.3474 48.8314 19.5377 48.8402 19.8218L48.9514 24.1875C48.9573 24.372 48.9749 24.4979 49.0071 24.5652C49.0393 24.6326 49.1125 24.6648 49.2237 24.6619C49.3087 24.6619 49.4024 24.5535 49.5019 24.3398C49.6015 24.1289 49.742 23.8947 49.9177 23.6429C50.0963 23.3911 50.3306 23.1539 50.6204 22.9314C50.9103 22.7088 51.2968 22.5829 51.777 22.5595C52.0845 22.5507 52.3831 22.5888 52.6671 22.6649C52.9512 22.744 53.203 22.8494 53.4167 22.9782C53.6305 23.11 53.8003 23.2564 53.9262 23.4174C54.0521 23.5814 54.1195 23.7424 54.1224 23.9035C54.1224 23.9767 54.096 24.0616 54.0375 24.1553C53.9789 24.249 53.9028 24.3427 53.812 24.4393C53.7213 24.533 53.6276 24.6326 53.5339 24.7321C53.4372 24.8346 53.3552 24.9342 53.282 25.0337C52.9482 25.511 52.7111 25.8653 52.5676 26.0966C52.4241 26.3279 52.2982 26.445 52.1869 26.448C52.0874 26.448 51.9878 26.3894 51.8854 26.2606C51.7829 26.1347 51.6716 25.9912 51.5516 25.8331C51.4315 25.675 51.2939 25.5344 51.1416 25.4085C50.9894 25.2826 50.8166 25.2211 50.6175 25.227M62.1892 32.1519C61.6212 32.1343 61.1585 32.1958 60.7955 32.3392C60.4324 32.4827 60.1367 32.676 59.9083 32.9219C59.6799 33.1679 59.4983 33.4431 59.3636 33.7476C59.2289 34.0522 59.103 34.3567 58.983 34.6612C58.8629 34.9657 58.7575 35.1824 58.6668 35.3083C58.576 35.4342 58.4501 35.4957 58.292 35.4898C58.1807 35.4869 58.0929 35.3874 58.0226 35.1941C57.9552 35.0009 57.8967 34.7549 57.8498 34.4562C57.803 34.1576 57.7503 33.8267 57.6858 33.4607C57.6244 33.0947 57.5424 32.7375 57.4428 32.389C57.2964 31.903 57.2086 31.5311 57.1734 31.2705C57.1383 31.0099 57.15 30.8284 57.2086 30.7259C57.2671 30.6234 57.3608 30.5824 57.4897 30.6058C57.6185 30.6293 57.7708 30.6673 57.9494 30.723C58.1251 30.7786 58.3212 30.8401 58.535 30.9074C58.7487 30.9748 58.9596 31.0011 59.1704 30.9835C59.4632 30.6585 59.7589 30.234 60.0517 29.7069C60.3475 29.1799 60.6198 28.5884 60.8745 27.9384C61.1293 27.2854 61.3606 26.5973 61.5685 25.8682C61.7764 25.1391 61.9462 24.4218 62.0809 23.7102C62.2156 22.9987 62.3005 22.3165 62.3385 21.6635C62.3766 21.0106 62.362 20.4308 62.2917 19.9213C62.2976 19.6988 62.2244 19.5172 62.0692 19.3767C61.914 19.2361 61.7412 19.1102 61.5538 18.999C61.3664 18.8877 61.1937 18.7735 61.0356 18.6593C60.8774 18.5422 60.8042 18.3987 60.8072 18.226C60.8072 18.1645 60.8862 18.1235 61.0414 18.103C61.1966 18.0825 61.3225 18.0737 61.4221 18.0766L71.3541 18.387C71.5649 18.3929 71.6674 18.4514 71.6644 18.5627C71.6586 18.7472 71.5854 18.8936 71.4478 18.999C71.3072 19.1044 71.1579 19.2069 70.9939 19.3006C70.8299 19.3943 70.6777 19.5026 70.5401 19.6285C70.3995 19.7544 70.3263 19.9272 70.3205 20.1497L69.972 31.2822L70.1945 31.2881C70.5401 31.2998 70.8709 31.25 71.1901 31.1446C71.5093 31.0363 71.7669 30.9865 71.9631 30.9923C72.1593 30.9982 72.2676 31.127 72.2852 31.373C72.3028 31.6189 72.1769 32.105 71.9075 32.8224C71.7845 33.165 71.682 33.5163 71.5971 33.8765C71.5122 34.2366 71.4361 34.5675 71.3716 34.8691C71.3072 35.1678 71.234 35.4137 71.155 35.604C71.0759 35.7914 70.9793 35.8851 70.868 35.8822C70.707 35.8764 70.5869 35.809 70.5049 35.6772C70.4229 35.5455 70.3322 35.3229 70.2297 35.0126C70.1272 34.6993 70.0218 34.3889 69.9076 34.0756C69.7934 33.7623 69.6294 33.4783 69.4157 33.2177C69.2019 32.9571 68.9179 32.7463 68.5666 32.5793C68.2152 32.4124 67.7525 32.3217 67.1874 32.3041L62.1951 32.1489L62.1892 32.1519ZM66.5638 20.1438C66.5725 19.8598 66.5286 19.6578 66.4349 19.5377C66.3412 19.4177 66.1685 19.3416 65.9225 19.3093C65.7615 19.2918 65.5067 19.2801 65.1553 19.2771C64.804 19.2713 64.4673 19.2713 64.1452 19.2742C64.0105 19.2684 63.908 19.3416 63.8436 19.488C63.7762 19.6344 63.7411 19.813 63.7352 20.0209C63.706 20.9081 63.6386 21.8363 63.5273 22.7996C63.4161 23.7659 63.2463 24.7263 63.012 25.6808C62.7778 26.6354 62.485 27.5694 62.1277 28.4771C61.7734 29.3848 61.343 30.2281 60.8365 31.0011L66.2182 31.1709L66.5638 20.1468V20.1438ZM79.3448 31.8415C79.4472 31.9879 79.6054 32.1372 79.8132 32.2953C79.9743 32.4212 80.0885 32.5266 80.1558 32.6057C80.2232 32.6877 80.2495 32.7872 80.2378 32.9102C80.2203 33.1064 80.106 33.1942 79.8952 33.1767L74.367 32.6584C74.1591 32.6379 74.0596 32.5735 74.0684 32.4622C74.083 32.2895 74.1474 32.1606 74.2529 32.0699C74.3612 31.982 74.5164 31.8913 74.7243 31.7976C74.9556 31.6951 75.1371 31.5897 75.266 31.4755C75.3948 31.3642 75.4709 31.1856 75.4943 30.9396L76.2 23.4233C76.241 22.9811 76.2176 22.6151 76.1268 22.3282C76.036 22.0412 75.9043 21.8187 75.7345 21.6606C75.5617 21.5025 75.3802 21.3883 75.1898 21.3209C74.9995 21.2536 74.7799 21.195 74.5369 21.1482C74.3173 21.1043 74.165 21.0574 74.0742 21.0135C73.9864 20.9666 73.9454 20.9022 73.9542 20.8173C73.9747 20.6094 74.1299 20.4132 74.4168 20.2288C75.1664 19.7661 76.0741 19.4323 77.1399 19.2303C78.2057 19.0283 79.3272 18.9814 80.5072 19.0897C81.5145 19.1834 82.4602 19.3855 83.3416 19.69C84.2229 19.9945 84.9871 20.3752 85.6313 20.8261C86.2784 21.277 86.7645 21.7777 87.0983 22.3282C87.4321 22.8787 87.5697 23.4438 87.517 24.0206C87.3999 25.2738 86.946 26.2664 86.1613 26.9955C85.3736 27.7275 84.2815 28.0262 82.8789 27.8974C82.2026 27.833 81.6901 27.7158 81.3417 27.5401C80.9933 27.3645 80.7063 27.1478 80.4838 26.893C80.2261 26.5973 80.0299 26.4421 79.8952 26.4275C79.7957 26.4187 79.7313 26.4685 79.6961 26.5768C79.661 26.6851 79.6346 26.8491 79.6141 27.0717L79.5614 27.6251L79.2218 31.2529C79.1984 31.4989 79.2393 31.6951 79.3448 31.8415ZM80.0065 25.388C80.1412 25.6164 80.4164 25.7511 80.8322 25.7921C81.7048 25.8741 82.3285 25.7335 82.7033 25.3734C83.078 25.0132 83.3035 24.4335 83.3767 23.6341C83.4118 23.2535 83.3533 22.8816 83.201 22.5214C83.0488 22.1613 82.8233 21.8246 82.5246 21.5113C82.226 21.198 81.8658 20.9256 81.45 20.6943C81.0313 20.463 80.5745 20.2873 80.0768 20.1673C79.8337 20.1204 79.6317 20.0882 79.4707 20.0736C79.2364 20.0531 79.0373 20.0384 78.8704 20.0355C78.7035 20.0326 78.6127 20.0414 78.5981 20.0648C78.5981 20.0765 78.604 20.0853 78.6157 20.0853C78.7357 20.1321 78.9758 20.2053 79.3389 20.302C79.7371 20.4015 80.0358 20.4923 80.2349 20.5713C80.4311 20.6533 80.5248 20.7529 80.5131 20.8759C80.4926 21.0984 80.4194 21.3561 80.2905 21.6547C80.2261 21.8099 80.1734 21.9563 80.1295 22.0939C80.0856 22.2316 80.0534 22.4072 80.0329 22.6151L79.8747 24.3105C79.8279 24.8024 79.8747 25.1626 80.0065 25.3909M24.303 32.9893C24.4142 32.8604 24.4377 32.8048 24.262 32.8692C24.0863 32.9307 23.7144 33.1123 23.3923 33.2411C23.0703 33.3699 22.8038 33.4461 22.5169 33.4958C22.2299 33.5456 21.9254 33.572 21.6443 33.572C21.3632 33.572 21.1026 33.5456 20.842 33.5017C20.5814 33.4578 20.3208 33.3963 20.0251 33.3084C19.7323 33.2177 19.4072 33.0976 19.0442 32.9424C18.6811 32.7843 18.2829 32.5881 17.9374 32.3773C17.5918 32.1665 17.302 31.9381 16.9974 31.6482C16.69 31.3583 16.365 31.004 16.1424 30.723C15.9199 30.4389 15.7969 30.2281 15.6915 29.9997C15.5861 29.7713 15.4983 29.5283 15.4309 29.2209C15.3636 28.9134 15.3167 28.5386 15.3372 28.1111C15.3577 27.6836 15.4485 27.2005 15.5949 26.7671C15.7413 26.3309 15.9433 25.9443 16.1747 25.5871C16.406 25.2299 16.6695 24.9049 16.9711 24.6355C17.2727 24.3661 17.6153 24.1524 17.9725 23.9796C18.3297 23.8069 18.6987 23.681 19.0412 23.6107C19.3809 23.5404 19.6913 23.5316 20.0163 23.5668C20.3413 23.599 20.6839 23.678 21.003 23.7951C21.3193 23.9123 21.615 24.0704 21.902 24.2695C22.1918 24.4715 22.4759 24.7146 22.7218 24.9898C22.9707 25.265 23.1815 25.5725 23.325 25.8799C23.4685 26.1874 23.5475 26.4948 23.5768 26.8023C23.6061 27.1126 23.5856 27.4259 23.5241 27.7217C23.4655 28.0174 23.366 28.2956 23.2518 28.5328C23.1405 28.767 23.0146 28.9632 22.8887 29.1125C22.7628 29.2618 22.631 29.3673 22.4905 29.461C22.3499 29.5547 22.1948 29.6337 22.0425 29.6835C21.8932 29.7362 21.7468 29.7596 21.6062 29.7596C21.4686 29.7596 21.3368 29.7362 21.2139 29.704C21.0909 29.6718 20.9767 29.6279 20.8771 29.5605C20.7805 29.4902 20.7014 29.3936 20.6429 29.2618C20.5843 29.1301 20.5463 28.9661 20.5404 28.808C20.5345 28.6499 20.5609 28.4947 20.5902 28.3132C20.6195 28.1316 20.6546 27.9237 20.6312 27.7188C20.6078 27.5167 20.5287 27.3176 20.3911 27.1449C20.2505 26.9721 20.0514 26.8198 19.8142 26.7203C19.5771 26.6207 19.3018 26.568 19.0588 26.5885C18.8128 26.6061 18.5991 26.6939 18.4146 26.8228C18.2302 26.9487 18.0779 27.1156 17.9637 27.341C17.8524 27.5665 17.7822 27.8564 17.7909 28.1667C17.7997 28.4771 17.8876 28.8109 18.0515 29.1242C18.2155 29.4346 18.4585 29.7245 18.725 29.9617C18.9915 30.2018 19.2843 30.3892 19.6151 30.5443C19.9489 30.6966 20.3208 30.8137 20.6517 30.8635C20.9796 30.9162 21.2666 30.9016 21.5652 30.8489C21.8639 30.7962 22.1772 30.6995 22.47 30.5648C22.7628 30.4301 23.0322 30.2545 23.2986 30.0319C23.5651 29.8065 23.8257 29.5342 24.0394 29.2238C24.2532 28.9134 24.423 28.5679 24.5401 28.2107C24.6543 27.8534 24.7158 27.4874 24.7217 27.1097C24.7275 26.7349 24.6748 26.3484 24.5636 25.9883C24.4552 25.6252 24.2883 25.2855 24.1244 25.0191C23.9633 24.7526 23.8023 24.5652 23.6002 24.3486C23.3953 24.1319 23.1464 23.8888 22.8858 23.6839C22.6281 23.4789 22.3617 23.312 22.1245 23.1803C21.8873 23.0514 21.6765 22.9606 21.4393 22.864C21.1992 22.7674 20.9328 22.6678 20.7161 22.5976C20.4994 22.5302 20.3354 22.4922 20.2359 22.4717C20.1363 22.4482 20.1012 22.4395 19.9343 22.4248C19.7674 22.4102 19.4687 22.3867 19.1789 22.3955C18.889 22.4043 18.6079 22.4395 18.3444 22.4951C18.0808 22.5507 17.8349 22.621 17.5713 22.7323C17.3049 22.8435 17.0209 22.9987 16.7837 23.1422C16.5494 23.2857 16.365 23.4204 16.1454 23.6136C15.9258 23.8069 15.6681 24.0616 15.4544 24.3163C15.2406 24.5711 15.0649 24.8288 14.9039 25.1626C14.7428 25.4964 14.5906 25.9092 14.4881 26.2752C14.3856 26.6412 14.33 26.9604 14.3036 27.1595C14.2773 27.3586 14.2831 27.4406 14.2802 27.4787C14.2773 27.5167 14.2656 27.5138 14.0752 27.1917C13.882 26.8696 13.5101 26.2313 13.2056 25.7452C12.9011 25.2592 12.6668 24.9283 12.415 24.6677C12.1632 24.4042 11.8909 24.2139 11.6127 24.0645C11.3346 23.9152 11.0535 23.8127 10.7782 23.7571C10.503 23.7014 10.2365 23.6897 9.97594 23.7161C9.71534 23.7395 9.45767 23.7981 9.20586 23.9064C8.95405 24.0148 8.71394 24.1758 8.5324 24.331C8.35379 24.4862 8.23667 24.6326 8.13126 24.82C8.02878 25.0074 7.93801 25.2299 7.90287 25.4817C7.86773 25.7306 7.88823 26.0088 7.96143 26.2811C8.03463 26.5534 8.16347 26.8257 8.32451 27.0834C8.48556 27.341 8.68466 27.5899 8.90427 27.792C9.12387 27.994 9.3669 28.1521 9.5748 28.2517C9.78269 28.3512 9.95837 28.3951 10.1311 28.4186C10.3039 28.442 10.4766 28.4478 10.6435 28.4069C10.8104 28.3659 10.9715 28.2809 11.0945 28.1814C11.2145 28.0818 11.2936 27.9676 11.3551 27.8359C11.4136 27.7041 11.4546 27.5519 11.44 27.3732C11.4283 27.1946 11.3609 26.9926 11.2584 26.8286C11.156 26.6647 11.0154 26.5387 10.8836 26.4568C10.7519 26.3777 10.6318 26.3426 10.5147 26.3455C10.3947 26.3455 10.2775 26.3865 10.1399 26.445C10.0023 26.5065 9.84418 26.5885 9.72413 26.6354C9.60408 26.6822 9.52502 26.6939 9.45182 26.691C9.38154 26.6881 9.31713 26.6705 9.25856 26.6412C9.2 26.6119 9.1473 26.571 9.08581 26.5065C9.02725 26.4421 8.9599 26.3572 8.91598 26.2196C8.86913 26.082 8.84278 25.8946 8.84278 25.7482C8.84278 25.6018 8.87206 25.4964 8.93062 25.3792C8.98918 25.2621 9.0741 25.1362 9.19708 25.0308C9.32005 24.9254 9.47524 24.8375 9.65971 24.779C9.84418 24.7204 10.055 24.6882 10.2453 24.6941C10.4356 24.697 10.6055 24.738 10.7782 24.8141C10.951 24.8902 11.1267 24.9986 11.2906 25.1333C11.4546 25.268 11.6098 25.4261 11.7767 25.6398C11.9465 25.8536 12.131 26.12 12.3594 26.4802C12.5848 26.8374 12.8542 27.2883 13.1265 27.789C13.4018 28.2868 13.6799 28.8373 13.923 29.2736C14.166 29.7098 14.368 30.0349 14.6111 30.395C14.8512 30.7552 15.1323 31.1534 15.3724 31.4667C15.6154 31.78 15.8174 32.0054 16.0517 32.2338C16.283 32.4622 16.5465 32.6965 16.7925 32.8897C17.0414 33.083 17.2756 33.2382 17.5362 33.3875C17.7997 33.5368 18.0925 33.6803 18.3678 33.7974C18.6459 33.9116 18.9065 33.9965 19.1876 34.0639C19.4687 34.1312 19.7703 34.181 20.0836 34.2103C20.3969 34.2396 20.719 34.2483 21.0587 34.2337C21.3954 34.2191 21.7468 34.1751 22.0718 34.1166C22.3968 34.058 22.6955 33.979 22.9795 33.8794C23.2606 33.7799 23.5241 33.6569 23.7554 33.4958C23.9867 33.3348 24.1829 33.1328 24.2913 33.0039M14.7165 31.3437C14.6404 31.2559 14.5057 31.1182 14.3446 31.007C14.1865 30.8957 14.002 30.8137 13.8088 30.7434C13.6126 30.6761 13.4076 30.6234 13.1822 30.5824C12.9567 30.5414 12.7166 30.5151 12.4853 30.5033C12.254 30.4916 12.0285 30.5004 11.8148 30.5209C11.5981 30.5414 11.3902 30.5766 11.1969 30.6234C11.0037 30.6702 10.8222 30.7288 10.6318 30.8079C10.4415 30.8869 10.2395 30.9894 10.0579 31.0919C9.87639 31.1973 9.71534 31.3027 9.54552 31.4374C9.37569 31.5721 9.19415 31.7331 9.03603 31.8913C8.87499 32.0494 8.73737 32.2075 8.57047 32.4212C8.40357 32.6379 8.21325 32.9131 8.04635 33.162C7.87945 33.4109 7.74183 33.6364 7.57493 33.938C7.40803 34.2396 7.2177 34.6202 7.02738 34.9657C6.83998 35.3112 6.65551 35.6216 6.50033 35.8705C6.34514 36.1194 6.21923 36.3038 6.10211 36.4503C5.98499 36.5967 5.87958 36.7079 5.76831 36.8016C5.65412 36.8953 5.53406 36.9714 5.41694 37.0212C5.29689 37.0739 5.17977 37.1003 5.04801 37.1061C4.91624 37.1091 4.76984 37.0886 4.64393 37.0476C4.51803 37.0066 4.40969 36.948 4.32477 36.8748C4.23986 36.8016 4.1813 36.7138 4.14031 36.6347C4.09931 36.5557 4.07882 36.4825 4.07882 36.38C4.07882 36.2775 4.09638 36.1487 4.12859 36.055C4.1608 35.9613 4.20472 35.8998 4.24572 35.8559C4.28671 35.8119 4.32185 35.7827 4.36284 35.7622C4.40383 35.7417 4.44775 35.7299 4.49753 35.727C4.54731 35.727 4.60294 35.7329 4.68493 35.7651C4.76691 35.7973 4.87525 35.8529 4.97188 35.8968C5.0685 35.9378 5.14756 35.9642 5.22955 35.9642C5.31153 35.9642 5.39352 35.9408 5.48429 35.8851C5.57506 35.8295 5.67168 35.7417 5.74196 35.6275C5.81223 35.5133 5.85615 35.3727 5.86494 35.2527C5.87372 35.1297 5.84444 35.0243 5.80345 34.9335C5.76245 34.8427 5.70682 34.7637 5.62483 34.6963C5.53992 34.629 5.42865 34.5704 5.31446 34.5412C5.20026 34.5148 5.08021 34.5177 4.96016 34.5353C4.84011 34.5529 4.72006 34.5821 4.57659 34.6524C4.43311 34.7227 4.26621 34.831 4.11395 34.9716C3.96169 35.1121 3.827 35.282 3.71574 35.4606C3.60447 35.6392 3.51663 35.8266 3.46685 36.014C3.41707 36.2043 3.40243 36.3946 3.42586 36.5674C3.44928 36.7401 3.5137 36.8953 3.58397 37.0212C3.65425 37.1471 3.73623 37.2525 3.86214 37.358C3.98805 37.4634 4.15495 37.5746 4.3277 37.6478C4.50046 37.721 4.67907 37.762 4.85768 37.7767C5.03922 37.7913 5.22076 37.7854 5.41109 37.7445C5.59848 37.7035 5.79466 37.6332 5.98499 37.5307C6.17531 37.4282 6.36271 37.2935 6.53546 37.112C6.70822 36.9305 6.86926 36.7021 7.08008 36.3653C7.28798 36.0286 7.54565 35.5894 7.67741 35.3669C7.80917 35.1443 7.81796 35.1414 7.81796 35.1678C7.81796 35.1941 7.81796 35.2497 7.83552 35.3874C7.85309 35.525 7.89116 35.7446 7.96436 35.9964C8.03463 36.2482 8.14004 36.5322 8.25424 36.7636C8.36551 36.9949 8.48848 37.1706 8.63489 37.3462C8.78422 37.5219 8.9599 37.6947 9.11216 37.8294C9.26442 37.9641 9.39326 38.0548 9.5543 38.1515C9.71534 38.251 9.91445 38.3564 10.0989 38.4325C10.2834 38.5087 10.4503 38.5585 10.6348 38.5936C10.8163 38.6317 11.0125 38.6551 11.2116 38.6609C11.4107 38.6668 11.6186 38.6492 11.7328 38.6375C11.847 38.6258 11.8733 38.6199 11.9407 38.6053C12.0109 38.5907 12.1222 38.5643 12.2715 38.5175C12.4209 38.4706 12.6053 38.4003 12.7693 38.333C12.9333 38.2657 13.0768 38.2012 13.2407 38.1134C13.4047 38.0226 13.5862 37.9084 13.7649 37.765C13.9435 37.6215 14.1162 37.4546 14.2538 37.3052C14.3944 37.1559 14.5027 37.0242 14.614 36.8397C14.7253 36.6552 14.8395 36.421 14.9156 36.1721C14.9888 35.9203 15.0269 35.6567 15.021 35.3961C15.0181 35.1356 14.9742 34.8837 14.8922 34.6378C14.8102 34.3918 14.6931 34.1546 14.5467 33.9409C14.4002 33.7271 14.2187 33.5398 14.0342 33.3846C13.8498 33.2294 13.6624 33.1093 13.4603 33.0186C13.2583 32.9278 13.0446 32.8604 12.8367 32.8253C12.6317 32.7902 12.4326 32.7814 12.2071 32.8165C11.9787 32.8517 11.724 32.9336 11.4927 33.0391C11.2643 33.1445 11.0623 33.2762 10.8807 33.4431C10.6962 33.61 10.5323 33.8091 10.4181 34.0229C10.3039 34.2366 10.2453 34.4679 10.2395 34.6817C10.2336 34.8954 10.2834 35.0946 10.3595 35.2497C10.4356 35.4049 10.544 35.5191 10.6699 35.607C10.7958 35.6948 10.9451 35.7534 11.115 35.768C11.2848 35.7797 11.4722 35.7446 11.6362 35.6743C11.8001 35.604 11.9377 35.4986 12.0314 35.3786C12.1281 35.2585 12.1808 35.1209 12.1954 34.9833C12.2101 34.8427 12.1866 34.6993 12.1661 34.5734C12.1456 34.4475 12.1281 34.342 12.131 34.2308C12.1339 34.1195 12.1603 34.0082 12.1983 33.9175C12.2393 33.8267 12.292 33.7594 12.3594 33.7125C12.4267 33.6657 12.5058 33.6364 12.5907 33.613C12.6756 33.5895 12.7664 33.5749 12.8601 33.5749C12.9538 33.5749 13.0563 33.5925 13.1617 33.6276C13.2642 33.6627 13.3725 33.7154 13.4691 33.7799C13.5687 33.8443 13.6565 33.9175 13.7444 34.02C13.8322 34.1224 13.92 34.2571 13.9962 34.4182C14.0752 34.5792 14.1426 34.7725 14.1865 34.9774C14.2275 35.1824 14.2421 35.3961 14.2246 35.6099C14.2041 35.8236 14.1543 36.0345 14.0547 36.2482C13.9552 36.462 13.8117 36.6728 13.6419 36.8631C13.4721 37.0534 13.2759 37.2233 13.0797 37.3638C12.8806 37.5044 12.6785 37.6127 12.4619 37.6947C12.2423 37.7767 12.008 37.8294 11.7826 37.8557C11.5571 37.8821 11.3463 37.8733 11.1091 37.8264C10.8749 37.7796 10.6172 37.6917 10.3712 37.5746C10.1253 37.4575 9.8881 37.3111 9.68021 37.1266C9.47231 36.9422 9.28785 36.7167 9.1268 36.4707C8.96576 36.2248 8.82521 35.9583 8.72273 35.6567C8.62025 35.3581 8.55876 35.0243 8.54119 34.7285C8.52655 34.4328 8.55583 34.1751 8.60268 33.9643C8.64953 33.7506 8.70809 33.5837 8.78129 33.4256C8.85449 33.2674 8.93648 33.121 9.09166 32.9278C9.24685 32.7345 9.46939 32.4886 9.68021 32.2865C9.89103 32.0845 10.0901 31.9293 10.3273 31.78C10.5645 31.6336 10.8397 31.496 11.0886 31.3876C11.3375 31.2764 11.56 31.1944 11.7621 31.1329C11.9641 31.0714 12.1456 31.0275 12.3243 30.9982C12.5029 30.966 12.6815 30.9484 12.8777 30.9484C13.0709 30.9484 13.2817 30.9631 13.4808 30.9982C13.677 31.0333 13.8644 31.0831 14.084 31.1709C14.3066 31.2588 14.5642 31.3818 14.6843 31.4228C14.8043 31.4667 14.7897 31.4286 14.7136 31.3408M90.53 33.001C90.6412 33.1298 90.8374 33.3319 91.0658 33.4929C91.2971 33.6539 91.5607 33.7769 91.8417 33.8765C92.1228 33.976 92.4215 34.0551 92.7495 34.1137C93.0745 34.1722 93.4258 34.2161 93.7626 34.2308C94.0993 34.2483 94.4243 34.2366 94.7376 34.2074C95.0509 34.1781 95.3525 34.1283 95.6336 34.0609C95.9147 33.9936 96.1782 33.9087 96.4535 33.7945C96.7316 33.6803 97.0215 33.5339 97.285 33.3846C97.5485 33.2352 97.7828 33.08 98.0288 32.8868C98.2776 32.6935 98.5382 32.4593 98.7696 32.2309C99.0009 32.0025 99.2058 31.7771 99.4489 31.4638C99.6919 31.1505 99.9701 30.7522 100.21 30.3921C100.45 30.0319 100.655 29.7069 100.898 29.2706C101.141 28.8343 101.422 28.2839 101.695 27.7861C101.97 27.2854 102.236 26.8374 102.462 26.4773C102.687 26.1171 102.875 25.8507 103.045 25.6369C103.214 25.4232 103.37 25.2621 103.534 25.1303C103.697 24.9986 103.873 24.8873 104.046 24.8112C104.219 24.7351 104.389 24.6941 104.579 24.6911C104.769 24.6853 104.98 24.7175 105.164 24.776C105.349 24.8346 105.504 24.9195 105.627 25.0279C105.75 25.1333 105.835 25.2621 105.894 25.3763C105.952 25.4934 105.981 25.5988 105.981 25.7452C105.981 25.8916 105.955 26.079 105.908 26.2167C105.861 26.3543 105.797 26.4392 105.735 26.5036C105.677 26.568 105.621 26.609 105.566 26.6383C105.507 26.6676 105.443 26.6851 105.372 26.6881C105.302 26.691 105.22 26.6793 105.1 26.6324C104.98 26.5856 104.822 26.5036 104.684 26.4421C104.547 26.3806 104.429 26.3426 104.309 26.3426C104.189 26.3426 104.069 26.3748 103.941 26.4538C103.809 26.5329 103.668 26.6617 103.566 26.8257C103.463 26.9897 103.396 27.1946 103.384 27.3703C103.372 27.5489 103.411 27.6983 103.469 27.833C103.528 27.9647 103.61 28.0789 103.73 28.1785C103.85 28.278 104.011 28.3629 104.178 28.4039C104.345 28.4449 104.517 28.4391 104.69 28.4156C104.863 28.3922 105.039 28.3483 105.246 28.2487C105.454 28.1492 105.697 27.9911 105.917 27.789C106.137 27.587 106.333 27.3381 106.497 27.0804C106.658 26.8228 106.787 26.5505 106.86 26.2781C106.933 26.0058 106.953 25.7277 106.918 25.4788C106.883 25.2299 106.795 25.0044 106.69 24.817C106.587 24.6296 106.47 24.4832 106.289 24.3281C106.11 24.1729 105.867 24.0148 105.615 23.9035C105.366 23.7951 105.109 23.7366 104.845 23.7132C104.585 23.6897 104.318 23.6985 104.043 23.7542C103.768 23.8098 103.487 23.9152 103.209 24.0616C102.933 24.2109 102.661 24.4013 102.406 24.6648C102.154 24.9283 101.92 25.2592 101.616 25.7423C101.311 26.2284 100.939 26.8667 100.746 27.1888C100.553 27.5109 100.544 27.5138 100.541 27.4757C100.541 27.4377 100.541 27.3557 100.518 27.1566C100.491 26.9575 100.436 26.6383 100.333 26.2723C100.231 25.9063 100.081 25.4934 99.9174 25.1596C99.7563 24.8258 99.5806 24.5682 99.3669 24.3134C99.1531 24.0587 98.8955 23.8039 98.6759 23.6107C98.4563 23.4174 98.2718 23.2827 98.0375 23.1393C97.8033 22.9958 97.5163 22.8435 97.2499 22.7293C96.9834 22.6181 96.7404 22.5449 96.4769 22.4922C96.2133 22.4394 95.9323 22.4014 95.6424 22.3926C95.3525 22.3838 95.0538 22.4072 94.8869 22.4219C94.72 22.4365 94.6849 22.4482 94.5854 22.4687C94.4858 22.4922 94.3218 22.5273 94.1051 22.5946C93.8885 22.662 93.622 22.7645 93.3819 22.8611C93.1418 22.9577 92.9339 23.0485 92.6967 23.1773C92.4596 23.3062 92.1931 23.4731 91.9354 23.681C91.6778 23.8859 91.426 24.1289 91.221 24.3456C91.016 24.5623 90.8579 24.7526 90.6969 25.0161C90.5358 25.2826 90.3689 25.6223 90.2577 25.9853C90.1493 26.3484 90.0966 26.732 90.0995 27.1068C90.1054 27.4816 90.1669 27.8505 90.2811 28.2077C90.3953 28.565 90.5651 28.9105 90.7818 29.2209C90.9955 29.5312 91.2561 29.8035 91.5226 30.029C91.789 30.2545 92.0613 30.4272 92.3512 30.5619C92.6411 30.6966 92.9544 30.7903 93.256 30.8459C93.5547 30.8986 93.8416 30.9133 94.1696 30.8606C94.4975 30.8079 94.8723 30.6937 95.2061 30.5414C95.5399 30.3892 95.8298 30.1988 96.0962 29.9587C96.3627 29.7186 96.6028 29.4317 96.7668 29.1213C96.9307 28.8109 97.0186 28.4771 97.0274 28.1638C97.0361 27.8534 96.9688 27.5665 96.8546 27.3381C96.7433 27.1126 96.5881 26.9457 96.4037 26.8198C96.2192 26.6939 96.0055 26.6061 95.7595 26.5856C95.5135 26.568 95.2412 26.6178 95.0041 26.7174C94.7669 26.8169 94.5678 26.9692 94.4272 27.1419C94.2867 27.3176 94.2076 27.5138 94.1842 27.7158C94.1608 27.9179 94.1959 28.1287 94.2252 28.3102C94.2545 28.4918 94.2808 28.647 94.275 28.8051C94.2691 28.9632 94.231 29.1301 94.1754 29.2589C94.1169 29.3907 94.0378 29.4873 93.9412 29.5576C93.8445 29.6279 93.7274 29.6688 93.6074 29.7011C93.4844 29.7333 93.3526 29.7567 93.215 29.7567C93.0774 29.7567 92.931 29.7333 92.7787 29.6806C92.6294 29.6279 92.4742 29.5488 92.3307 29.458C92.1902 29.3643 92.0584 29.2589 91.9325 29.1096C91.8066 28.9603 91.6807 28.767 91.5694 28.5298C91.4582 28.2927 91.3586 28.0145 91.2971 27.7188C91.2386 27.423 91.2181 27.1097 91.2444 26.7993C91.2737 26.489 91.3498 26.1815 91.4962 25.877C91.6397 25.5696 91.8505 25.2621 92.0994 24.9869C92.3483 24.7116 92.6294 24.4657 92.9193 24.2666C93.2092 24.0645 93.502 23.9093 93.8182 23.7922C94.1344 23.6751 94.4799 23.596 94.805 23.5638C95.13 23.5316 95.4403 23.5404 95.78 23.6077C96.1196 23.678 96.4915 23.8039 96.8458 23.9767C97.203 24.1465 97.5427 24.3632 97.8472 24.6326C98.1488 24.902 98.4123 25.227 98.6436 25.5842C98.875 25.9414 99.077 26.3279 99.2234 26.7642C99.3698 27.2005 99.4576 27.6807 99.4811 28.1082C99.5016 28.5357 99.4547 28.9076 99.3874 29.2179C99.32 29.5254 99.2322 29.7684 99.1268 29.9968C99.0214 30.2252 98.8984 30.436 98.6759 30.72C98.4533 31.0011 98.1254 31.3554 97.8209 31.6453C97.5134 31.9352 97.2235 32.1636 96.881 32.3744C96.5354 32.5852 96.1372 32.7814 95.7741 32.9395C95.4111 33.0976 95.089 33.2177 94.7932 33.3055C94.5004 33.3963 94.2369 33.4578 93.9763 33.4988C93.7157 33.5427 93.458 33.569 93.1769 33.569C92.8959 33.569 92.5913 33.5427 92.3044 33.4929C92.0174 33.4431 91.751 33.367 91.4289 33.2382C91.1068 33.1093 90.7349 32.9307 90.5593 32.8663C90.3836 32.8048 90.407 32.8604 90.5183 32.9863M100.093 31.3261C100.017 31.414 99.9993 31.452 100.122 31.4081C100.242 31.3671 100.5 31.2412 100.723 31.1563C100.945 31.0685 101.13 31.0187 101.326 30.9835C101.522 30.9484 101.733 30.9338 101.926 30.9338C102.119 30.9338 102.298 30.9543 102.479 30.9835C102.658 31.0128 102.84 31.0568 103.042 31.1182C103.244 31.1827 103.466 31.2646 103.715 31.373C103.964 31.4813 104.239 31.6189 104.476 31.7653C104.714 31.9117 104.913 32.0699 105.123 32.2719C105.334 32.4739 105.557 32.717 105.712 32.9131C105.867 33.1093 105.949 33.2557 106.022 33.4109C106.096 33.569 106.154 33.7359 106.201 33.9497C106.248 34.1634 106.277 34.4211 106.262 34.7139C106.248 35.0096 106.183 35.3405 106.084 35.6421C105.981 35.9408 105.841 36.2102 105.68 36.4561C105.519 36.7021 105.337 36.9246 105.126 37.112C104.918 37.2965 104.681 37.4458 104.435 37.56C104.189 37.6771 103.932 37.765 103.697 37.8118C103.463 37.8587 103.249 37.8645 103.027 37.8411C102.804 37.8177 102.567 37.762 102.348 37.68C102.128 37.5981 101.926 37.4897 101.73 37.3492C101.531 37.2115 101.337 37.0417 101.168 36.8485C100.998 36.6581 100.854 36.4444 100.755 36.2336C100.655 36.0228 100.603 35.809 100.585 35.5953C100.564 35.3815 100.579 35.1648 100.623 34.9628C100.664 34.7578 100.734 34.5675 100.813 34.4035C100.892 34.2396 100.977 34.1078 101.065 34.0053C101.153 33.9028 101.244 33.8296 101.34 33.7652C101.44 33.7008 101.545 33.6481 101.648 33.613C101.753 33.5778 101.853 33.5602 101.949 33.5602C102.046 33.5602 102.137 33.5778 102.222 33.5983C102.307 33.6217 102.386 33.651 102.453 33.6979C102.52 33.7476 102.573 33.8121 102.614 33.9028C102.655 33.9936 102.679 34.1078 102.681 34.2161C102.684 34.3274 102.667 34.4328 102.646 34.5587C102.626 34.6846 102.602 34.8281 102.617 34.9687C102.632 35.1092 102.687 35.2439 102.781 35.3639C102.878 35.484 103.015 35.5894 103.176 35.6597C103.34 35.7299 103.531 35.7651 103.697 35.7534C103.867 35.7417 104.014 35.6802 104.143 35.5923C104.271 35.5045 104.377 35.3932 104.453 35.2351C104.529 35.0799 104.579 34.8808 104.573 34.6671C104.567 34.4533 104.509 34.222 104.394 34.0082C104.283 33.7945 104.116 33.5954 103.932 33.4285C103.747 33.2616 103.548 33.1298 103.32 33.0244C103.091 32.919 102.834 32.837 102.608 32.8019C102.38 32.7667 102.184 32.7726 101.979 32.8107C101.774 32.8458 101.557 32.9102 101.355 33.0039C101.153 33.0976 100.966 33.2147 100.781 33.3699C100.597 33.5251 100.418 33.7125 100.269 33.9263C100.119 34.14 100.002 34.3772 99.9232 34.6231C99.8442 34.8691 99.8002 35.1209 99.7944 35.3815C99.7915 35.6392 99.8266 35.9056 99.8998 36.1574C99.9759 36.4063 100.087 36.6435 100.201 36.825C100.313 37.0095 100.421 37.1383 100.562 37.2906C100.702 37.4399 100.875 37.6098 101.053 37.7503C101.232 37.8938 101.414 38.008 101.578 38.0988C101.742 38.1895 101.885 38.251 102.049 38.3184C102.213 38.3857 102.397 38.456 102.547 38.5028C102.696 38.5497 102.807 38.576 102.878 38.5907C102.948 38.6053 102.971 38.6141 103.086 38.6229C103.2 38.6346 103.408 38.6492 103.607 38.6463C103.806 38.6404 104.002 38.617 104.184 38.579C104.365 38.5409 104.535 38.494 104.716 38.4179C104.901 38.3418 105.097 38.2364 105.261 38.1368C105.422 38.0373 105.551 37.9465 105.703 37.8147C105.855 37.68 106.034 37.5073 106.183 37.3316C106.333 37.1559 106.453 36.9802 106.564 36.7489C106.675 36.5176 106.781 36.2336 106.854 35.9818C106.924 35.7299 106.965 35.5103 106.983 35.3727C107 35.2351 106.997 35.1795 107 35.1531C107 35.1268 107.009 35.1297 107.141 35.3522C107.273 35.5748 107.527 36.0169 107.738 36.3507C107.946 36.6874 108.107 36.9158 108.283 37.0974C108.456 37.2789 108.643 37.4136 108.833 37.5161C109.024 37.6185 109.217 37.6918 109.407 37.7298C109.595 37.7708 109.779 37.7767 109.961 37.762C110.142 37.7474 110.318 37.7064 110.491 37.6332C110.663 37.5571 110.83 37.4487 110.956 37.3433C111.082 37.2379 111.161 37.1354 111.234 37.0066C111.305 36.8778 111.369 36.7226 111.392 36.5527C111.416 36.38 111.404 36.1897 111.354 35.9993C111.305 35.8119 111.217 35.6245 111.106 35.4459C110.994 35.2673 110.86 35.0946 110.707 34.9569C110.555 34.8164 110.388 34.7081 110.245 34.6378C110.101 34.5675 109.981 34.5382 109.861 34.5207C109.741 34.5031 109.621 34.5002 109.507 34.5265C109.393 34.5529 109.278 34.6114 109.196 34.6817C109.111 34.749 109.059 34.8281 109.018 34.9189C108.977 35.0096 108.948 35.1151 108.956 35.238C108.965 35.361 109.009 35.5016 109.079 35.6128C109.15 35.727 109.246 35.8149 109.337 35.8705C109.428 35.9261 109.51 35.9496 109.592 35.9496C109.674 35.9496 109.756 35.9232 109.849 35.8822C109.943 35.8412 110.054 35.7856 110.136 35.7504C110.218 35.7182 110.274 35.7094 110.324 35.7124C110.373 35.7124 110.417 35.727 110.458 35.7475C110.499 35.768 110.535 35.7973 110.576 35.8412C110.617 35.8851 110.66 35.9437 110.693 36.0403C110.725 36.134 110.742 36.2629 110.742 36.3653C110.742 36.4678 110.722 36.5381 110.681 36.6201C110.64 36.6991 110.581 36.787 110.496 36.8602C110.412 36.9334 110.303 36.9919 110.177 37.0329C110.051 37.0739 109.905 37.0944 109.773 37.0915C109.641 37.0886 109.524 37.0593 109.404 37.0066C109.284 36.9539 109.164 36.8778 109.053 36.787C108.939 36.6933 108.833 36.582 108.719 36.4356C108.602 36.2863 108.476 36.1018 108.321 35.8559C108.166 35.607 107.981 35.2966 107.794 34.9511C107.606 34.6056 107.413 34.2278 107.249 33.9233C107.082 33.6217 106.945 33.3992 106.778 33.1474C106.611 32.8985 106.421 32.6233 106.254 32.4066C106.087 32.1899 105.949 32.0347 105.788 31.8766C105.627 31.7185 105.448 31.5575 105.279 31.4228C105.109 31.2881 104.948 31.1827 104.766 31.0772C104.585 30.9748 104.383 30.8723 104.192 30.7932C104.002 30.7142 103.82 30.6556 103.627 30.6088C103.434 30.5619 103.226 30.5268 103.009 30.5063C102.793 30.4858 102.57 30.477 102.339 30.4887C102.105 30.4975 101.865 30.5268 101.639 30.5678C101.417 30.6088 101.209 30.6615 101.012 30.7288C100.816 30.7962 100.635 30.8811 100.477 30.9923C100.318 31.1036 100.181 31.2412 100.105 31.3291" fill="#003C24"/>
</svg>
