<svg width="180" height="61" viewBox="0 0 180 61" fill="none" xmlns="http://www.w3.org/2000/svg">
<path d="M2.44076 12.527C2.36277 12.1435 2.20678 11.8756 1.96822 11.7139C1.72965 11.5568 1.4085 11.4182 1.00936 11.2981C0.697383 11.2242 0.463403 11.141 0.307416 11.0533C0.151429 10.9655 0.0550842 10.8269 0.0183814 10.6375C-0.0504363 10.2956 0.0734355 10.0923 0.399173 10.023L13.6397 7.3112C13.9608 7.24652 14.2224 7.15413 14.4242 7.02939C14.6261 6.90928 14.8371 6.75682 15.0573 6.57203C15.3418 6.31794 15.5941 6.16548 15.8235 6.11929C16.108 6.06385 16.3695 6.25788 16.608 6.706C16.8466 7.15413 17.1402 7.8471 17.4889 8.78954C17.5623 9.05287 17.6311 9.25615 17.6999 9.39936C17.9385 10.0046 18.1358 10.485 18.2872 10.8454C18.4386 11.2011 18.6083 11.5707 18.8056 11.9449C19.0075 12.3607 19.1359 12.6933 19.1818 12.9381C19.2598 13.3216 19.1084 13.548 18.7276 13.6265C18.5212 13.6681 18.2551 13.5849 17.9385 13.3724C17.6174 13.1599 17.1953 12.8088 16.6631 12.3237C16.186 11.9033 15.7822 11.5707 15.4565 11.3212C15.1307 11.0717 14.8142 10.8777 14.5114 10.7391C13.993 10.5081 13.5112 10.3095 13.0754 10.1385C12.635 9.97222 12.2129 9.83824 11.7954 9.74585C11.3825 9.65345 10.9512 9.60263 10.5062 9.59339C10.0612 9.58415 9.57028 9.63497 9.04268 9.74585C8.57013 9.84286 8.27651 9.97684 8.16181 10.1478C8.04711 10.3187 8.03794 10.6236 8.12511 11.0625L8.99221 15.2065C9.0702 15.5899 9.18949 15.8717 9.35465 16.0565C9.51981 16.2413 9.82261 16.2875 10.2585 16.1997C11.6394 16.0149 13.0433 15.8948 14.4609 15.8302C15.8786 15.7701 17.1907 15.8995 18.4019 16.2275C19.6131 16.5555 20.6775 17.156 21.5904 18.0338C22.508 18.907 23.1641 20.182 23.5586 21.8452C23.7375 22.7414 23.6871 23.5868 23.4026 24.3768C23.1182 25.1714 22.6823 25.8875 22.0905 26.5204C21.4987 27.158 20.7967 27.6985 19.9755 28.1466C19.1589 28.5901 18.3147 28.9043 17.443 29.0798L4.79892 31.6669C4.47777 31.7316 4.29884 31.6808 4.26214 31.5098C4.20709 31.2419 4.24379 31.0155 4.36307 30.8353C4.48236 30.6505 4.67963 30.4427 4.94573 30.2117C5.24853 29.953 5.46874 29.7081 5.61097 29.4771C5.75319 29.2507 5.7853 28.9458 5.70731 28.5624L2.44076 12.527ZM10.2539 17.9599C9.95107 18.02 9.79049 18.214 9.77673 18.5328C9.76297 18.8515 9.80885 19.2812 9.91895 19.8171L11.4375 27.3428C11.5293 27.8001 11.6532 28.1512 11.8137 28.3961C11.9697 28.6409 12.1257 28.7472 12.2771 28.7195C13.736 28.4192 14.8325 27.9202 15.5666 27.2134C16.3006 26.5066 16.7594 25.7212 16.9429 24.8619C17.1219 24.0026 17.0576 23.1202 16.7503 22.2194C16.4383 21.3185 15.9703 20.5239 15.3372 19.8263C14.7041 19.1333 13.9425 18.5974 13.0616 18.2232C12.1762 17.849 11.2448 17.7612 10.2585 17.9645M34.8447 3.75394C36.3587 3.55066 37.8039 3.6523 39.1848 4.05422C40.5658 4.45615 41.7999 5.11678 42.8964 6.03151C43.9929 6.94623 44.8875 8.04575 45.5849 9.3393C46.2822 10.6282 46.7318 12.0465 46.9383 13.5895C47.1356 15.0956 47.0025 16.5832 46.5346 18.0615C46.0666 19.5399 45.3371 20.8796 44.3462 22.0808C43.3552 23.2819 42.1761 24.2798 40.8089 25.0744C39.4417 25.8644 38.0012 26.3633 36.4872 26.5666C34.9732 26.7699 33.528 26.6914 32.1562 26.3403C30.7845 25.9845 29.5504 25.3793 28.463 24.5247C27.3757 23.67 26.4857 22.6213 25.7929 21.3786C25.1001 20.1358 24.6551 18.7545 24.4533 17.23C24.2789 15.9179 24.3248 14.6567 24.5955 13.4417C24.8616 12.2267 25.2882 11.141 25.8755 10.1755C26.4581 9.21457 27.1096 8.44306 27.8207 7.86558C28.5318 7.2881 29.2246 6.95547 29.8944 6.86308C30.0688 6.83998 30.2018 6.76606 30.3028 6.64595C30.4037 6.52583 30.5367 6.29484 30.7111 5.95759C30.7845 5.79128 30.9634 5.59725 31.2479 5.37087C31.5277 5.1445 31.881 4.91813 32.2985 4.68714C32.716 4.45615 33.1472 4.25288 33.5922 4.08656C34.0373 3.92025 34.4548 3.80937 34.8356 3.75856M38.5609 8.2675C38.3131 8.29984 37.9874 8.36452 37.5928 8.45692C37.1937 8.54931 36.7946 8.68329 36.3862 8.85422C35.9779 9.02516 35.643 9.23767 35.3723 9.49176C35.1016 9.74585 34.9915 10.0323 35.0328 10.3603C35.0833 10.7483 35.2118 11.0024 35.4136 11.1318C35.6155 11.2611 35.8862 11.3628 36.2303 11.4367C36.4505 11.4644 36.6065 11.506 36.6982 11.5522C36.79 11.5984 36.845 11.6816 36.8634 11.797C36.8955 12.0465 36.8221 12.2821 36.634 12.5039C36.4505 12.7256 36.2073 12.9197 35.9045 13.086C35.6063 13.2523 35.2852 13.3909 34.9502 13.4925C34.6153 13.5988 34.2896 13.6681 33.9822 13.7097C33.2619 13.7281 32.6471 13.6173 32.1425 13.3816C31.6332 13.146 31.2295 12.8411 30.9267 12.4715C30.6239 12.102 30.3945 11.7324 30.2385 11.372C30.0825 11.0117 29.9495 10.6421 29.844 10.2633C29.766 9.97684 29.7109 9.83824 29.6696 9.84286C29.4586 9.87058 29.298 10.0092 29.1833 10.2633C29.0686 10.5127 29.0044 10.8223 28.986 11.1872C28.9677 11.5522 28.9723 11.9264 29.0044 12.3052C29.0365 12.6841 29.0732 13.049 29.1191 13.3955C29.2384 14.2825 29.5504 15.2019 30.055 16.1582C30.5597 17.1098 31.2157 17.983 32.0232 18.7637C32.8307 19.5491 33.7528 20.1497 34.7943 20.5701C35.8357 20.9905 36.9276 21.1245 38.0792 20.9674C40.396 20.6579 42.0981 19.8586 43.1854 18.5743C44.2728 17.29 44.6948 15.7424 44.4563 13.9268C44.2177 12.1158 43.5708 10.6652 42.5202 9.57953C41.4696 8.49388 40.1483 8.05499 38.5609 8.27212M61.6699 4.22516C61.6377 3.77704 61.4909 3.47213 61.2248 3.30581C60.9633 3.1395 60.633 3.05172 60.2476 3.04248C60.0733 3.05634 59.7751 3.05634 59.3484 3.0471C58.9217 3.03786 58.4951 3.07482 58.0638 3.15336C57.6326 3.2319 57.2564 3.37973 56.9306 3.58762C56.6049 3.79551 56.4581 4.11428 56.4902 4.54393C56.5177 4.93199 56.5452 5.44941 56.5728 6.08695C56.6003 6.7291 56.6186 7.45441 56.6278 8.26288C56.637 9.07135 56.6278 9.93988 56.5957 10.8685C56.5636 11.797 56.5085 12.7441 56.4214 13.705C56.3021 15.0032 56.1507 16.269 55.9672 17.4979C55.7837 18.7314 55.5222 19.8402 55.1872 20.8196C54.8523 21.799 54.4165 22.5936 53.8889 23.1988C53.3613 23.804 52.6915 24.1135 51.8794 24.1366C51.2004 24.1458 50.6086 23.8964 50.0947 23.3882C49.5855 22.88 49.2139 22.2702 48.9891 21.568C48.7643 20.8611 48.7138 20.1404 48.8331 19.3967C48.9524 18.6575 49.3194 18.0708 49.9296 17.6319C50.0626 18.1123 50.2553 18.5143 50.5122 18.8469C50.7691 19.1795 51.0398 19.4198 51.3335 19.563C51.6225 19.7062 51.9115 19.7478 52.2006 19.6738C52.485 19.6046 52.7236 19.4059 52.9117 19.0825C53.2649 18.6251 53.5631 18.0153 53.7971 17.2484C54.0311 16.4816 54.2284 15.6361 54.3844 14.7168C54.5404 13.7974 54.6551 12.8319 54.7285 11.8248C54.8019 10.813 54.8432 9.8521 54.8569 8.93276C54.8661 8.01341 54.8569 7.17261 54.8202 6.4011C54.7835 5.6342 54.733 5.02901 54.6596 4.5855C54.6367 4.2344 54.5128 3.96183 54.2972 3.76318C54.0816 3.56452 53.843 3.38897 53.5907 3.24576C53.3383 3.09792 53.1044 2.94547 52.8887 2.78377C52.6731 2.62208 52.5584 2.40957 52.5355 2.137C52.5309 2.03998 52.6272 1.96606 52.8245 1.91063C53.0218 1.85981 53.2007 1.82747 53.3567 1.81361L68.859 0.690994C69.1848 0.667894 69.3591 0.741812 69.3683 0.917365C69.3912 1.20841 69.2995 1.44864 69.1022 1.63806C68.9003 1.82747 68.6847 2.00764 68.4415 2.1832C68.203 2.35875 67.9827 2.55278 67.7855 2.76991C67.5882 2.99167 67.501 3.27347 67.5285 3.62458L68.6984 19.988C68.726 20.3761 68.8407 20.6717 69.0379 20.8704C69.2352 21.069 69.5151 21.2631 69.8775 21.4525C70.162 21.6049 70.3638 21.7389 70.4877 21.8452C70.6116 21.9514 70.6804 22.1039 70.6942 22.2979C70.7171 22.6074 70.5611 22.7737 70.2354 22.7968L61.5322 23.4298C61.2019 23.4529 61.0322 23.3789 61.023 23.2034C61.0046 22.9308 61.0643 22.7137 61.2065 22.5474C61.3487 22.3811 61.5689 22.2009 61.8625 22.0022C62.1975 21.7851 62.4452 21.568 62.615 21.3601C62.7847 21.1522 62.8535 20.8565 62.826 20.4685L61.6653 4.22054L61.6699 4.22516ZM81.0489 0.381465C81.3793 0.376846 81.5444 0.460002 81.5444 0.635556C81.549 0.908125 81.4756 1.12526 81.3242 1.28233C81.1728 1.4394 80.9434 1.61034 80.636 1.79051C80.2919 1.98916 80.0304 2.19244 79.8515 2.38647C79.6726 2.58512 79.5854 2.87617 79.59 3.26885L79.6863 7.18185C79.6909 7.56991 79.7597 7.8702 79.8928 8.08271C80.0212 8.29522 80.3103 8.39686 80.7553 8.38762C81.705 8.4292 82.6547 8.50311 83.6135 8.61399C84.5724 8.72487 85.4991 8.88656 86.3892 9.10369C87.2838 9.32082 88.1142 9.62111 88.885 10.0092C89.6557 10.3926 90.3256 10.8916 90.899 11.506C91.3899 12.0419 91.8028 12.6933 92.1378 13.4556C92.4681 14.2178 92.6608 15.0078 92.7158 15.8255C92.7709 16.6432 92.6745 17.4471 92.4268 18.2417C92.179 19.0363 91.7432 19.7293 91.1147 20.3252C90.3898 20.9997 89.5364 21.5218 88.5455 21.8914C87.5545 22.2609 86.5406 22.455 85.4946 22.4735L80.3332 22.5659L72.5935 22.7045C72.2632 22.7091 72.098 22.6259 72.098 22.4504C72.0935 22.1778 72.1669 21.9607 72.3183 21.8036C72.4697 21.6465 72.6991 21.4756 73.0064 21.2954C73.3505 21.0968 73.612 20.8935 73.7955 20.6994C73.9745 20.5008 74.0616 20.2097 74.0571 19.8171L73.7359 3.38435C73.7313 2.99629 73.6304 2.70524 73.4469 2.5112C73.2588 2.32179 72.9927 2.13238 72.6394 1.94297C72.3274 1.77203 72.0935 1.61034 71.9329 1.45788C71.7769 1.30543 71.6943 1.09292 71.6897 0.820349C71.6897 0.644795 71.8503 0.552399 72.176 0.547779L81.0443 0.390705L81.0489 0.381465ZM80.4388 10.2032C80.1314 10.2078 79.9387 10.3695 79.8699 10.6791C79.7964 10.9932 79.7643 11.4228 79.7781 11.9634L79.9157 19.6415C79.9249 20.1081 79.9846 20.4777 80.0947 20.7503C80.2048 21.0228 80.3378 21.1568 80.4938 21.1522C81.9803 21.1245 83.1502 20.8334 84.0035 20.2698C84.8523 19.7108 85.4441 19.0225 85.779 18.2094C86.1139 17.3963 86.2103 16.5185 86.0634 15.5761C85.9212 14.6336 85.6001 13.7651 85.1046 12.9659C84.6091 12.1666 83.9576 11.5014 83.1548 10.9701C82.3519 10.4388 81.4481 10.1847 80.4433 10.2032M94.5234 22.1224C94.1931 22.1039 94.0371 22.0115 94.0463 21.8359C94.0601 21.5634 94.1472 21.3555 94.3124 21.2076C94.473 21.0598 94.7161 20.9073 95.0327 20.7456C95.4089 20.5701 95.6933 20.3899 95.886 20.2051C96.0787 20.0203 96.1842 19.7339 96.2072 19.3458L96.3586 16.3707L97.0422 2.93161C97.0605 2.54354 96.9871 2.24787 96.8128 2.0446C96.6384 1.84133 96.3723 1.63344 96.0191 1.42093C95.7209 1.23151 95.4961 1.05134 95.3492 0.889646C95.2024 0.727952 95.1382 0.506201 95.152 0.238251C95.1611 0.0626976 95.3309 -0.0158394 95.6566 0.0026399L104.341 0.450763C104.672 0.469242 104.828 0.630936 104.809 0.945084C104.8 1.13912 104.731 1.29157 104.612 1.40245C104.488 1.51332 104.3 1.65192 104.039 1.81361C103.681 2.01226 103.406 2.21092 103.208 2.41419C103.016 2.61746 102.905 2.91313 102.887 3.30119L102.061 19.5122C102.029 20.1728 102.213 20.5424 102.616 20.6209C103.323 20.7734 104.24 20.8796 105.36 20.9397C105.745 20.9582 106.158 20.972 106.589 20.9766C107.025 20.9766 107.415 20.972 107.769 20.9489C108.37 20.9212 108.691 20.5562 108.723 19.8586L109.461 5.39859H109.434L109.521 3.64768C109.539 3.25962 109.466 2.96395 109.292 2.76067C109.117 2.5574 108.865 2.34951 108.526 2.137C108.227 1.94759 108.003 1.76741 107.856 1.60572C107.709 1.44402 107.645 1.22689 107.658 0.954323C107.668 0.741812 107.837 0.640176 108.168 0.658655L116.852 1.10678C117.178 1.12526 117.339 1.28695 117.32 1.6011C117.311 1.79513 117.242 1.94759 117.123 2.05846C117.004 2.16934 116.811 2.30331 116.55 2.46963C116.192 2.66366 115.917 2.86693 115.719 3.0702C115.522 3.27347 115.416 3.57376 115.398 3.96183L114.572 20.1728C114.54 20.8334 114.724 21.203 115.127 21.2815C115.834 21.434 116.752 21.5403 117.871 21.6003C118.256 21.6188 118.669 21.6327 119.101 21.6327C119.536 21.6327 119.926 21.628 120.28 21.6049C120.881 21.5772 121.202 21.2122 121.234 20.5147L121.973 6.05461H121.945L122.032 4.3037C122.051 3.91563 121.977 3.61996 121.803 3.41669C121.628 3.21342 121.376 3.00553 121.037 2.79301C120.738 2.6036 120.514 2.42343 120.367 2.26173C120.22 2.10004 120.156 1.87829 120.169 1.61034C120.179 1.39783 120.348 1.30081 120.679 1.31467L129.364 1.76279C129.689 1.78127 129.845 1.96145 129.827 2.31255C129.818 2.50658 129.749 2.65904 129.63 2.76991C129.506 2.88079 129.308 3.01476 129.029 3.17646C128.671 3.37049 128.396 3.57376 128.198 3.77704C128.006 3.98031 127.895 4.27598 127.877 4.66866L127.831 5.60187H127.859L127.074 20.9997C127.056 21.3878 127.129 21.6789 127.304 21.8729C127.478 22.0669 127.744 22.2702 128.097 22.4827C128.396 22.6721 128.62 22.8523 128.767 23.014C128.914 23.1757 128.978 23.3974 128.964 23.6654C128.955 23.8409 128.785 23.9195 128.46 23.901L94.5234 22.1455V22.1224ZM144.93 3.71236C146.444 3.91101 147.816 4.38223 149.045 5.13064C150.275 5.87906 151.303 6.83536 152.128 8.00417C152.954 9.17299 153.537 10.4665 153.881 11.8941C154.225 13.3216 154.298 14.8092 154.101 16.3522C153.909 17.8583 153.395 19.2627 152.564 20.5701C151.734 21.8775 150.688 22.9816 149.422 23.8871C148.155 24.7926 146.761 25.4486 145.238 25.8598C143.714 26.271 142.196 26.3772 140.682 26.1786C139.168 25.9799 137.791 25.5318 136.557 24.8342C135.323 24.132 134.286 23.2311 133.456 22.1177C132.621 21.009 132.034 19.7662 131.685 18.3849C131.336 17.0036 131.258 15.553 131.456 14.0284C131.625 12.7164 131.992 11.506 132.561 10.4065C133.13 9.30234 133.823 8.36452 134.635 7.58377C135.447 6.80764 136.268 6.23016 137.108 5.86058C137.943 5.49099 138.7 5.34777 139.37 5.43093C139.544 5.45403 139.691 5.41707 139.819 5.3293C139.948 5.2369 140.136 5.05211 140.388 4.7703C140.503 4.62708 140.728 4.48849 141.058 4.34065C141.388 4.19744 141.783 4.06808 142.246 3.95259C142.71 3.83709 143.178 3.75394 143.65 3.70774C144.123 3.66154 144.554 3.66154 144.935 3.71236M147.38 9.03439C147.132 9.00206 146.802 8.97896 146.394 8.9651C145.985 8.95124 145.563 8.97434 145.127 9.03439C144.692 9.09445 144.311 9.21457 143.985 9.3855C143.659 9.56105 143.476 9.81052 143.434 10.1385C143.384 10.5266 143.444 10.8084 143.604 10.984C143.765 11.1641 144.003 11.3304 144.315 11.4875C144.517 11.5707 144.659 11.6492 144.737 11.7185C144.815 11.7878 144.848 11.8802 144.834 11.9957C144.802 12.2452 144.669 12.4531 144.43 12.6194C144.196 12.7857 143.912 12.9104 143.577 12.9936C143.242 13.0767 142.902 13.1276 142.549 13.1414C142.196 13.1553 141.865 13.1414 141.563 13.0998C140.865 12.9289 140.296 12.6656 139.865 12.3052C139.434 11.9449 139.117 11.5476 138.925 11.1087C138.727 10.6698 138.599 10.2586 138.544 9.86596C138.489 9.4779 138.452 9.08521 138.447 8.69253C138.447 8.39686 138.425 8.24902 138.388 8.2444C138.177 8.21669 137.984 8.30908 137.81 8.52159C137.635 8.73411 137.493 9.01591 137.379 9.3624C137.264 9.70889 137.177 10.0739 137.108 10.4481C137.039 10.8223 136.984 11.1826 136.938 11.5291C136.823 12.4161 136.888 13.3863 137.135 14.4396C137.383 15.4929 137.791 16.5 138.369 17.4702C138.948 18.4404 139.686 19.2581 140.581 19.9372C141.475 20.6163 142.503 21.0275 143.655 21.1753C145.976 21.4756 147.825 21.1476 149.206 20.1866C150.587 19.2257 151.39 17.8398 151.624 16.0242C151.858 14.2086 151.605 12.6425 150.867 11.3212C150.128 9.99994 148.967 9.23305 147.375 9.02977M174.453 29.4263C174.591 29.6711 174.811 29.9345 175.109 30.2117C175.338 30.438 175.499 30.6182 175.591 30.7568C175.682 30.8954 175.71 31.0571 175.669 31.2511C175.609 31.556 175.416 31.6761 175.095 31.6115L166.566 29.8929C166.245 29.8282 166.098 29.7081 166.135 29.5372C166.19 29.2692 166.305 29.0752 166.488 28.9551C166.672 28.835 166.929 28.7148 167.268 28.604C167.649 28.4839 167.947 28.3453 168.163 28.1882C168.379 28.0357 168.53 27.7678 168.603 27.3843L170.801 16.3337L162.208 25.4994L162.107 26.0169C162.029 26.4003 162.061 26.7145 162.199 26.9593C162.336 27.2042 162.557 27.4675 162.855 27.7447C163.084 27.9711 163.245 28.1512 163.337 28.2898C163.428 28.4284 163.456 28.5901 163.415 28.7841C163.355 29.089 163.162 29.2092 162.841 29.1445L154.312 27.4259C153.991 27.3612 153.844 27.2411 153.881 27.0702C153.936 26.8022 154.051 26.6082 154.234 26.4881C154.418 26.368 154.675 26.2479 155.014 26.137C155.395 26.0169 155.693 25.8783 155.909 25.7212C156.129 25.5687 156.276 25.3008 156.349 24.9173L159.547 8.83112C159.625 8.44768 159.579 8.13815 159.423 7.89792C159.263 7.65769 159.024 7.4036 158.703 7.14027C158.446 6.95085 158.262 6.78454 158.152 6.64133C158.042 6.50273 158.005 6.33642 158.047 6.14239C158.116 5.80052 158.308 5.6573 158.634 5.7266L167.42 7.49599C167.686 7.55143 167.791 7.70851 167.736 7.97646C167.69 8.20283 167.58 8.36914 167.401 8.46154C167.227 8.55393 166.97 8.63709 166.644 8.71101C166.268 8.81264 165.975 8.92352 165.764 9.03901C165.552 9.15451 165.415 9.37626 165.351 9.69965L163.061 21.2076L171.65 12.0696L171.801 11.2981C171.879 10.9147 171.833 10.6051 171.677 10.3649C171.517 10.1247 171.278 9.87058 170.957 9.60725C170.7 9.41784 170.517 9.25152 170.406 9.10831C170.296 8.9651 170.26 8.79878 170.296 8.60937C170.365 8.2675 170.558 8.12429 170.884 8.18897L179.669 9.96298C179.935 10.0184 180.041 10.1755 179.986 10.4434C179.94 10.6744 179.83 10.8315 179.651 10.9285C179.477 11.0209 179.22 11.1041 178.894 11.178C178.518 11.2796 178.224 11.3905 178.013 11.506C177.802 11.6215 177.664 11.8432 177.6 12.1666L174.357 28.4839C174.279 28.8673 174.311 29.1814 174.448 29.4263M169.383 6.49349C168.801 6.3549 168.255 6.1932 167.75 5.99917C167.245 5.80976 166.819 5.59725 166.47 5.37087C165.727 4.94585 165.222 4.45615 164.956 3.90639C164.69 3.35663 164.603 2.85769 164.69 2.40957C164.777 1.96144 165.029 1.61496 165.442 1.37011C165.855 1.12526 166.369 1.09292 166.984 1.27771C167.507 1.42555 167.842 1.61034 167.993 1.83671C168.145 2.0677 168.213 2.31717 168.2 2.59436C168.186 2.87155 168.131 3.15336 168.044 3.43979C167.957 3.73084 167.929 4.00341 167.957 4.2575C167.984 4.51159 168.126 4.74258 168.379 4.95509C168.631 5.1676 169.103 5.3293 169.787 5.44941C170.356 5.56491 170.773 5.56953 171.04 5.46327C171.306 5.35702 171.494 5.1907 171.595 4.96433C171.7 4.73796 171.76 4.47001 171.783 4.16972C171.806 3.86481 171.865 3.59224 171.962 3.34277C172.063 3.0933 172.232 2.89465 172.48 2.74681C172.728 2.59898 173.118 2.5574 173.659 2.6267C174.297 2.696 174.765 2.92237 175.059 3.31043C175.357 3.6985 175.467 4.1189 175.384 4.56703C175.306 5.01977 175.04 5.44479 174.595 5.85134C174.15 6.25788 173.503 6.51197 172.654 6.61823C172.246 6.69676 171.741 6.71524 171.15 6.68752C170.553 6.65519 169.961 6.59051 169.37 6.49349M67.9598 50.4835C67.9919 50.853 67.7579 51.0563 67.2533 51.1025L57.1692 51.9664C56.6508 52.0126 56.3709 51.7909 56.3296 51.3058C56.3159 51.1487 56.348 51.0286 56.4305 50.9454C56.5085 50.8623 56.6416 50.7606 56.8251 50.6498C57.1187 50.4465 57.3481 50.2294 57.5133 49.9891C57.6784 49.7489 57.7381 49.3701 57.6922 48.8434C57.6234 48.0488 57.4261 47.2958 57.0958 46.5797C56.7609 45.8682 56.3388 45.2307 55.8295 44.6671C55.3157 44.1035 54.7652 43.6461 54.1687 43.2858C53.5769 42.9254 53.0034 42.6944 52.4529 42.5835C52.274 42.542 52.1271 42.5235 52.0125 42.5327C51.7601 42.5558 51.6592 42.8376 51.7051 43.3782L52.2189 49.4579C52.251 49.8459 52.3703 50.137 52.5676 50.3356C52.7694 50.5343 53.0493 50.7237 53.4163 50.9085C53.7008 51.0609 53.9072 51.1903 54.0311 51.2965C54.155 51.4028 54.2284 51.5552 54.2421 51.7493C54.2697 52.0588 54.1183 52.2297 53.7925 52.2575L45.1261 53.0013C44.8004 53.029 44.626 52.9551 44.6123 52.7841C44.5893 52.5116 44.649 52.2944 44.7912 52.1235C44.9334 51.9572 45.149 51.7724 45.4427 51.5691C45.773 51.3474 46.0207 51.1302 46.1859 50.9177C46.351 50.7098 46.4199 50.4095 46.3877 50.0215L45.0022 33.6442C44.9701 33.2561 44.8416 32.9697 44.626 32.7849C44.4058 32.6001 44.1076 32.4246 43.7222 32.2629C43.4194 32.152 43.1992 32.0457 43.0524 31.9395C42.9056 31.8332 42.8276 31.6854 42.8092 31.4914C42.7817 31.1402 42.9285 30.9555 43.2542 30.9277L52.1822 30.1608C52.4529 30.1377 52.5997 30.2625 52.6226 30.5351C52.641 30.766 52.5813 30.9555 52.4391 31.0941C52.2969 31.2326 52.0767 31.3851 51.7785 31.5468C51.4481 31.7501 51.1958 31.9395 51.0261 32.1104C50.8563 32.2813 50.7829 32.5308 50.815 32.8588L51.2371 37.8621C51.283 38.4072 51.3197 38.7907 51.3518 39.0263C51.3793 39.2573 51.4252 39.3728 51.4803 39.3682C51.5399 39.3635 51.65 39.0817 51.8152 38.5181L51.9069 38.2178C52.6364 35.8525 53.5448 33.926 54.6321 32.4477C55.7194 30.9693 56.9444 30.1701 58.3116 30.05C58.4676 30.0361 58.7061 30.0361 59.041 30.05C59.3943 30.0777 59.6558 30.0869 59.8301 30.0685C60.2752 30.0315 60.8853 29.8236 61.6699 29.4402C62.3397 29.1075 62.8489 28.9274 63.193 28.8996C63.4224 28.8812 63.5922 28.9366 63.7023 29.0752C63.8124 29.2138 63.8766 29.4078 63.8996 29.6573C64.0372 31.2696 63.7206 32.5632 62.9499 33.5472C62.1791 34.5312 61.1606 35.0763 59.8898 35.1872C59.6604 35.2057 59.2016 35.1687 58.5134 35.0717C57.8253 34.9747 57.3665 34.9377 57.1371 34.9562C56.27 35.0301 55.5589 35.409 55.0083 36.0927C54.4532 36.7764 53.8614 37.8482 53.2282 39.3081C53.1961 39.3682 53.1686 39.4282 53.1548 39.4883C53.008 39.7932 52.9346 40.0057 52.9484 40.1212C52.9667 40.3337 53.2466 40.4492 53.7925 40.4584C55.0313 40.4492 56.2792 40.6987 57.5362 41.2068C58.7933 41.715 59.9402 42.4034 60.9863 43.2719C61.7387 43.891 62.3993 44.547 62.9728 45.2399C63.5463 45.9329 64.1657 46.7599 64.8263 47.7162C65.3356 48.4738 65.7301 49.0051 66.01 49.3146C66.2898 49.6242 66.5513 49.7674 66.8037 49.7443C67.1707 49.7119 67.446 49.772 67.6341 49.9244C67.8222 50.0769 67.9323 50.2663 67.9736 50.4973M79.3285 39.807C79.0578 39.8163 78.7734 39.8717 78.4752 39.9734C78.1769 40.0796 77.9063 40.2274 77.6585 40.4169C77.4108 40.6063 77.2043 40.8419 77.0391 41.1191C76.874 41.3963 76.7914 41.7012 76.8006 42.0292L76.952 47.9241C76.9657 48.5293 77.03 48.9404 77.1447 49.1576C77.2548 49.3793 77.475 49.4856 77.8053 49.4763C78.4614 49.4578 79.1542 49.3516 79.8836 49.1622C80.6131 48.9728 81.3288 48.7141 82.0261 48.3907C82.7235 48.0719 83.3841 47.7069 83.9989 47.305C84.6183 46.8985 85.1551 46.4873 85.6047 46.0669C85.8478 45.8267 86.1047 45.5402 86.3662 45.1984C86.6277 44.8611 86.8709 44.5285 87.0957 44.2005C87.3205 43.8725 87.5178 43.5953 87.683 43.3689C87.8527 43.1426 87.9858 43.0271 88.0821 43.0224C88.3161 43.0178 88.4583 43.0964 88.5088 43.258C88.5592 43.4244 88.5913 43.7015 88.6005 44.0896C88.6143 44.5978 88.5225 45.1152 88.3207 45.6465C88.1234 46.1778 87.9812 46.686 87.894 47.1757C87.6738 49.8505 87.2701 51.1949 86.692 51.2088C86.6736 51.2088 86.6048 51.181 86.4855 51.1256C86.2515 51.0147 85.9029 50.9362 85.4349 50.89C84.9715 50.8438 84.4439 50.8115 83.8521 50.7976C83.2603 50.7837 82.6363 50.7791 81.9803 50.7884C81.3242 50.7976 80.6957 50.7884 80.0947 50.7653L69.6619 51.0332C69.3316 51.0424 69.1664 50.9593 69.1618 50.7837C69.1572 50.5112 69.2536 50.2848 69.4646 50.1046C69.6711 49.9245 69.8959 49.7489 70.1344 49.578C70.373 49.407 70.5932 49.213 70.7997 48.9912C71.0061 48.7695 71.1071 48.4877 71.0979 48.1366L70.6804 31.7039C70.6712 31.3528 70.5565 31.0802 70.3409 30.8815C70.1207 30.6829 69.8913 30.5073 69.6481 30.3595C69.4004 30.2117 69.171 30.0685 68.9554 29.9391C68.7397 29.8097 68.6296 29.6342 68.625 29.4217C68.6159 29.0706 68.7764 28.8904 69.1022 28.8812L83.3887 28.5162C83.6411 28.5116 83.8796 28.4654 84.109 28.3822C84.3384 28.2991 84.554 28.2113 84.7559 28.1189C84.9578 28.0265 85.1367 27.9387 85.3019 27.8556C85.4624 27.7724 85.6138 27.7308 85.7469 27.7262C86.0359 27.717 86.2607 27.9572 86.4167 28.4377C86.5727 28.9227 86.7424 29.6573 86.9214 30.6459C87.0452 31.7316 87.2333 32.6278 87.4811 33.3347C87.7334 34.0369 87.8619 34.6051 87.8711 35.0348C87.8802 35.4228 87.6921 35.6261 87.3068 35.6353C87.0728 35.64 86.8296 35.5106 86.5727 35.2473C86.3158 34.9793 85.9579 34.5635 85.4946 33.9907C84.3384 32.5585 83.1089 31.5514 81.8059 30.9601C80.503 30.3687 79.122 30.0962 77.6539 30.1331C77.1722 30.147 76.8602 30.2255 76.718 30.378C76.5758 30.5258 76.5116 30.8261 76.5253 31.2742L76.6996 38.1624C76.7088 38.4534 76.7364 38.6521 76.7868 38.7583C76.8373 38.8646 76.952 38.9154 77.1263 38.9108C77.2594 38.9108 77.4062 38.7399 77.5622 38.4026C77.7181 38.07 77.9384 37.7004 78.2136 37.3031C78.4935 36.9058 78.8605 36.5316 79.3147 36.1805C79.7689 35.8294 80.3745 35.6307 81.1269 35.5938C81.6087 35.5799 82.0766 35.64 82.5216 35.7601C82.9666 35.8848 83.3612 36.0511 83.6961 36.2544C84.031 36.4623 84.2971 36.6933 84.4944 36.9474C84.6917 37.2061 84.7972 37.4602 84.8018 37.7143C84.8018 37.8298 84.7605 37.9637 84.6687 38.1116C84.577 38.2594 84.4577 38.4072 84.3155 38.5597C84.1733 38.7075 84.0264 38.8646 83.8796 39.0217C83.7282 39.1834 83.5998 39.3404 83.4851 39.4975C82.9621 40.2505 82.5904 40.8095 82.3656 41.1745C82.1408 41.5395 81.9436 41.7243 81.7692 41.7289C81.6132 41.7289 81.4573 41.6365 81.2967 41.4332C81.1361 41.2346 80.9618 41.0082 80.7737 40.7587C80.5856 40.5093 80.3699 40.2875 80.1314 40.0888C79.8928 39.8902 79.6221 39.7932 79.3101 39.8024M97.4413 50.7283C96.5513 50.7006 95.8264 50.7976 95.2575 51.024C94.6886 51.2503 94.2252 51.5552 93.8674 51.9433C93.5095 52.3314 93.2251 52.7656 93.014 53.2461C92.803 53.7266 92.6057 54.207 92.4176 54.6875C92.2295 55.1679 92.0644 55.5098 91.9221 55.7085C91.7799 55.9071 91.5826 56.0041 91.3349 55.9949C91.1605 55.9903 91.0229 55.8332 90.9128 55.5283C90.8073 55.2234 90.7155 54.8353 90.6421 54.3641C90.5687 53.8929 90.4861 53.3708 90.3852 52.7934C90.2889 52.2159 90.1604 51.6523 90.0044 51.1025C89.775 50.3356 89.6374 49.7489 89.5823 49.3377C89.5273 48.9266 89.5456 48.6401 89.6374 48.4784C89.7291 48.3168 89.8759 48.2521 90.0778 48.289C90.2797 48.326 90.5182 48.386 90.7981 48.4738C91.0734 48.5616 91.3808 48.6586 91.7157 48.7649C92.0506 48.8711 92.3809 48.9127 92.7112 48.885C93.17 48.3722 93.6334 47.7023 94.0922 46.8708C94.5555 46.0392 94.9822 45.106 95.3814 44.0804C95.7805 43.0502 96.143 41.9645 96.4687 40.8142C96.7944 39.6638 97.0605 38.532 97.2716 37.4094C97.4826 36.2867 97.6156 35.2103 97.6753 34.1801C97.7349 33.1499 97.712 32.2351 97.6019 31.4313C97.6111 31.0802 97.4964 30.7938 97.2532 30.572C97.01 30.3503 96.7394 30.1516 96.4457 29.9761C96.1521 29.8005 95.8814 29.6203 95.6337 29.4402C95.3859 29.2554 95.2713 29.029 95.2758 28.7564C95.2758 28.6594 95.3997 28.5947 95.6429 28.5624C95.886 28.53 96.0833 28.5162 96.2393 28.5208L111.801 29.0105C112.132 29.0197 112.292 29.1121 112.288 29.2877C112.278 29.5787 112.164 29.8097 111.948 29.9761C111.728 30.1424 111.494 30.3041 111.237 30.4519C110.98 30.5997 110.741 30.7707 110.526 30.9693C110.306 31.168 110.191 31.4405 110.182 31.7916L109.636 49.3562L109.984 49.3655C110.526 49.3839 111.044 49.3054 111.544 49.1391C112.044 48.9681 112.448 48.8896 112.756 48.8988C113.063 48.9081 113.233 49.1114 113.26 49.4994C113.288 49.8875 113.09 50.6544 112.668 51.7862C112.476 52.3268 112.315 52.8811 112.182 53.4494C112.049 54.0176 111.93 54.5397 111.829 55.0155C111.728 55.4867 111.613 55.8748 111.489 56.1751C111.365 56.4707 111.214 56.6186 111.04 56.614C110.787 56.6047 110.599 56.4985 110.471 56.2906C110.342 56.0827 110.2 55.7316 110.04 55.2419C109.879 54.7475 109.714 54.2578 109.535 53.7635C109.356 53.2692 109.099 52.8211 108.764 52.4099C108.429 51.9988 107.984 51.6661 107.434 51.4028C106.883 51.1395 106.158 50.9962 105.273 50.9685L97.4505 50.7237L97.4413 50.7283ZM104.296 31.7824C104.309 31.3343 104.24 31.0155 104.094 30.8261C103.947 30.6367 103.676 30.5166 103.291 30.4658C103.038 30.438 102.639 30.4196 102.089 30.4149C101.538 30.4057 101.011 30.4057 100.506 30.4103C100.295 30.4011 100.134 30.5166 100.033 30.7476C99.9279 30.9786 99.8729 31.2604 99.8637 31.5884C99.8178 32.9882 99.7123 34.4527 99.538 35.9726C99.3636 37.4971 99.0975 39.0124 98.7305 40.5185C98.3635 42.0246 97.9047 43.4983 97.345 44.9304C96.7898 46.3626 96.1154 47.6931 95.3217 48.9127L103.754 49.1807L104.296 31.787V31.7824ZM124.322 50.2386C124.482 50.4696 124.73 50.7052 125.056 50.9547C125.308 51.1533 125.487 51.3196 125.592 51.4444C125.698 51.5737 125.739 51.7308 125.721 51.9248C125.693 52.2344 125.514 52.373 125.184 52.3452L116.522 51.5275C116.196 51.4952 116.04 51.3936 116.054 51.218C116.077 50.9454 116.178 50.7422 116.343 50.5989C116.513 50.4604 116.756 50.3171 117.082 50.1693C117.444 50.0076 117.729 49.8413 117.931 49.6611C118.132 49.4856 118.252 49.2038 118.288 48.8157L119.394 36.9566C119.458 36.259 119.422 35.6815 119.279 35.2288C119.137 34.7761 118.931 34.4249 118.665 34.1755C118.394 33.926 118.11 33.7458 117.811 33.6396C117.513 33.5333 117.169 33.4409 116.788 33.367C116.444 33.2977 116.206 33.2238 116.063 33.1545C115.926 33.0806 115.862 32.9789 115.875 32.845C115.907 32.517 116.151 32.2074 116.6 31.9164C117.775 31.1864 119.197 30.6598 120.867 30.341C122.537 30.0223 124.294 29.9483 126.143 30.1193C127.721 30.2671 129.203 30.5859 130.584 31.0663C131.965 31.5468 133.162 32.1474 134.172 32.8588C135.186 33.5703 135.947 34.3603 136.47 35.2288C136.993 36.0973 137.209 36.9889 137.126 37.899C136.943 39.8763 136.232 41.4425 135.002 42.5928C133.768 43.7477 132.057 44.219 129.859 44.0157C128.799 43.9141 127.996 43.7293 127.45 43.4521C126.904 43.1749 126.455 42.833 126.106 42.4311C125.702 41.9645 125.395 41.7196 125.184 41.6965C125.028 41.6827 124.927 41.7612 124.872 41.9322C124.817 42.1031 124.776 42.3618 124.744 42.7129L124.661 43.5861L124.129 49.31C124.092 49.6981 124.156 50.0076 124.322 50.2386ZM125.358 40.0565C125.569 40.4169 126.001 40.6294 126.652 40.694C128.019 40.8234 128.997 40.6016 129.584 40.0334C130.171 39.4652 130.524 38.5504 130.639 37.2892C130.694 36.6887 130.602 36.1019 130.364 35.5337C130.125 34.9655 129.772 34.4342 129.304 33.9399C128.836 33.4455 128.272 33.0159 127.62 32.6509C126.964 32.286 126.248 32.0088 125.468 31.8194C125.088 31.7454 124.771 31.6946 124.519 31.6715C124.152 31.6392 123.84 31.6161 123.578 31.6115C123.317 31.6068 123.175 31.6207 123.152 31.6577C123.152 31.6761 123.161 31.69 123.179 31.69C123.367 31.7639 123.743 31.8794 124.312 32.0319C124.936 32.1889 125.404 32.3322 125.716 32.4569C126.024 32.5863 126.17 32.7433 126.152 32.9374C126.12 33.2885 126.005 33.695 125.803 34.1662C125.702 34.4111 125.62 34.6421 125.551 34.8592C125.482 35.0763 125.432 35.3535 125.4 35.6815L125.152 38.3564C125.078 39.1325 125.152 39.7008 125.358 40.0611M38.0792 52.0496C38.2535 51.8463 38.2902 51.7585 38.0149 51.8602C37.7397 51.9572 37.157 52.2436 36.6523 52.4469C36.1477 52.6501 35.7302 52.7703 35.2806 52.8488C34.831 52.9273 34.3538 52.9689 33.9134 52.9689C33.473 52.9689 33.0646 52.9273 32.6563 52.858C32.248 52.7887 31.8397 52.6917 31.3763 52.5531C30.9175 52.4099 30.4083 52.2205 29.8394 51.9757C29.2705 51.7262 28.6465 51.4167 28.1052 51.084C27.5638 50.7514 27.1096 50.3911 26.6325 49.9337C26.1508 49.4763 25.6415 48.9173 25.2928 48.4738C24.9442 48.0257 24.7515 47.6931 24.5863 47.3327C24.4211 46.9724 24.2835 46.5889 24.178 46.1039C24.0725 45.6188 23.9991 45.0274 24.0312 44.3529C24.0633 43.6785 24.2055 42.9162 24.4349 42.2324C24.6643 41.5441 24.9809 40.9343 25.3433 40.3707C25.7057 39.807 26.1186 39.2942 26.5912 38.8692C27.0637 38.4442 27.6005 38.1069 28.1602 37.8344C28.72 37.5618 29.298 37.3632 29.8348 37.2523C30.367 37.1414 30.8533 37.1275 31.3626 37.183C31.8718 37.2338 32.4086 37.3585 32.9087 37.5433C33.4041 37.7281 33.8675 37.9776 34.3171 38.2917C34.7713 38.6105 35.2163 38.9939 35.6017 39.4282C35.9917 39.8625 36.322 40.3476 36.5468 40.8326C36.7716 41.3177 36.8955 41.8028 36.9414 42.2879C36.9873 42.7776 36.9551 43.2719 36.8588 43.7385C36.767 44.2051 36.6111 44.644 36.4321 45.0182C36.2578 45.3878 36.0605 45.6973 35.8632 45.9329C35.666 46.1685 35.4595 46.3349 35.2393 46.4827C35.0191 46.6305 34.7759 46.7553 34.5373 46.8338C34.3034 46.9169 34.074 46.9539 33.8538 46.9539C33.6381 46.9539 33.4317 46.9169 33.239 46.8661C33.0463 46.8153 32.8674 46.746 32.7114 46.6398C32.56 46.5289 32.4361 46.3764 32.3444 46.1685C32.2526 45.9606 32.193 45.7019 32.1838 45.4525C32.1746 45.203 32.2159 44.9581 32.2618 44.6717C32.3076 44.3853 32.3627 44.0573 32.326 43.7339C32.2893 43.4151 32.1654 43.101 31.9498 42.8284C31.7296 42.5558 31.4176 42.3156 31.046 42.1585C30.6744 42.0014 30.2431 41.9183 29.8623 41.9506C29.4769 41.9784 29.142 42.1169 28.853 42.3202C28.564 42.5189 28.3254 42.7822 28.1465 43.1379C27.9721 43.4937 27.862 43.951 27.8758 44.4407C27.8895 44.9304 28.0272 45.4571 28.2841 45.9514C28.541 46.4411 28.9218 46.8985 29.3393 47.2727C29.7568 47.6515 30.2156 47.9472 30.734 48.192C31.257 48.4322 31.8397 48.617 32.3581 48.6956C32.872 48.7787 33.3216 48.7556 33.7895 48.6725C34.2575 48.5893 34.7484 48.4369 35.2072 48.2244C35.666 48.0118 36.088 47.7347 36.5055 47.3835C36.923 47.0278 37.3313 46.5982 37.6663 46.1085C38.0012 45.6188 38.2673 45.0736 38.4508 44.51C38.6297 43.9464 38.726 43.3689 38.7352 42.773C38.7444 42.1816 38.6618 41.5718 38.4875 41.0036C38.3177 40.4307 38.0562 39.8948 37.7993 39.4744C37.547 39.054 37.2946 38.7583 36.9781 38.4165C36.6569 38.0746 36.267 37.6912 35.8586 37.3678C35.4549 37.0444 35.0374 36.7811 34.6658 36.5732C34.2942 36.3699 33.9639 36.2267 33.5922 36.0742C33.216 35.9218 32.7985 35.7647 32.459 35.6538C32.1195 35.5476 31.8626 35.4875 31.7066 35.4552C31.5507 35.4182 31.4956 35.4043 31.2341 35.3812C30.9726 35.3581 30.5046 35.3212 30.0504 35.335C29.5962 35.3489 29.1558 35.4043 28.7429 35.4921C28.33 35.5799 27.9446 35.6908 27.5317 35.8663C27.1142 36.0419 26.6692 36.2867 26.2976 36.5131C25.9305 36.7395 25.6415 36.952 25.2974 37.2569C24.9533 37.5618 24.5496 37.9637 24.2147 38.3657C23.8798 38.7676 23.6045 39.1741 23.3522 39.7008C23.0998 40.2274 22.8613 40.8788 22.7007 41.4563C22.5401 42.0338 22.453 42.5373 22.4117 42.8515C22.3704 43.1656 22.3795 43.295 22.375 43.3551C22.3704 43.4151 22.352 43.4105 22.0538 42.9023C21.751 42.3941 21.1684 41.387 20.6912 40.6201C20.2141 39.8532 19.8471 39.3312 19.4525 38.92C19.0579 38.5042 18.6313 38.204 18.1954 37.9683C17.7596 37.7327 17.3192 37.571 16.8879 37.4833C16.4566 37.3955 16.0391 37.377 15.6308 37.4186C15.2225 37.4555 14.8188 37.5479 14.4242 37.7189C14.0297 37.8898 13.6535 38.1439 13.369 38.3888C13.0892 38.6336 12.9056 38.8646 12.7405 39.1603C12.5799 39.4559 12.4377 39.807 12.3826 40.2043C12.3276 40.597 12.3597 41.0359 12.4744 41.4656C12.5891 41.8952 12.7909 42.3248 13.0433 42.7314C13.2956 43.1379 13.6076 43.5306 13.9517 43.8494C14.2958 44.1682 14.6766 44.4176 15.0023 44.5747C15.328 44.7318 15.6033 44.8011 15.874 44.838C16.1447 44.875 16.4153 44.8842 16.6769 44.8195C16.9384 44.7549 17.1907 44.6209 17.3834 44.4638C17.5715 44.3067 17.6954 44.1266 17.7917 43.9187C17.8835 43.7108 17.9477 43.4706 17.9247 43.1887C17.9064 42.9069 17.8009 42.5882 17.6403 42.3295C17.4797 42.0708 17.2595 41.8721 17.0531 41.7427C16.8466 41.618 16.6585 41.5626 16.475 41.5672C16.2869 41.5672 16.1034 41.6319 15.8877 41.7243C15.6721 41.8213 15.4244 41.9506 15.2363 42.0246C15.0482 42.0985 14.9243 42.117 14.8096 42.1123C14.6995 42.1077 14.5986 42.08 14.5068 42.0338C14.415 41.9876 14.3325 41.9229 14.2361 41.8213C14.1444 41.7196 14.0388 41.5857 13.97 41.3685C13.8966 41.1514 13.8553 40.8557 13.8553 40.6247C13.8553 40.3938 13.9012 40.2274 13.993 40.0426C14.0847 39.8579 14.2178 39.6592 14.4105 39.4929C14.6031 39.3266 14.8463 39.188 15.1353 39.0956C15.4244 39.0032 15.7547 38.9524 16.0529 38.9616C16.3511 38.9662 16.6172 39.0309 16.8879 39.151C17.1586 39.2711 17.4338 39.4421 17.6908 39.6546C17.9477 39.8671 18.1908 40.1166 18.4524 40.4538C18.7184 40.7911 19.0075 41.2115 19.3653 41.7797C19.7186 42.3433 20.1407 43.0548 20.5673 43.8448C20.9986 44.6301 21.4344 45.4987 21.8152 46.187C22.196 46.8754 22.5126 47.3882 22.8934 47.9564C23.2696 48.5246 23.71 49.1529 24.0862 49.6473C24.467 50.1416 24.7836 50.4973 25.1506 50.8577C25.513 51.218 25.926 51.5876 26.3113 51.8925C26.7013 52.1974 27.0683 52.4423 27.4766 52.6779C27.8895 52.9135 28.3483 53.1398 28.7796 53.3246C29.2154 53.5048 29.6238 53.6388 30.0642 53.745C30.5046 53.8513 30.9772 53.9298 31.4681 53.976C31.959 54.0222 32.4636 54.0361 32.9958 54.013C33.5234 53.9899 34.074 53.9206 34.5832 53.8282C35.0925 53.7358 35.5604 53.6111 36.0055 53.454C36.4459 53.2969 36.8588 53.1029 37.2212 52.8488C37.5837 52.5947 37.8911 52.2759 38.0608 52.0727M23.0585 49.4532C22.9393 49.3146 22.7282 49.0975 22.4759 48.922C22.2281 48.7464 21.9391 48.617 21.6363 48.5062C21.3289 48.3999 21.0078 48.3168 20.6545 48.2521C20.3013 48.1874 19.925 48.1458 19.5626 48.1273C19.2002 48.1089 18.8469 48.1227 18.512 48.1551C18.1725 48.1874 17.8468 48.2428 17.544 48.3168C17.2412 48.3907 16.9567 48.4831 16.6585 48.6078C16.3603 48.7325 16.0437 48.8942 15.7593 49.0559C15.4748 49.2222 15.2225 49.3885 14.9564 49.6011C14.6903 49.8136 14.4059 50.0677 14.1581 50.3171C13.9058 50.5666 13.6902 50.8161 13.4287 51.1533C13.1672 51.4952 12.8689 51.9295 12.6074 52.3221C12.3459 52.7148 12.1303 53.0705 11.8688 53.5464C11.6073 54.0222 11.3091 54.6228 11.0109 55.168C10.7172 55.7131 10.4282 56.2028 10.1851 56.5955C9.94189 56.9882 9.74462 57.2792 9.5611 57.5102C9.37759 57.7412 9.21243 57.9167 9.03809 58.0646C8.85916 58.2124 8.67106 58.3325 8.48755 58.4111C8.29944 58.4942 8.11593 58.5358 7.90948 58.545C7.70302 58.5497 7.47363 58.5173 7.27636 58.4526C7.07908 58.388 6.90933 58.2956 6.77628 58.1801C6.64323 58.0646 6.55148 57.926 6.48725 57.8013C6.42302 57.6765 6.3909 57.561 6.3909 57.3993C6.3909 57.2376 6.41843 57.0344 6.46889 56.8865C6.51936 56.7387 6.58818 56.6417 6.65241 56.5724C6.71664 56.5031 6.77169 56.4569 6.83592 56.4245C6.90015 56.3922 6.96897 56.3737 7.04696 56.3691C7.12496 56.3691 7.21212 56.3783 7.34058 56.4292C7.46904 56.48 7.63879 56.5678 7.79019 56.6371C7.94159 56.7017 8.06546 56.7433 8.19392 56.7433C8.32238 56.7433 8.45084 56.7064 8.59307 56.6186C8.73529 56.5308 8.88669 56.3922 8.9968 56.212C9.10691 56.0319 9.17572 55.8101 9.18949 55.6207C9.20325 55.4267 9.15737 55.2603 9.09314 55.1171C9.02891 54.9739 8.94174 54.8492 8.81328 54.7429C8.68023 54.6367 8.5059 54.5443 8.32697 54.4981C8.14805 54.4565 7.95994 54.4611 7.77184 54.4888C7.58374 54.5166 7.39564 54.5628 7.17084 54.6736C6.94603 54.7845 6.68452 54.9554 6.44596 55.1772C6.20739 55.3989 5.99635 55.6669 5.82201 55.9487C5.64767 56.2305 5.51003 56.5262 5.43204 56.8218C5.35405 57.1221 5.33111 57.4224 5.36781 57.695C5.40451 57.9676 5.50545 58.2124 5.61555 58.4111C5.72566 58.6097 5.85412 58.776 6.0514 58.9423C6.24868 59.1087 6.51018 59.2842 6.78087 59.3997C7.05155 59.5152 7.33141 59.5799 7.61127 59.603C7.89571 59.6261 8.18016 59.6168 8.47837 59.5522C8.77199 59.4875 9.07938 59.3766 9.37759 59.2149C9.6758 59.0532 9.96942 58.8407 10.2401 58.5543C10.5108 58.2678 10.7631 57.9075 11.0934 57.3762C11.4192 56.8449 11.8229 56.152 12.0294 55.8009C12.2358 55.4498 12.2496 55.4451 12.2496 55.4867C12.2496 55.5283 12.2496 55.6161 12.2771 55.8332C12.3046 56.0503 12.3643 56.3968 12.479 56.7941C12.5891 57.1914 12.7542 57.6396 12.9332 58.0045C13.1075 58.3695 13.3002 58.6467 13.5296 58.9239C13.7636 59.2011 14.0388 59.4736 14.2774 59.6861C14.516 59.8986 14.7178 60.0419 14.9702 60.1943C15.2225 60.3514 15.5345 60.5177 15.8235 60.6378C16.1125 60.7579 16.3741 60.8365 16.6631 60.8919C16.9475 60.952 17.2549 60.9889 17.5669 60.9982C17.8789 61.0074 18.2046 60.9797 18.3835 60.9612C18.5625 60.9427 18.6037 60.9335 18.7093 60.9104C18.8194 60.8873 18.9937 60.8457 19.2277 60.7718C19.4617 60.6979 19.7507 60.587 20.0076 60.4807C20.2645 60.3745 20.4894 60.2729 20.7463 60.1343C21.0032 59.991 21.2876 59.8109 21.5675 59.5845C21.8474 59.3581 22.118 59.0948 22.3337 58.8592C22.5539 58.6236 22.7236 58.4157 22.898 58.1246C23.0723 57.8336 23.2512 57.464 23.3705 57.0713C23.4852 56.674 23.5449 56.2582 23.5357 55.8471C23.5311 55.4359 23.4623 55.0386 23.3338 54.6505C23.2054 54.2625 23.0218 53.8883 22.7925 53.551C22.5631 53.2138 22.2786 52.9181 21.9896 52.6732C21.7005 52.4284 21.4069 52.239 21.0904 52.0958C20.7738 51.9526 20.4389 51.8463 20.1131 51.7909C19.792 51.7354 19.48 51.7216 19.1268 51.777C18.7689 51.8324 18.3698 51.9618 18.0073 52.1281C17.6495 52.2944 17.3329 52.5023 17.0485 52.7656C16.7594 53.029 16.5025 53.3431 16.3236 53.6804C16.1447 54.0176 16.0529 54.3826 16.0437 54.7198C16.0346 55.0571 16.1125 55.3712 16.2318 55.6161C16.3511 55.8609 16.5209 56.0411 16.7181 56.1797C16.9154 56.3183 17.1494 56.4107 17.4155 56.4338C17.6816 56.4523 17.9752 56.3968 18.2321 56.2859C18.4891 56.1751 18.7047 56.0088 18.8515 55.8193C19.0029 55.6299 19.0855 55.4128 19.1084 55.1957C19.1314 54.9739 19.0946 54.7475 19.0625 54.5489C19.0304 54.3502 19.0029 54.1839 19.0075 54.0084C19.0121 53.8328 19.0534 53.6573 19.113 53.5141C19.1772 53.3708 19.2598 53.2646 19.3653 53.1907C19.4709 53.1167 19.5947 53.0705 19.7278 53.0336C19.8608 52.9966 20.003 52.9735 20.1499 52.9735C20.2967 52.9735 20.4572 53.0013 20.6224 53.0567C20.783 53.1121 20.9527 53.1953 21.1041 53.2969C21.2601 53.3986 21.3977 53.514 21.5354 53.6757C21.673 53.8374 21.8107 54.0499 21.9299 54.304C22.0538 54.5581 22.1593 54.863 22.2281 55.1864C22.2924 55.5098 22.3153 55.8471 22.2878 56.1843C22.2557 56.5216 22.1777 56.8542 22.0217 57.1914C21.8657 57.5287 21.6409 57.8613 21.3748 58.1616C21.1087 58.4619 20.8013 58.7298 20.4939 58.9516C20.182 59.1733 19.8654 59.3443 19.5259 59.4736C19.1818 59.603 18.8148 59.6861 18.4615 59.7277C18.1083 59.7693 17.7779 59.7554 17.4063 59.6815C17.0393 59.6076 16.6356 59.469 16.2502 59.2842C15.8648 59.0994 15.4932 58.8684 15.1675 58.5774C14.8417 58.2863 14.5527 57.9306 14.3003 57.5425C14.048 57.1545 13.8278 56.7341 13.6672 56.2582C13.5067 55.787 13.4103 55.2603 13.3828 54.7937C13.3598 54.3271 13.4057 53.9206 13.4791 53.588C13.5525 53.2507 13.6443 52.9874 13.759 52.7379C13.8737 52.4885 14.0021 52.2575 14.2453 51.9526C14.4885 51.6476 14.8371 51.2596 15.1675 50.9408C15.4978 50.622 15.8098 50.3772 16.1814 50.1416C16.553 49.9106 16.9842 49.6935 17.3742 49.5225C17.7642 49.347 18.1128 49.2176 18.4294 49.1206C18.746 49.0236 19.0304 48.9543 19.3103 48.9081C19.5901 48.8573 19.87 48.8296 20.1774 48.8296C20.4802 48.8296 20.8105 48.8526 21.1225 48.9081C21.4299 48.9635 21.7235 49.0421 22.0676 49.1807C22.4162 49.3193 22.82 49.5133 23.0081 49.578C23.1962 49.6473 23.1732 49.5872 23.054 49.4486M141.847 52.068C142.021 52.2713 142.329 52.5901 142.687 52.8442C143.049 53.0983 143.462 53.2923 143.902 53.4494C144.343 53.6064 144.811 53.7312 145.325 53.8236C145.834 53.916 146.384 53.9853 146.912 54.0084C147.44 54.0361 147.949 54.0176 148.44 53.9714C148.931 53.9252 149.403 53.8467 149.844 53.7404C150.284 53.6342 150.697 53.5002 151.128 53.32C151.564 53.1399 152.018 52.9089 152.431 52.6732C152.844 52.4376 153.211 52.1928 153.597 51.8879C153.987 51.583 154.395 51.2134 154.757 50.853C155.12 50.4927 155.441 50.137 155.822 49.6426C156.202 49.1483 156.638 48.52 157.014 47.9518C157.391 47.3835 157.712 46.8707 158.093 46.1824C158.473 45.494 158.914 44.6255 159.341 43.8401C159.772 43.0502 160.189 42.3433 160.543 41.7751C160.896 41.2068 161.189 40.7864 161.456 40.4492C161.722 40.1119 161.965 39.8579 162.222 39.65C162.479 39.4421 162.754 39.2665 163.025 39.1464C163.295 39.0263 163.561 38.9616 163.86 38.957C164.158 38.9478 164.488 38.9986 164.777 39.091C165.066 39.1834 165.309 39.3173 165.502 39.4883C165.695 39.6546 165.828 39.8579 165.92 40.038C166.011 40.2228 166.057 40.3891 166.057 40.6201C166.057 40.8511 166.016 41.1468 165.942 41.3639C165.869 41.581 165.768 41.715 165.672 41.8167C165.58 41.9183 165.493 41.983 165.406 42.0292C165.314 42.0754 165.213 42.1031 165.103 42.1077C164.993 42.1123 164.864 42.0938 164.676 42.0199C164.488 41.946 164.24 41.8167 164.025 41.7196C163.809 41.6226 163.626 41.5626 163.437 41.5626C163.249 41.5626 163.061 41.6134 162.859 41.7381C162.653 41.8629 162.433 42.0661 162.272 42.3248C162.112 42.5835 162.006 42.9069 161.988 43.1841C161.969 43.4659 162.029 43.7015 162.121 43.9141C162.213 44.122 162.341 44.3021 162.529 44.4592C162.717 44.6163 162.97 44.7502 163.231 44.8149C163.493 44.8796 163.763 44.8704 164.034 44.8334C164.305 44.7964 164.58 44.7271 164.906 44.5701C165.231 44.413 165.612 44.1635 165.956 43.8448C166.3 43.526 166.608 43.1333 166.865 42.7268C167.117 42.3202 167.319 41.8906 167.434 41.4609C167.548 41.0313 167.58 40.5924 167.525 40.1997C167.47 39.807 167.333 39.4513 167.167 39.1556C167.007 38.86 166.823 38.629 166.539 38.3841C166.259 38.1393 165.878 37.8898 165.484 37.7143C165.094 37.5433 164.69 37.4509 164.277 37.414C163.869 37.377 163.451 37.3909 163.02 37.4786C162.589 37.5664 162.148 37.7327 161.712 37.9637C161.281 38.1993 160.855 38.4996 160.455 38.9154C160.061 39.3312 159.694 39.8532 159.217 40.6155C158.74 41.3824 158.157 42.3895 157.854 42.8977C157.551 43.4059 157.538 43.4105 157.533 43.3504C157.533 43.2904 157.533 43.161 157.496 42.8469C157.455 42.5327 157.368 42.0292 157.207 41.4517C157.047 40.8742 156.813 40.2228 156.556 39.6962C156.303 39.1695 156.028 38.763 155.693 38.361C155.358 37.9591 154.955 37.5572 154.61 37.2523C154.266 36.9474 153.977 36.7349 153.61 36.5085C153.243 36.2821 152.794 36.0419 152.376 35.8617C151.959 35.6862 151.578 35.5707 151.165 35.4875C150.752 35.4043 150.312 35.3443 149.857 35.3304C149.403 35.3166 148.935 35.3535 148.674 35.3766C148.412 35.3997 148.357 35.4182 148.201 35.4505C148.045 35.4875 147.788 35.5429 147.449 35.6492C147.109 35.7555 146.692 35.9171 146.316 36.0696C145.939 36.2221 145.614 36.3653 145.242 36.5685C144.87 36.7718 144.453 37.0351 144.049 37.3632C143.646 37.6865 143.251 38.07 142.93 38.4118C142.609 38.7537 142.361 39.054 142.109 39.4698C141.856 39.8902 141.595 40.4261 141.42 40.9989C141.251 41.5718 141.168 42.177 141.173 42.7683C141.182 43.3597 141.278 43.9418 141.457 44.5054C141.636 45.069 141.902 45.6142 142.242 46.1039C142.577 46.5936 142.985 47.0232 143.402 47.3789C143.82 47.7347 144.247 48.0072 144.701 48.2197C145.155 48.4323 145.646 48.5801 146.118 48.6679C146.586 48.751 147.036 48.7741 147.55 48.691C148.064 48.6078 148.651 48.4276 149.174 48.1874C149.697 47.9472 150.151 47.6469 150.569 47.2681C150.986 46.8892 151.362 46.4365 151.619 45.9468C151.876 45.4571 152.014 44.9304 152.027 44.4361C152.041 43.9464 151.936 43.4937 151.757 43.1333C151.582 42.7776 151.339 42.5143 151.05 42.3156C150.761 42.117 150.426 41.9784 150.041 41.946C149.656 41.9183 149.229 41.9968 148.857 42.1539C148.486 42.311 148.174 42.5512 147.954 42.8238C147.733 43.101 147.609 43.4105 147.573 43.7293C147.536 44.048 147.591 44.3807 147.637 44.6671C147.683 44.9535 147.724 45.1984 147.715 45.4478C147.706 45.6973 147.646 45.9606 147.559 46.1639C147.467 46.3718 147.343 46.5243 147.192 46.6351C147.041 46.746 146.857 46.8107 146.669 46.8615C146.476 46.9123 146.27 46.9493 146.054 46.9493C145.839 46.9493 145.609 46.9123 145.371 46.8292C145.137 46.746 144.893 46.6213 144.669 46.4781C144.448 46.3302 144.242 46.1639 144.045 45.9283C143.847 45.6927 143.65 45.3878 143.476 45.0136C143.301 44.6394 143.145 44.2005 143.049 43.7339C142.957 43.2673 142.925 42.773 142.967 42.2833C143.012 41.7936 143.132 41.3085 143.361 40.828C143.586 40.3429 143.916 39.8579 144.306 39.4236C144.696 38.9893 145.137 38.6013 145.591 38.2871C146.045 37.9683 146.504 37.7235 146.999 37.5387C147.495 37.3539 148.036 37.2292 148.545 37.1784C149.055 37.1275 149.541 37.1414 150.073 37.2477C150.605 37.3585 151.188 37.5572 151.743 37.8298C152.303 38.0977 152.835 38.4396 153.312 38.8646C153.785 39.2896 154.198 39.8024 154.56 40.366C154.922 40.9297 155.239 41.5395 155.468 42.2278C155.698 42.9162 155.835 43.6738 155.872 44.3483C155.904 45.0228 155.831 45.6095 155.725 46.0992C155.62 46.5843 155.482 46.9678 155.317 47.3281C155.152 47.6885 154.959 48.0211 154.61 48.4692C154.262 48.9127 153.748 49.4717 153.271 49.9291C152.789 50.3864 152.335 50.7468 151.798 51.0794C151.257 51.412 150.633 51.7216 150.064 51.971C149.495 52.2205 148.99 52.4099 148.527 52.5485C148.068 52.6917 147.655 52.7887 147.247 52.8534C146.839 52.9227 146.435 52.9643 145.994 52.9643C145.554 52.9643 145.077 52.9227 144.627 52.8442C144.178 52.7656 143.76 52.6455 143.256 52.4423C142.751 52.239 142.168 51.9572 141.893 51.8555C141.618 51.7585 141.654 51.8463 141.829 52.0449M156.831 49.4255C156.712 49.5641 156.684 49.6242 156.877 49.5549C157.065 49.4902 157.469 49.2915 157.817 49.1576C158.166 49.019 158.455 48.9404 158.762 48.885C159.07 48.8296 159.4 48.8065 159.703 48.8065C160.006 48.8065 160.286 48.8388 160.57 48.885C160.85 48.9312 161.134 49.0005 161.451 49.0975C161.768 49.1991 162.116 49.3285 162.506 49.4994C162.896 49.6704 163.327 49.8875 163.699 50.1185C164.071 50.3495 164.383 50.5989 164.713 50.9177C165.043 51.2365 165.392 51.6199 165.635 51.9295C165.878 52.239 166.007 52.47 166.121 52.7148C166.236 52.9643 166.328 53.2276 166.401 53.5649C166.475 53.9021 166.521 54.3087 166.498 54.7706C166.475 55.2372 166.374 55.7593 166.218 56.2351C166.057 56.7063 165.837 57.1314 165.585 57.5194C165.332 57.9075 165.048 58.2586 164.717 58.5543C164.392 58.8453 164.02 59.0809 163.635 59.2611C163.249 59.4459 162.846 59.5845 162.479 59.6584C162.112 59.7323 161.777 59.7416 161.428 59.7046C161.079 59.6676 160.708 59.5799 160.364 59.4505C160.02 59.3212 159.703 59.1502 159.396 58.9285C159.084 58.7114 158.781 58.4434 158.515 58.1385C158.249 57.8382 158.024 57.501 157.868 57.1683C157.712 56.8357 157.629 56.4985 157.602 56.1612C157.57 55.824 157.593 55.4821 157.661 55.1633C157.726 54.8399 157.836 54.5397 157.96 54.2809C158.083 54.0222 158.217 53.8143 158.354 53.6526C158.492 53.491 158.634 53.3755 158.785 53.2738C158.941 53.1722 159.107 53.089 159.267 53.0336C159.432 52.9782 159.588 52.9504 159.74 52.9504C159.891 52.9504 160.033 52.9781 160.166 53.0105C160.299 53.0474 160.423 53.0937 160.529 53.1676C160.634 53.2461 160.717 53.3477 160.781 53.491C160.845 53.6342 160.882 53.8143 160.887 53.9853C160.891 54.1608 160.864 54.3271 160.832 54.5258C160.799 54.7244 160.763 54.9508 160.786 55.1726C160.809 55.3943 160.896 55.6068 161.043 55.7962C161.194 55.9857 161.41 56.152 161.662 56.2628C161.919 56.3737 162.217 56.4292 162.479 56.4107C162.745 56.3922 162.974 56.2952 163.176 56.1566C163.378 56.018 163.543 55.8424 163.662 55.593C163.782 55.3481 163.86 55.034 163.85 54.6967C163.841 54.3595 163.749 53.9945 163.571 53.6573C163.396 53.32 163.135 53.0059 162.846 52.7425C162.557 52.4792 162.245 52.2713 161.887 52.105C161.529 51.9387 161.125 51.8093 160.772 51.7539C160.414 51.6985 160.107 51.7077 159.786 51.7678C159.464 51.8232 159.125 51.9248 158.808 52.0727C158.492 52.2205 158.198 52.4053 157.909 52.6501C157.62 52.895 157.34 53.1907 157.106 53.5279C156.872 53.8652 156.689 54.2394 156.565 54.6274C156.441 55.0155 156.372 55.4128 156.363 55.824C156.358 56.2305 156.413 56.6509 156.528 57.0482C156.647 57.4409 156.822 57.8151 157.001 58.1015C157.175 58.3926 157.345 58.5959 157.565 58.8361C157.785 59.0717 158.056 59.3396 158.336 59.5614C158.616 59.7878 158.9 59.9679 159.157 60.1112C159.414 60.2544 159.639 60.3514 159.896 60.4576C160.153 60.5639 160.442 60.6748 160.676 60.7487C160.91 60.8226 161.084 60.8642 161.194 60.8873C161.304 60.9104 161.341 60.9242 161.52 60.9381C161.699 60.9566 162.024 60.9797 162.336 60.9751C162.648 60.9658 162.956 60.9289 163.24 60.8688C163.525 60.8087 163.791 60.7348 164.075 60.6147C164.364 60.4946 164.672 60.3283 164.929 60.1712C165.181 60.0141 165.383 59.8709 165.621 59.663C165.86 59.4505 166.14 59.178 166.374 58.9008C166.608 58.6236 166.796 58.3464 166.97 57.9814C167.144 57.6165 167.31 57.1683 167.424 56.771C167.534 56.3737 167.599 56.0272 167.626 55.8101C167.654 55.593 167.649 55.5052 167.654 55.4636C167.654 55.422 167.667 55.4267 167.874 55.7778C168.08 56.1289 168.48 56.8265 168.81 57.3531C169.136 57.8844 169.388 58.2448 169.663 58.5312C169.934 58.8176 170.228 59.0301 170.526 59.1918C170.824 59.3535 171.127 59.469 171.425 59.5291C171.719 59.5937 172.008 59.603 172.292 59.5799C172.576 59.5568 172.852 59.4921 173.122 59.3766C173.393 59.2565 173.655 59.0856 173.852 58.9192C174.049 58.7529 174.173 58.5912 174.288 58.388C174.398 58.1847 174.499 57.9398 174.535 57.6719C174.572 57.3993 174.554 57.099 174.476 56.7987C174.398 56.5031 174.26 56.2074 174.086 55.9256C173.912 55.6438 173.7 55.3712 173.462 55.1541C173.223 54.9323 172.962 54.7614 172.737 54.6505C172.512 54.5397 172.324 54.4935 172.136 54.4657C171.948 54.438 171.76 54.4334 171.581 54.475C171.402 54.5166 171.223 54.609 171.095 54.7198C170.962 54.8261 170.879 54.9508 170.815 55.094C170.751 55.2372 170.705 55.4036 170.718 55.5976C170.732 55.7916 170.801 56.0134 170.911 56.1889C171.021 56.3691 171.173 56.5077 171.315 56.5955C171.457 56.6833 171.585 56.7202 171.714 56.7202C171.842 56.7202 171.971 56.6786 172.118 56.614C172.265 56.5493 172.439 56.4615 172.567 56.4061C172.696 56.3552 172.783 56.3414 172.861 56.346C172.939 56.346 173.008 56.3691 173.072 56.4014C173.136 56.4338 173.191 56.48 173.255 56.5493C173.32 56.6186 173.389 56.711 173.439 56.8634C173.489 57.0113 173.517 57.2145 173.517 57.3762C173.517 57.5379 173.485 57.6488 173.421 57.7781C173.356 57.9029 173.265 58.0415 173.132 58.157C172.999 58.2725 172.829 58.3649 172.632 58.4295C172.434 58.4942 172.205 58.5266 171.998 58.5219C171.792 58.5173 171.608 58.4711 171.42 58.388C171.232 58.3048 171.044 58.1847 170.87 58.0415C170.691 57.8936 170.526 57.7181 170.347 57.4871C170.163 57.2515 169.966 56.9604 169.723 56.5724C169.48 56.1797 169.191 55.69 168.897 55.1448C168.603 54.5997 168.301 54.0038 168.044 53.5233C167.782 53.0474 167.567 52.6963 167.305 52.299C167.044 51.9064 166.745 51.4721 166.484 51.1302C166.222 50.7884 166.007 50.5435 165.754 50.294C165.502 50.0446 165.222 49.7905 164.956 49.578C164.69 49.3655 164.438 49.1991 164.153 49.0328C163.869 48.8711 163.552 48.7094 163.254 48.5847C162.956 48.46 162.671 48.3676 162.369 48.2937C162.066 48.2197 161.74 48.1643 161.4 48.132C161.061 48.0996 160.712 48.0858 160.35 48.1042C159.983 48.1181 159.607 48.1643 159.253 48.229C158.905 48.2937 158.579 48.3768 158.272 48.4831C157.964 48.5893 157.68 48.7233 157.432 48.8988C157.184 49.0744 156.969 49.2915 156.849 49.4301" fill="#007B33"/>
</svg>
