<svg width="64" height="64" viewBox="0 0 64 64" fill="none" xmlns="http://www.w3.org/2000/svg">
<rect width="64" height="64" rx="18.6667" fill="#FFBB00"/>
<path d="M29.0087 35.2288C30.4012 36.7862 32.3994 38.4295 34.1693 39.554C34.6649 39.8688 35.4082 40.2478 35.9675 39.916C36.9205 39.3508 37.2113 37.6899 38.4686 37.0047C38.938 36.749 39.2052 36.8274 39.6921 36.9626C40.985 37.3215 42.381 37.9334 43.624 38.4558C44.5924 38.8625 47.0717 39.9077 47.6821 40.6597C48.3356 41.4645 47.8345 43.3491 47.4855 44.2416C46.4391 46.9174 44.0599 49.0133 41.1092 49.2788C37.0278 49.6457 34.1885 48.1183 31.0232 45.8434C27.1832 43.0839 23.3761 38.7956 20.702 34.9157C17.4639 30.2187 13.7734 23.1375 17.6885 17.7921C19.3121 15.5752 22.3247 14.3221 25.0814 14.7496C26.4826 14.9669 26.9349 16.4413 27.2318 17.605C27.7116 19.485 28.2342 21.6979 28.4681 23.6148C28.5303 24.125 28.5574 24.4254 28.2104 24.8485C27.4845 25.734 26.1203 25.9393 25.1672 26.5019C24.4902 26.9017 24.5914 27.2243 24.7357 27.9196C24.8796 28.6128 25.2321 29.3355 25.5398 29.9762C26.4373 31.8447 27.6241 33.68 29.0087 35.2288Z" fill="white"/>
</svg>
