<svg width="27" height="27" viewBox="0 0 27 27" fill="none" xmlns="http://www.w3.org/2000/svg">
<path d="M23.0488 3.9375C20.5087 1.40625 17.1219 0 13.547 0C6.11498 0 0.0940752 6 0.0940752 13.4062C0.0940752 15.75 0.752613 18.0937 1.88153 20.0625L0 27L7.14983 25.125C9.12544 26.1562 11.2892 26.7188 13.547 26.7188C20.9791 26.7188 27 20.7188 27 13.3125C26.9059 9.84375 25.5888 6.46875 23.0488 3.9375ZM20.0383 18.1875C19.7561 18.9375 18.439 19.6875 17.7805 19.7812C17.216 19.875 16.4634 19.875 15.7108 19.6875C15.2404 19.5 14.5819 19.3125 13.8293 18.9375C10.4425 17.5312 8.27875 14.1562 8.09059 13.875C7.90244 13.6875 6.67944 12.0937 6.67944 10.4062C6.67944 8.71875 7.52613 7.96875 7.80836 7.59375C8.09059 7.21875 8.4669 7.21875 8.74913 7.21875C8.93728 7.21875 9.21951 7.21875 9.40766 7.21875C9.59581 7.21875 9.87805 7.125 10.1603 7.78125C10.4425 8.4375 11.101 10.125 11.1951 10.2188C11.2892 10.4062 11.2892 10.5938 11.1951 10.7812C11.101 10.9688 11.007 11.1562 10.8188 11.3437C10.6307 11.5312 10.4425 11.8125 10.3484 11.9062C10.1603 12.0937 9.97212 12.2812 10.1603 12.5625C10.3484 12.9375 11.007 13.9687 12.0418 14.9062C13.3589 16.0312 14.3937 16.4062 14.77 16.5938C15.1463 16.7812 15.3345 16.6875 15.5226 16.5C15.7108 16.3125 16.3693 15.5625 16.5575 15.1875C16.7456 14.8125 17.0279 14.9062 17.3101 15C17.5923 15.0938 19.2857 15.9375 19.5679 16.125C19.9443 16.3125 20.1324 16.4062 20.2265 16.5C20.3206 16.7812 20.3206 17.4375 20.0383 18.1875Z" fill="#003C24"/>
</svg>
